<?xml version="1.0" encoding="UTF-8"?>
<svg width="32px" height="32px" viewBox="0 0 32 32" version="1.1" xmlns="http://www.w3.org/2000/svg" xmlns:xlink="http://www.w3.org/1999/xlink">
    <!-- Generator: Sketch 52.5 (67469) - http://www.bohemiancoding.com/sketch -->
    <title>a-rating-medium</title>
    <desc>Created with Sketch.</desc>
    <g id="Styles" stroke="none" stroke-width="1" fill="none" fill-rule="evenodd">
        <g id="Style-Guide-1" transform="translate(-120.000000, -590.000000)">
            <g id="Atoms/Content/Rating---Medium" transform="translate(120.000000, 590.000000)">
                <circle id="Oval" fill="#F7F8F9" fill-rule="evenodd" cx="16" cy="16" r="16"></circle>
                <path d="" id="Path-3" stroke="#979797" stroke-width="0.5"></path>
                <path d="M16.1766726,10.6493113 L17.6172214,18.0369716 C17.7913835,18.9301383 17.2085151,19.7953792 16.3153483,19.9695413 C16.2114546,19.9898 16.1058505,20 16,20 L16,20 C15.0900114,20 14.3523199,19.2623085 14.3523199,18.3523199 C14.3523199,18.2464695 14.36252,18.1408653 14.3827786,18.0369716 L15.8233274,10.6493113 C15.8423537,10.5517377 15.9368765,10.4880626 16.0344501,10.5070888 C16.1063929,10.5211172 16.1626441,10.5773685 16.1766726,10.6493113 Z" id="Combined-Shape" fill="#203641" fill-rule="evenodd"></path>
                <path d="M28.5,17 C28.5,13.553786 27.1053981,10.4332987 24.8497701,8.17211399 C22.5868563,5.90362565 19.4573453,4.5 16,4.5 C12.5510037,4.5 9.42826022,5.89685472 7.16663895,8.15569488 C4.90136742,10.4181808 3.5,13.545437 3.5,17" id="Oval" stroke="#FCCF47" stroke-width="3" opacity="0.200000003" stroke-linecap="round" stroke-linejoin="round"></path>
                <path d="M16,4.5 C12.5510037,4.5 9.42826022,5.89685472 7.16663895,8.15569488 C4.90136742,10.4181808 3.5,13.545437 3.5,17" id="Oval" stroke="#FCCF47" stroke-width="3" stroke-linecap="round" stroke-linejoin="round"></path>
            </g>
        </g>
    </g>
</svg>