<?xml version="1.0" encoding="UTF-8"?>
<svg width="30px" height="30px" viewBox="0 0 30 30" version="1.1" xmlns="http://www.w3.org/2000/svg" xmlns:xlink="http://www.w3.org/1999/xlink">
    <!-- Generator: Sketch 52.5 (67469) - http://www.bohemiancoding.com/sketch -->
    <title>Atoms/Icons/icon-crown</title>
    <desc>Created with Sketch.</desc>
    <g id="Atoms/Icons/icon-crown" stroke="none" stroke-width="1" fill="none" fill-rule="evenodd">
        <g id="Group" transform="translate(1.000000, 3.000000)" fill="#203641">
            <path d="M5.9148576,20.1427714 L22.0851424,20.1427714 C22.1808812,20.1427714 22.2631924,20.2106195 22.2814656,20.3045983 L22.9536896,23.7618269 C22.974772,23.8702532 22.9039658,23.9752408 22.7955395,23.9963232 C22.7829622,23.9987688 22.7701791,24 22.7573664,24 L5.24263365,24 C5.1321767,24 5.04263365,23.9104569 5.04263365,23.8 C5.04263365,23.7871872 5.04386489,23.7744041 5.04631041,23.7618269 L5.71853436,20.3045983 C5.7368076,20.2106195 5.81911882,20.1427714 5.9148576,20.1427714 Z M10,3.80963818 C8.8954305,3.80963818 8,2.95682162 8,1.90481909 C8,0.852816555 8.8954305,0 10,0 C11.1045695,0 12,0.852816555 12,1.90481909 C12,2.95682162 11.1045695,3.80963818 10,3.80963818 Z M2,4.76144729 C0.8954305,4.76144729 3.55271368e-15,3.90863074 3.55271368e-15,2.8566282 C3.55271368e-15,1.80462567 0.8954305,0.951809116 2,0.951809116 C3.1045695,0.951809116 4,1.80462567 4,2.8566282 C4,3.90863074 3.1045695,4.76144729 2,4.76144729 Z M18,3.80963818 C16.8954305,3.80963818 16,2.95682162 16,1.90481909 C16,0.852816555 16.8954305,0 18,0 C19.1045695,0 20,0.852816555 20,1.90481909 C20,2.95682162 19.1045695,3.80963818 18,3.80963818 Z M26,4.76144729 C24.8954305,4.76144729 24,3.90863074 24,2.8566282 C24,1.80462567 24.8954305,0.951809116 26,0.951809116 C27.1045695,0.951809116 28,1.80462567 28,2.8566282 C28,3.90863074 27.1045695,4.76144729 26,4.76144729 Z" id="Combined-Shape"></path>
            <path d="M19.2905748,12.3574258 L24.4822861,5.95443308 C24.5825126,5.83082257 24.7639685,5.81186615 24.887579,5.91209274 C24.9710198,5.9797487 25.0098976,6.08820327 24.9884416,6.1934617 L22.4207001,18.7902288 C22.3732339,19.0230872 22.168422,19.1903618 21.930775,19.1903618 L6.05831826,19.1903618 C5.82067128,19.1903618 5.61585934,19.0230872 5.56839318,18.7902288 L3.01360045,6.25698551 C2.98181517,6.10105404 3.08245555,5.94887955 3.23838702,5.91709428 C3.34610418,5.89513707 3.45692921,5.93638395 3.52407993,6.02342352 L8.41074035,12.3574258 L9.96157761,5.18643624 C9.99521601,5.03089402 10.1485772,4.93207145 10.3041194,4.96570986 C10.3926468,4.98485525 10.46702,5.04451151 10.504919,5.12677512 L13.8360888,12.3574258 L17.1693325,5.12227333 C17.2359209,4.97773641 17.4070717,4.9145466 17.5516086,4.98113494 C17.6335527,5.01888668 17.6930838,5.09284063 17.7124608,5.18095736 L19.2905748,12.3574258 Z" id="Combined-Shape"></path>
        </g>
    </g>
</svg>