<?xml version="1.0" encoding="UTF-8"?>
<svg width="30px" height="30px" viewBox="0 0 30 30" version="1.1" xmlns="http://www.w3.org/2000/svg" xmlns:xlink="http://www.w3.org/1999/xlink">
    <!-- Generator: Sketch 52.5 (67469) - http://www.bohemiancoding.com/sketch -->
    <title>Atoms/Icons/icon-market</title>
    <desc>Created with Sketch.</desc>
    <g id="Atoms/Icons/icon-market" stroke="none" stroke-width="1" fill="none" fill-rule="evenodd">
        <path d="M17,15.8066898 L17,23.4999991 C17,23.7761415 17.2238576,23.9999991 17.5,23.9999991 L23.5,23.9999991 C23.7761424,23.9999991 24,23.7761415 24,23.4999991 L24,15.9316446 C24.2448056,15.9767375 24.4955717,15.9999955 24.75,15.9999955 C25.1855085,15.9999955 25.605181,15.9325633 26,15.8073791 L26,25 C26,25.5522847 25.5522847,26 25,26 L5,26 C4.44771525,26 4,25.5522847 4,25 L4,15.8073791 C4.39481903,15.9325633 4.81449154,15.9999955 5.25,15.9999955 C5.50453711,15.9999955 5.7552977,15.9767107 6,15.9316283 L6,20.4999977 C6,20.7761401 6.22385763,20.9999977 6.5,20.9999977 L14.5,20.9999977 C14.7761424,20.9999977 15,20.7761401 15,20.4999977 L15,14.4392905 C15.5258163,15.0838222 16.219903,15.5591262 17,15.8066898 Z M15.5,13.4172372 L15.5,3.00032228 L19.5737149,3.00045747 L21.184586,13.0684069 C20.6618174,14.2107375 19.544259,14.999995 18.25,14.999995 C17.0921166,14.999995 16.0756579,14.3683021 15.5,13.4172372 Z M14.5,13.4172569 C13.9243281,14.3683108 12.9078754,14.999995 11.75,14.999995 C10.5148479,14.999995 9.44062553,14.2811798 8.89073231,13.2226618 L10.5263323,3.00015723 L14.5,3.0002891 L14.5,13.4172569 Z M22.3250673,13.8669204 L20.5864394,3.00049108 L24.2113038,3.00061137 C24.4006064,3.00061766 24.5709484,3.11555295 24.6418143,3.29109086 L28,11.6094673 C28,13.4820041 26.5449254,14.999995 24.75,14.999995 C23.7861184,14.999995 22.9202407,14.5622475 22.3250673,13.8669204 Z M7.79969092,13.7121762 C7.20441893,14.4966796 6.28355111,14.999995 5.25,14.999995 C3.45507456,14.999995 2,13.4820041 2,11.6094673 L5.35796573,3.2904999 C5.42883048,3.11494077 5.59919337,2.99999372 5.7885153,3 L9.51361857,3.00012362 L7.79969092,13.7121762 Z" id="Shape" fill="#203641"></path>
    </g>
</svg>