<?xml version="1.0" encoding="UTF-8"?>
<svg width="30px" height="30px" viewBox="0 0 30 30" version="1.1" xmlns="http://www.w3.org/2000/svg" xmlns:xlink="http://www.w3.org/1999/xlink">
    <!-- Generator: Sketch 52.5 (67469) - http://www.bohemiancoding.com/sketch -->
    <title>Atoms/Icons/icon-profile</title>
    <desc>Created with Sketch.</desc>
    <g id="Atoms/Icons/icon-profile" stroke="none" stroke-width="1" fill="none" fill-rule="evenodd">
        <path d="M26,24.5454511 L26,22.9325744 C26,21.4799824 25.46875,20.2245273 24.40625,19.16621 C23.34375,18.1078928 22.083333,17.5787342 20.625,17.5787342 C20.375,17.5787342 19.958333,17.6617391 19.375,17.82775 C17.875,18.3257816 16.427083,18.5747975 15.03125,18.5747975 C13.635417,18.5747975 12.166667,18.3257816 10.625,17.82775 C10,17.6617391 9.58333302,17.5787342 9.375,17.5787342 C7.91666698,17.5787342 6.65625,18.1078928 5.59375,19.16621 C4.53125,20.2245273 4,21.4799824 4,22.9325744 L4,24.5454511 C4,25.3487763 4.65122373,26 5.45454892,26 L24.5454511,26 C25.3487763,26 26,25.3487763 26,24.5454511 Z M15,4 C13.333333,4 11.916667,4.5810366 10.75,5.74311076 C9.58333302,6.90518492 9,8.31627395 9,9.97637975 C9,11.6364856 9.58333302,13.0475746 10.75,14.2096487 C11.916667,15.3717229 13.333333,15.9527595 15,15.9527595 C16.666667,15.9527595 18.083333,15.3717229 19.25,14.2096487 C20.416667,13.0475746 21,11.6364856 21,9.97637975 C21,8.31627395 20.416667,6.90518492 19.25,5.74311076 C18.083333,4.5810366 16.666667,4 15,4 Z" id="Shape" fill="#203641"></path>
    </g>
</svg>