<?xml version="1.0" encoding="UTF-8"?>
<svg width="30px" height="30px" viewBox="0 0 30 30" version="1.1" xmlns="http://www.w3.org/2000/svg" xmlns:xlink="http://www.w3.org/1999/xlink">
    <!-- Generator: Sketch 52.5 (67469) - http://www.bohemiancoding.com/sketch -->
    <title>Atoms/Icons/icon-map-hollow</title>
    <desc>Created with Sketch.</desc>
    <g id="Atoms/Icons/icon-map-hollow" stroke="none" stroke-width="1" fill="none" fill-rule="evenodd">
        <path d="M26.8193919,6 C26.9895305,6 27.145491,6.06380194 27.2872729,6.19140583 C27.4290547,6.31900971 27.499946,6.48205891 27.499946,6.68055406 L27.499946,21.3975355 C27.499946,21.6810999 27.4219661,21.9363077 27.2660055,22.1631588 C27.110045,22.39001 26.9044612,22.5601485 26.6492534,22.6735744 L20.1839899,24.9279097 C19.6168617,25.0980482 19.0497329,25.0980482 18.4826048,24.9279097 L11.1666487,22.3332973 L3.93576183,25.0129789 C3.85069257,25.0413356 3.76562331,25.0555136 3.68055406,25.0555136 C3.51041554,25.0555136 3.35445502,24.9917116 3.21267314,24.8641077 C3.07089126,24.7365038 3,24.5734546 3,24.3749595 L3,9.65797805 C3,9.37441364 3.07797994,9.11920587 3.23394046,8.89235474 C3.38990098,8.6655036 3.5954848,8.49536509 3.85069257,8.38193919 L10.3159561,6.12760389 C10.5995205,6.04253463 10.8830843,6 11.1666487,6 C11.4502131,6 11.7337768,6.04253463 12.0173412,6.12760389 L19.3332973,8.72221622 L26.5641842,6.04253463 C26.6492534,6.01417799 26.7343227,6 26.8193919,6 Z M12.5277568,8.46700845 L12.5277568,20.6319122 L17.9721892,22.5885051 L17.9721892,10.4236014 L12.5277568,8.46700845 Z M5.04166217,22.4183666 L10.4860946,20.4192391 L10.4860946,8.25433531 L5.04166217,10.125859 L5.04166217,22.4183666 Z M25.4582838,20.9296546 L25.4582838,8.63714697 L20.0138514,10.6362745 L20.0138514,22.8011782 L25.4582838,20.9296546 Z" id="Shape" fill="#203641"></path>
    </g>
</svg>