<?xml version="1.0" encoding="UTF-8"?>
<svg width="30px" height="30px" viewBox="0 0 30 30" version="1.1" xmlns="http://www.w3.org/2000/svg" xmlns:xlink="http://www.w3.org/1999/xlink">
    <!-- Generator: Sketch 52.5 (67469) - http://www.bohemiancoding.com/sketch -->
    <title>Atoms/Icons/icon-scan</title>
    <desc>Created with Sketch.</desc>
    <g id="Atoms/Icons/icon-scan" stroke="none" stroke-width="1" fill="none" fill-rule="evenodd">
        <path d="M6,12 L4,12 C3.44771525,12 3,11.5522847 3,11 L3,9 C3,5.6862915 5.6862915,3 9,3 L11,3 C11.5522847,3 12,3.44771525 12,4 L12,6 C12,6.55228475 11.5522847,7 11,7 L9,7 C7.8954305,7 7,7.8954305 7,9 L7,11 C7,11.5522847 6.55228475,12 6,12 Z M6,18 C6.55228475,18 7,18.4477153 7,19 L7,21 C7,22.1045695 7.8954305,23 9,23 L11,23 C11.5522847,23 12,23.4477153 12,24 L12,26 C12,26.5522847 11.5522847,27 11,27 L9,27 C5.6862915,27 3,24.3137085 3,21 L3,19 C3,18.4477153 3.44771525,18 4,18 L6,18 Z M24,12 C23.4477153,12 23,11.5522847 23,11 L23,9 C23,7.8954305 22.1045695,7 21,7 L19,7 C18.4477153,7 18,6.55228475 18,6 L18,4 C18,3.44771525 18.4477153,3 19,3 L21,3 C24.3137085,3 27,5.6862915 27,9 L27,11 C27,11.5522847 26.5522847,12 26,12 L24,12 Z M24,18 L26,18 C26.5522847,18 27,18.4477153 27,19 L27,21 C27,24.3137085 24.3137085,27 21,27 L19,27 C18.4477153,27 18,26.5522847 18,26 L18,24 C18,23.4477153 18.4477153,23 19,23 L21,23 C22.1045695,23 23,22.1045695 23,21 L23,19 C23,18.4477153 23.4477153,18 24,18 Z M18,13 L18,17 C18,17.5522847 17.5522847,18 17,18 L13,18 C12.4477153,18 12,17.5522847 12,17 L12,13 C12,12.4477153 12.4477153,12 13,12 L17,12 C17.5522847,12 18,12.4477153 18,13 Z" id="Shape" fill="#203641"></path>
    </g>
</svg>