<?xml version="1.0" encoding="UTF-8"?>
<svg width="30px" height="30px" viewBox="0 0 30 30" version="1.1" xmlns="http://www.w3.org/2000/svg" xmlns:xlink="http://www.w3.org/1999/xlink">
    <!-- Generator: Sketch 52.5 (67469) - http://www.bohemiancoding.com/sketch -->
    <title>Atoms/Icons/iconA-wash-gold</title>
    <desc>Created with Sketch.</desc>
    <g id="Atoms/Icons/iconA-wash-gold" stroke="none" stroke-width="1" fill="none" fill-rule="evenodd">
        <rect id="Bounding-Box" fill-opacity="0" fill="#FFFFFF" x="0" y="0" width="30" height="30"></rect>
        <path d="M17,11 L13,11 L13,12.252035 C13.6392398,12.087506 14.3094009,12 15,12 C15.6905991,12 16.3607602,12.087506 17,12.252035 L17,11 Z M19,11 L19,13.0702576 C21.3912055,14.4534952 23,17.0388706 23,20 C23,24.418278 19.418278,28 15,28 C10.581722,28 7,24.418278 7,20 C7,17.0388706 8.60879452,14.4534952 11,13.0702576 L11,11 L7.5,11 C7.22385763,11 7,10.7761424 7,10.5 L7,2.5 C7,2.22385763 7.22385763,2 7.5,2 L22.5,2 C22.7761424,2 23,2.22385763 23,2.5 L23,10.5 C23,10.7761424 22.7761424,11 22.5,11 L19,11 Z M15,26 C18.3137085,26 21,23.3137085 21,20 C21,16.6862915 18.3137085,14 15,14 C11.6862915,14 9,16.6862915 9,20 C9,23.3137085 11.6862915,26 15,26 Z" id="Shape" fill="#3883F2" opacity="0.7"></path>
        <path d="M4,2 L5.5,2 C5.77614237,2 6,2.22385763 6,2.5 L6,10.5 C6,10.7761424 5.77614237,11 5.5,11 L4,11 C3.44771525,11 3,10.5522847 3,10 L3,3 C3,2.44771525 3.44771525,2 4,2 Z M15,25 C12.2385763,25 10,22.7614237 10,20 C10,17.2385763 12.2385763,15 15,15 C17.7614237,15 20,17.2385763 20,20 C20,22.7614237 17.7614237,25 15,25 Z M24.5,2 L26,2 C26.5522847,2 27,2.44771525 27,3 L27,10 C27,10.5522847 26.5522847,11 26,11 L24.5,11 C24.2238576,11 24,10.7761424 24,10.5 L24,2.5 C24,2.22385763 24.2238576,2 24.5,2 Z M15,21.71 L16.4653784,22.3058815 C16.4938041,22.3174405 16.5245085,22.3223036 16.5551149,22.3200943 C16.6652852,22.3121419 16.7481492,22.2163845 16.7401968,22.1062142 L16.6263066,20.5284191 L17.6458504,19.3188989 C17.6656277,19.2954364 17.679741,19.2677376 17.6870978,19.2379464 C17.7135791,19.1307108 17.6481147,19.0223118 17.5408791,18.9958305 L16.0051128,18.6165809 L15.1698471,17.2731749 C15.1536444,17.2471152 15.1316625,17.2251333 15.1056028,17.2089306 C15.0117988,17.1506078 14.8884757,17.179371 14.8301529,17.2731749 L13.9948872,18.6165809 L12.4591209,18.9958305 C12.4293297,19.0031873 12.4016309,19.0173005 12.3781684,19.0370779 C12.293713,19.108268 12.2829595,19.2344436 12.3541496,19.3188989 L13.3736934,20.5284191 L13.2598032,22.1062142 C13.257594,22.1368206 13.2624571,22.167525 13.2740161,22.1959508 C13.3156238,22.2982715 13.4323009,22.3474892 13.5346216,22.3058815 L15,21.71 Z" id="Accent" fill="#3883F2"></path>
    </g>
</svg>