<?xml version="1.0" encoding="UTF-8"?>
<svg width="30px" height="30px" viewBox="0 0 30 30" version="1.1" xmlns="http://www.w3.org/2000/svg" xmlns:xlink="http://www.w3.org/1999/xlink">
    <!-- Generator: Sketch 52.5 (67469) - http://www.bohemiancoding.com/sketch -->
    <title>Atoms/Icons/icon-detail</title>
    <desc>Created with Sketch.</desc>
    <g id="Atoms/Icons/icon-detail" stroke="none" stroke-width="1" fill="none" fill-rule="evenodd">
        <path d="M11.8815034,18.7281075 C11.7808937,18.8246081 11.7922163,19.0337951 11.9716816,19.0682501 C12.0582969,19.0848681 12.1238298,19.0490061 12.1619185,18.9931933 C12.6663179,19.4694285 13.2977393,20.0631233 13.4734886,20.2288881 C10.359581,22.5846511 8.38998682,21.4972055 7.37896381,19.4463505 C6.56019352,17.7857315 4.0740788,17.885976 3.16547915,16.0494094 C2.2568795,14.2128428 5.30620344,12.2430329 7.04931093,10.5894851 C10.4132466,7.39844026 8.77473109,6.28673929 11.8243336,4.4107959 C13.7198028,3.24488252 15.4161155,4.83368041 17.3010001,5.79355891 C19.1858848,6.75357606 20.8579644,6.7416521 21.6421957,8.86938508 C22.0726673,10.0373169 21.5091777,11.024068 20.7045075,11.9797447 C20.6580599,11.9323155 20.6110822,11.8850367 20.5635477,11.8378411 C20.4665464,11.7415313 20.3709561,11.6492316 20.2682429,11.5520827 C20.2081715,11.4952655 20.1440621,11.4353038 20.0518306,11.3491158 C19.1202305,10.4745889 17.8239179,9.24303897 17.7508175,9.15795512 C16.8992055,8.16669837 15.6563436,8.69752604 15.3225736,9.71735482 C14.94881,9.37073705 14.6352301,9.07830939 14.6556242,9.09696927 C13.3621632,7.91349868 12.068124,7.27464903 11.2773923,8.07348872 C11.1192043,8.23322266 11.0115123,8.40401719 10.947986,8.58085537 C10.4054541,8.34871601 9.83527205,8.42692767 9.37889119,8.89379251 C8.85777586,9.42701488 8.89741507,10.0283432 9.25524273,10.6939758 C9.01895025,10.7709318 8.79946457,10.9346926 8.59356298,11.199265 C8.11832706,11.8099173 8.24389249,12.3525071 8.93391245,13.1925262 C8.78450272,13.2746371 8.64213961,13.3991361 8.50540228,13.5712289 C7.73507262,14.5407386 8.47719246,15.4380769 11.2009523,18.0767189 C11.3340383,18.2056461 11.4722755,18.3385633 11.617332,18.4771497 C11.6852299,18.5420191 11.776123,18.6283261 11.8815034,18.7281075 Z M24.7972258,19.7476383 C25.0402525,19.9429971 25.0692208,20.3014091 24.8603153,20.5330943 L20.9983489,24.8194794 C20.7936216,25.0467278 20.4412676,25.0614248 20.2181565,24.8522009 L20.1446218,24.7831529 C19.9740156,24.6231501 19.9302848,24.3796795 20.0166324,24.1764176 C19.406489,23.5857658 17.9200568,22.1618236 17.3852587,21.78303 C16.7054802,21.3016349 16.0078751,21.4616378 14.1000108,19.6514148 C12.1921465,17.8411918 8.69715751,14.6970109 9.17318351,14.0979014 C9.64920951,13.4987919 11.4198925,15.2618736 11.9963324,15.7323153 C12.5726331,16.202757 12.9401675,16.2787376 12.9449027,16.0355443 C12.9496379,15.7923511 8.73866007,12.3976284 9.2666339,11.7192107 C9.79460773,11.040793 11.375326,12.6119823 12.3195789,13.4867293 C13.2638317,14.3613376 13.9824666,15.1054757 14.1580865,14.851745 C14.3337064,14.5980143 11.8324112,12.487474 11.3494217,11.9513119 C10.8664322,11.4151498 9.44308941,10.0444494 9.98902912,9.48582591 C10.5351081,8.92720241 11.1084841,9.77865609 11.8987039,10.4000883 C12.6887845,11.0216592 15.6585851,13.8343265 15.9195777,13.5754657 C16.1807096,13.3166049 12.6549418,10.2334303 12.2275212,9.83716667 C11.8001005,9.44090309 11.5913343,8.96463809 11.883802,8.66931219 C12.1761304,8.37398629 13.1848655,8.9033545 14.0795381,9.72194798 C14.9742107,10.5405415 17.912954,13.3931401 18.2303511,13.0040863 C18.5505336,12.6115663 16.0731929,10.8214477 16.0894875,10.229548 C16.1057821,9.63750973 16.6880714,9.22585592 17.1037934,9.70974672 C17.2355431,9.86309435 18.9357553,11.4672824 19.467768,11.9667021 C19.9997807,12.4661218 21.7804911,14.0710031 21.9382844,15.7751584 C22.0960777,17.4791749 22.0178078,17.7072553 22.2062405,18.0896538 C22.3521959,18.3858116 23.6220627,19.2996581 24.1875003,19.6968922 C24.3773258,19.5908245 24.6193776,19.6046895 24.7972258,19.7476383 Z M13.5461327,6.55863323 C13.7951481,6.60632906 13.7203599,6.99094598 13.4716231,6.94338881 C13.2226077,6.89555433 13.2975352,6.51093741 13.5461327,6.55863323 Z M12.3569033,6.95115324 C12.6060579,6.99898772 12.5311305,7.38360464 12.282533,7.33590882 C12.0333783,7.28807434 12.1083058,6.90345742 12.3569033,6.95115324 Z M12.8559089,5.9829557 L12.8130137,5.97477531 C12.7119034,5.95536422 12.5979803,6.02524415 12.5825213,6.13006405 C12.5670623,6.23516125 12.6301517,6.33873329 12.738504,6.35953089 L12.7813993,6.36771128 C12.8825096,6.38712237 12.9964327,6.31724244 13.0118917,6.21242254 C13.02749,6.10718669 12.9642612,6.0037533 12.8559089,5.9829557 Z M6.01648214,13.7148096 C6.26549749,13.7625054 6.19070933,14.1471224 5.94197251,14.0995652 C5.69295716,14.0517307 5.76788459,13.6671138 6.01648214,13.7148096 Z M5.11261768,15.6249997 C5.36163303,15.6726955 5.28670559,16.0573125 5.03810805,16.0097553 C4.78909269,15.9619208 4.86402013,15.5773039 5.11261768,15.6249997 Z M6.4466882,16.3240763 C6.69570355,16.3719108 6.62091538,16.7565277 6.37231784,16.7088319 C6.12316321,16.6609974 6.19809065,16.2763805 6.4466882,16.3240763 Z M6.94931483,14.6472353 C7.19833019,14.6950697 7.12354202,15.0796867 6.8748052,15.0319908 C6.62578985,14.9841564 6.70071729,14.5995394 6.94931483,14.6472353 Z M10.2081014,18.2866764 C10.457256,18.3345109 10.3823285,18.7191278 10.133731,18.6714319 C9.88457637,18.6235975 9.95950381,18.2389805 10.2081014,18.2866764 Z M9.29114548,19.5737704 C9.54030011,19.6216049 9.46537267,20.0062218 9.21677512,19.958526 C8.9676205,19.9106915 9.04254794,19.5260746 9.29114548,19.5737704 Z M11.1952495,19.6286761 C11.4444041,19.6763719 11.3694767,20.0609888 11.1208791,20.0134317 C10.8717245,19.9655972 10.9466519,19.5809803 11.1952495,19.6286761 Z M20.2830565,9.71251973 C20.5322111,9.76021556 20.4572837,10.1448325 20.2086862,10.0972753 C19.9595315,10.0494408 20.034459,9.66482391 20.2830565,9.71251973 Z M19.6311321,8.47922214 C19.8802867,8.52691796 19.8053593,8.91153488 19.5566225,8.86397771 C19.3076071,8.81614323 19.3825345,8.43152631 19.6311321,8.47922214 Z M17.831063,8.57724815 C18.0800784,8.62508263 18.0052902,9.00969955 17.7565534,8.96200372 C17.507538,8.91416925 17.5824655,8.52955232 17.831063,8.57724815 Z M7.82838917,12.865297 C8.07740453,12.9131315 8.00261636,13.2977484 7.75401881,13.2500526 C7.50486419,13.2022181 7.57979163,12.8176012 7.82838917,12.865297 Z M7.66683559,11.8591092 C7.91599021,11.906805 7.84106277,12.291422 7.59246523,12.2438648 C7.3433106,12.1960303 7.41823804,11.8114134 7.66683559,11.8591092 Z M15.434917,8.07339166 C15.6839323,8.12122614 15.6091441,8.50584306 15.3604073,8.45814724 C15.111392,8.41031276 15.1863194,8.02569584 15.434917,8.07339166 Z" id="Combined-Shape" fill="#203641"></path>
    </g>
</svg>