<?xml version="1.0" encoding="UTF-8"?>
<svg width="30px" height="30px" viewBox="0 0 30 30" version="1.1" xmlns="http://www.w3.org/2000/svg" xmlns:xlink="http://www.w3.org/1999/xlink">
    <!-- Generator: Sketch 52.5 (67469) - http://www.bohemiancoding.com/sketch -->
    <title>Atoms/Icons/icon-calendar-repeat-hollow</title>
    <desc>Created with Sketch.</desc>
    <g id="Atoms/Icons/icon-calendar-repeat-hollow" stroke="none" stroke-width="1" fill="none" fill-rule="evenodd">
        <path d="M14.5702576,12 C15.2965906,13.2556132 16.3543844,14.2954952 17.6239928,15 L5,15 L5,24 C5,24.5522847 5.44771525,25 6,25 L24,25 C24.5522847,25 25,24.5522847 25,24 L25,15.1957671 C25.9553375,14.7302269 26.8041514,14.0800402 27.5,13.2916488 L27.5,24 C27.5,25.9329966 25.9329966,27.5 24,27.5 L6,27.5 C4.06700338,27.5 2.5,25.9329966 2.5,24 L2.5,9 C2.5,7.06700338 4.06700338,5.5 6,5.5 L8,5.5 L8,3 C8,2.44771525 8.44771525,2 9,2 L10,2 C10.5522847,2 11,2.44771525 11,3 L11,5.5 L13.8983785,5.5 C13.6398531,6.28654849 13.5,7.12694203 13.5,8 L11,8 L11,9 C11,9.55228475 10.5522847,10 10,10 L9,10 C8.44771525,10 8,9.55228475 8,9 L8,8 L6,8 C5.44771525,8 5,8.44771525 5,9 L5,12 L14.5702576,12 Z M28.308915,7.52394251 C28.3607968,7.52421794 28.4113077,7.54062809 28.4534449,7.57089787 C28.5655815,7.65145254 28.5911836,7.8076596 28.5106289,7.91979612 L26.4234579,10.8252526 C26.4088875,10.8455355 26.3913602,10.8635206 26.3714597,10.878609 C26.2614371,10.9620277 26.104622,10.940461 26.0212033,10.8304384 L23.8009598,7.90211523 C23.767734,7.85829315 23.7498849,7.80473822 23.7501768,7.74974514 C23.7509098,7.6116759 23.8634312,7.50034285 24.0015004,7.50107581 L25.2312369,7.5076041 C24.883199,5.65318903 23.2554657,4.25 21.3,4.25 C19.090861,4.25 17.3,6.040861 17.3,8.25 C17.3,10.459139 19.090861,12.25 21.3,12.25 C22.1239567,12.25 22.9145061,12.0009852 23.5832254,11.5349059 C23.6075282,11.5179675 23.6405084,11.4940124 23.6817443,11.4633096 C23.8344559,11.3494908 24.0500118,11.3786496 24.1669971,11.528806 L24.9660102,12.5541885 C25.084849,12.7067241 25.0575324,12.9267165 24.9049969,13.0455553 C24.9022503,13.0476806 24.9022503,13.0476806 24.8994759,13.0497693 C24.8238362,13.1063245 24.7633395,13.1503592 24.7173928,13.1822527 C23.7158122,13.8774926 22.5300227,14.25 21.3,14.25 C17.9862915,14.25 15.3,11.5637085 15.3,8.25 C15.3,4.9362915 17.9862915,2.25 21.3,2.25 C24.3660343,2.25 26.8949358,4.549739 27.2558395,7.51835207 L28.308915,7.52394251 Z" id="Combined-Shape" fill="#203641"></path>
    </g>
</svg>