<?xml version="1.0" encoding="UTF-8"?>
<svg width="30px" height="30px" viewBox="0 0 30 30" version="1.1" xmlns="http://www.w3.org/2000/svg" xmlns:xlink="http://www.w3.org/1999/xlink">
    <!-- Generator: Sketch 52.5 (67469) - http://www.bohemiancoding.com/sketch -->
    <title>Atoms/Icons/icon-promo</title>
    <desc>Created with Sketch.</desc>
    <g id="Atoms/Icons/icon-promo" stroke="none" stroke-width="1" fill="none" fill-rule="evenodd">
        <path d="M22.9351982,4.9990614 L19.4532168,8.34272646 C18.9257334,8.34632118 18.4045733,8.54560593 18.0078553,8.94232397 C17.1913386,9.75884067 17.2111691,11.1025063 18.052148,11.9434852 C18.8931268,12.7844641 20.2367925,12.8042946 21.0533092,11.9877779 C21.5535186,11.4875685 21.7398505,10.7895224 21.6157993,10.1304105 L24.906533,6.97039614 L25.543698,7.60756113 C25.7245181,7.78838125 25.8228326,8.03572434 25.8154867,8.29133707 L25.6173362,15.1863622 C25.6105219,15.4234795 25.513284,15.6490135 25.3455475,15.81675 L14.4363337,26.7259639 C14.0734373,27.0888602 13.4850662,27.0888602 13.1221699,26.7259639 L3.26966929,16.8734633 C2.90677298,16.510567 2.90677298,15.9221958 3.26966929,15.5592995 L14.1788831,4.65008566 C14.3466196,4.48234918 14.5721537,4.38511124 14.809271,4.37829692 L21.7042961,4.18014644 C21.9599088,4.1728006 22.2072519,4.27111507 22.388072,4.45193519 L22.9351982,4.9990614 Z M20.011912,10.7044955 C19.7343296,10.9710514 19.2932905,10.9620375 19.0268236,10.6843624 C18.7603567,10.4066874 18.7693676,9.96550107 19.04695,9.69894523 L25.8208101,3.19416636 C26.0983925,2.92761052 26.5394315,2.93662441 26.8058984,3.21429946 C27.0723653,3.4919745 27.0633544,3.9331608 26.7857721,4.19971665 L20.011912,10.7044955 Z" id="Shape" fill="#203641"></path>
    </g>
</svg>