<?xml version="1.0" encoding="UTF-8"?>
<svg width="30px" height="30px" viewBox="0 0 30 30" version="1.1" xmlns="http://www.w3.org/2000/svg" xmlns:xlink="http://www.w3.org/1999/xlink">
    <!-- Generator: Sketch 52.5 (67469) - http://www.bohemiancoding.com/sketch -->
    <title>Atoms/Icons/iconA-promo</title>
    <desc>Created with Sketch.</desc>
    <g id="Atoms/Icons/iconA-promo" stroke="none" stroke-width="1" fill="none" fill-rule="evenodd">
        <rect id="Bounding-Box" fill-opacity="0" fill="#FFFFFF" x="0" y="0" width="30" height="30"></rect>
        <path d="M22.2738942,4.99233633 L22.062034,4.78047613 C21.971624,4.69006607 21.8479524,4.64090884 21.720146,4.64458176 L14.8251209,4.84273224 C14.7065623,4.8461394 14.5937953,4.89475837 14.509927,4.97862661 L3.60071318,15.8878404 C3.41926502,16.0692886 3.41926502,16.3634742 3.60071318,16.5449223 L13.4532138,26.3974229 C13.6346619,26.5788711 13.9288475,26.5788711 14.1102957,26.3974229 L25.0195095,15.4882091 C25.1033777,15.4043408 25.1519967,15.2915738 25.1554039,15.1730152 L25.3535543,8.27799005 C25.3572273,8.15018368 25.30807,8.02651213 25.21766,7.93610208 L24.9024457,7.62088785 L22.1103418,10.3020797 C22.1751551,11.0441201 21.9200426,11.7806293 21.3843531,12.3163188 C20.3841824,13.3164895 18.7464021,13.2923183 17.72611,12.2720261 C16.7058178,11.251734 16.6816466,9.61395366 17.6818173,8.61378303 C18.1095781,8.18602216 18.6673529,7.93472924 19.2599365,7.8865692 L22.2738942,4.99233633 Z M19.6925977,10.3693657 L26.4664577,3.86458688 C26.5589957,3.77572487 26.562001,3.62857833 26.4731643,3.53600493 C26.3844114,3.44351885 26.2375809,3.44051795 26.1451303,3.52929613 L19.3712702,10.034075 C19.2787323,10.122937 19.2757269,10.2700835 19.3645637,10.362657 C19.4533166,10.455143 19.600147,10.4581439 19.6925977,10.3693657 Z" id="Shape" stroke="#FF8D17" stroke-width="0.929254124" opacity="0.200000003"></path>
    </g>
</svg>