<?xml version="1.0" encoding="UTF-8"?>
<svg width="30px" height="30px" viewBox="0 0 30 30" version="1.1" xmlns="http://www.w3.org/2000/svg" xmlns:xlink="http://www.w3.org/1999/xlink">
    <!-- Generator: Sketch 52.5 (67469) - http://www.bohemiancoding.com/sketch -->
    <title>Atoms/Icons/icon-more</title>
    <desc>Created with Sketch.</desc>
    <g id="Atoms/Icons/icon-more" stroke="none" stroke-width="1" fill="none" fill-rule="evenodd">
        <path d="M4,18 C2.34314575,18 1,16.6568542 1,15 C1,13.3431458 2.34314575,12 4,12 C5.65685425,12 7,13.3431458 7,15 C7,16.6568542 5.65685425,18 4,18 Z M15,18 C13.3431458,18 12,16.6568542 12,15 C12,13.3431458 13.3431458,12 15,12 C16.6568542,12 18,13.3431458 18,15 C18,16.6568542 16.6568542,18 15,18 Z M26,18 C24.3431458,18 23,16.6568542 23,15 C23,13.3431458 24.3431458,12 26,12 C27.6568542,12 29,13.3431458 29,15 C29,16.6568542 27.6568542,18 26,18 Z" id="Combined-Shape" fill="#203641"></path>
    </g>
</svg>