<?xml version="1.0" encoding="UTF-8"?>
<svg width="30px" height="30px" viewBox="0 0 30 30" version="1.1" xmlns="http://www.w3.org/2000/svg" xmlns:xlink="http://www.w3.org/1999/xlink">
    <!-- Generator: Sketch 52.5 (67469) - http://www.bohemiancoding.com/sketch -->
    <title>Atoms/Icons/icon-diamond</title>
    <desc>Created with Sketch.</desc>
    <g id="Atoms/Icons/icon-diamond" stroke="none" stroke-width="1" fill="none" fill-rule="evenodd">
        <path d="M23.6885032,5.15418173 L26.9554285,10.3829158 C27.0514043,10.5365257 27.0046826,10.738855 26.8510727,10.8348308 C26.7989581,10.8673922 26.7387436,10.8846568 26.6772931,10.8846568 L22.9365264,10.8846568 C22.8137779,10.8846568 22.7013049,10.8161115 22.6450433,10.7070161 L19.9485336,5.47828205 C19.8655138,5.31730042 19.9287143,5.11949816 20.089696,5.03647834 C20.1361776,5.01250731 20.187718,5 20.2400166,5 L23.4103678,5 C23.5234622,5 23.628577,5.05826936 23.6885032,5.15418173 Z M12.7604799,5 L17.2394785,5 C17.362227,5 17.4747,5.06854526 17.5309616,5.1776407 L20.2274713,10.4063748 C20.3104911,10.5673564 20.2472906,10.7651586 20.0863089,10.8481785 C20.0398273,10.8721495 19.9882869,10.8846568 19.9359883,10.8846568 L10.0639701,10.8846568 C9.88284208,10.8846568 9.73600877,10.7378235 9.73600877,10.5566954 C9.73600877,10.5043967 9.74851607,10.4528564 9.77248711,10.4063748 L12.4689968,5.1776407 C12.5252584,5.06854526 12.6377314,5 12.7604799,5 Z M6.58959056,5 L9.75994175,5 C9.94106982,5 10.0879031,5.14683331 10.0879031,5.32796138 C10.0879031,5.38026007 10.0753958,5.43180042 10.0514248,5.47828205 L7.35491507,10.7070161 C7.29865348,10.8161115 7.18618049,10.8846568 7.06343204,10.8846568 L3.32266533,10.8846568 C3.14153727,10.8846568 2.99470396,10.7378235 2.99470396,10.5566954 C2.99470396,10.4952449 3.0119686,10.4350304 3.04452994,10.3829158 L6.31145517,5.15418173 C6.37138144,5.05826936 6.47649617,5 6.58959056,5 Z M3.49355953,12.4797677 L7.26616037,12.4797677 C7.39978842,12.4797677 7.52005401,12.5608422 7.57017666,12.6847138 L12.2872363,24.3423127 C12.3098828,24.3982806 12.2828705,24.4620101 12.2269026,24.4846566 C12.1815215,24.5030193 12.1294654,24.488973 12.0994812,24.4502744 L3.23431057,13.0085988 C3.12337329,12.8654196 3.14951056,12.6594174 3.2926898,12.5484802 C3.35017627,12.5039388 3.42083661,12.4797677 3.49355953,12.4797677 Z M10.1123037,12.4797677 L19.8876547,12.4797677 C20.0687827,12.4797677 20.215616,12.626601 20.215616,12.8077291 C20.215616,12.8475426 20.2083667,12.8870234 20.1942227,12.9242397 L15.3065472,25.7849092 C15.2422001,25.954222 15.0527814,26.0393136 14.8834686,25.9749665 C14.7958729,25.941676 14.7267018,25.8725048 14.6934112,25.7849092 L9.80573575,12.9242397 C9.7413887,12.7549269 9.82648027,12.5655082 9.9957931,12.5011611 C10.0330095,12.4870171 10.0724903,12.4797677 10.1123037,12.4797677 Z M17.7127221,24.3423129 L22.4297817,12.6847138 C22.4799044,12.5608422 22.60017,12.4797677 22.733798,12.4797677 L26.5063997,12.4797677 C26.6875277,12.4797677 26.834361,12.626601 26.834361,12.8077291 C26.834361,12.880452 26.8101899,12.9511124 26.7656486,13.0085988 L17.9004771,24.4502745 C17.8634981,24.4980009 17.7948307,24.5067134 17.7471043,24.4697343 C17.7084057,24.4397501 17.6943594,24.3876939 17.7127221,24.3423129 Z" id="Shape" fill="#203641"></path>
    </g>
</svg>