<?xml version="1.0" encoding="UTF-8"?>
<svg width="30px" height="30px" viewBox="0 0 30 30" version="1.1" xmlns="http://www.w3.org/2000/svg" xmlns:xlink="http://www.w3.org/1999/xlink">
    <!-- Generator: Sketch 52.5 (67469) - http://www.bohemiancoding.com/sketch -->
    <title>Atoms/Icons/icon-repeat</title>
    <desc>Created with Sketch.</desc>
    <g id="Atoms/Icons/icon-repeat" stroke="none" stroke-width="1" fill="none" fill-rule="evenodd">
        <path d="M28.6178299,13.047885 C28.7215936,13.0484359 28.8226155,13.0812562 28.9068899,13.1417957 C29.1311629,13.3029051 29.1823672,13.6153192 29.0212579,13.8395922 L24.8469158,19.6505053 C24.817775,19.6910709 24.7827204,19.7270412 24.7429195,19.7572181 C24.5228743,19.9240555 24.2092439,19.8809221 24.0424065,19.6608769 L19.6019195,13.8042305 C19.5354681,13.7165863 19.4997698,13.6094764 19.5003536,13.4994903 C19.5018196,13.2233518 19.7268624,13.0006857 20.0030009,13.0021516 L22.4624738,13.0152082 C21.7663979,9.30637807 18.5109313,6.5 14.6,6.5 C10.181722,6.5 6.6,10.081722 6.6,14.5 C6.6,18.918278 10.181722,22.5 14.6,22.5 C16.2479134,22.5 17.8290121,22.0019704 19.1664509,21.0698117 C19.2150563,21.0359351 19.2810168,20.9880247 19.3634886,20.9266192 C19.6689117,20.6989816 20.1000236,20.7572992 20.3339942,21.057612 L21.9320204,23.1083771 C22.169698,23.4134482 22.1150649,23.853433 21.8099938,24.0911106 C21.8045007,24.0953611 21.8045007,24.0953611 21.7989518,24.0995386 C21.6476724,24.212649 21.5266789,24.3007184 21.4347856,24.3645055 C19.4316244,25.7549851 17.0600454,26.5 14.6,26.5 C7.972583,26.5 2.6,21.127417 2.6,14.5 C2.6,7.872583 7.972583,2.5 14.6,2.5 C20.7320686,2.5 25.7898715,7.099478 26.5116789,13.0367041 L28.6178299,13.047885 Z" id="Path" fill="#203641"></path>
    </g>
</svg>