<?xml version="1.0" encoding="UTF-8"?>
<svg width="30px" height="30px" viewBox="0 0 30 30" version="1.1" xmlns="http://www.w3.org/2000/svg" xmlns:xlink="http://www.w3.org/1999/xlink">
    <!-- Generator: Sketch 52.5 (67469) - http://www.bohemiancoding.com/sketch -->
    <title>Atoms/Icons/iconA-wash-bronze</title>
    <desc>Created with Sketch.</desc>
    <g id="Atoms/Icons/iconA-wash-bronze" stroke="none" stroke-width="1" fill="none" fill-rule="evenodd">
        <rect id="Bounding-Box" fill-opacity="0" fill="#FFFFFF" x="0" y="0" width="30" height="30"></rect>
        <path d="M14.6315789,20.1562446 L12.5650081,21.5373983 C12.2266681,21.7635214 11.7690804,21.6725517 11.5429573,21.3342117 C11.5250572,21.3074285 11.5089329,21.2795003 11.494688,21.2506069 L10.3955619,19.0212072 L7.91528219,19.184036 C7.50920965,19.2106944 7.15841191,18.9031184 7.13175352,18.4970459 C7.12964322,18.4649009 7.12964322,18.4326522 7.13175352,18.4005073 L7.29458224,15.9202276 L5.06518262,14.8211015 C4.70018429,14.6411521 4.55017251,14.1993846 4.73012193,13.8343863 C4.74436683,13.8054928 4.76049119,13.7775646 4.77839122,13.7507814 L6.15954489,11.6842105 L4.77839122,9.61763963 C4.5522681,9.27929969 4.64323782,8.82171197 4.98157776,8.59558885 C5.00836094,8.57768882 5.03628915,8.56156445 5.06518262,8.54731956 L7.29458224,7.4481935 L7.13175352,4.96791377 C7.10509512,4.56184123 7.41267107,4.21104349 7.81874361,4.1843851 C7.85088854,4.1822748 7.88313726,4.1822748 7.91528219,4.1843851 L10.3955619,4.34721382 L11.494688,2.1178142 C11.6746374,1.75281587 12.1164049,1.60280408 12.4814032,1.78275351 C12.5102967,1.79699841 12.5382249,1.81312277 12.5650081,1.8310228 L14.6315789,3.21217647 L16.6981498,1.8310228 C17.0364898,1.60489968 17.4940775,1.69586939 17.7202006,2.03420934 C17.7381007,2.06099252 17.754225,2.08892073 17.7684699,2.1178142 L18.867596,4.34721382 L21.3478757,4.1843851 C21.7539482,4.1577267 22.104746,4.46530264 22.1314044,4.87137519 C22.1335147,4.90352012 22.1335147,4.93576884 22.1314044,4.96791377 L21.9685757,7.4481935 L24.1979753,8.54731956 C24.5629736,8.72726898 24.7129854,9.16903643 24.533036,9.53403477 C24.5187911,9.56292824 24.5026667,9.59085645 24.4847667,9.61763963 L23.103613,11.6842105 L24.4847667,13.7507814 C24.7108898,14.0891214 24.6199201,14.5467091 24.2815801,14.7728322 C24.254797,14.7907322 24.2268687,14.8068566 24.1979753,14.8211015 L21.9685757,15.9202276 L22.1314044,18.4005073 C22.1580628,18.8065798 21.8504868,19.1573776 21.4444143,19.184036 C21.4122694,19.1861463 21.3800206,19.1861463 21.3478757,19.184036 L18.867596,19.0212072 L17.7684699,21.2506069 C17.5885205,21.6156052 17.146753,21.765617 16.7817547,21.5856675 C16.7528612,21.5714226 16.724933,21.5552983 16.6981498,21.5373983 L14.6315789,20.1562446 Z" id="Combined-Shape" fill="#3883F2" opacity="0.7"></path>
        <path d="M6.06884625,16.2718204 L6.14330335,16.3085289 L6.02886444,18.0517135 C6.02358871,18.1320758 6.02358871,18.2126976 6.02886444,18.2930599 C6.09551042,19.3082413 6.97250477,20.0771812 7.98768613,20.0105352 L9.73087075,19.8960963 L10.5033561,21.4629579 C10.5389683,21.5351916 10.5792792,21.6050121 10.6240293,21.67197 C11.0547543,22.3164484 11.8214139,22.6019077 12.5361826,22.451247 L8.2430286,28.5825063 L6.33218087,23.6036097 L1,23.5108831 L6.06884625,16.2718204 Z M17.1814916,22.4893616 C17.8335039,22.4626046 18.4509271,22.0894604 18.7598018,21.4629579 L19.5322871,19.8960963 L21.2754718,20.0105352 C21.3558341,20.0158109 21.4364559,20.0158109 21.5168182,20.0105352 C22.5319996,19.9438892 23.3009394,19.0668948 23.2342935,18.0517135 L23.1198545,16.3085289 L23.5123493,16.1150233 L28.6909861,23.5108831 L23.3588052,23.6036097 L21.4479575,28.5825063 L17.1814916,22.4893616 Z" id="Accent" fill="#3883F2"></path>
    </g>
</svg>