<?xml version="1.0" encoding="UTF-8"?>
<svg width="30px" height="30px" viewBox="0 0 30 30" version="1.1" xmlns="http://www.w3.org/2000/svg" xmlns:xlink="http://www.w3.org/1999/xlink">
    <!-- Generator: Sketch 52.5 (67469) - http://www.bohemiancoding.com/sketch -->
    <title>Atoms/Icons/icon-info</title>
    <desc>Created with Sketch.</desc>
    <g id="Atoms/Icons/icon-info" stroke="none" stroke-width="1" fill="none" fill-rule="evenodd">
        <path d="M15,28 C7.82029825,28 2,22.1797017 2,15 C2,7.82029825 7.82029825,2 15,2 C22.1797017,2 28,7.82029825 28,15 C28,22.1797017 22.1797017,28 15,28 Z M18.1,9.2 C18.1,10.0709677 17.3636364,11 16.3,11 C15.2909091,11 14.5,10.0709677 14.5,9.2 C14.5,8.38709677 15.2909091,7.4 16.3,7.4 C17.3636364,7.4 18.1,8.38709677 18.1,9.2 Z M17.4816632,19.6354342 L17.4857143,19.6379968 C17.6384717,19.7346286 17.6857267,19.935783 17.5919745,20.0903245 C17.5744914,20.1191516 17.5587619,20.1446387 17.5447894,20.1667877 C16.6273987,21.6210303 15.2656733,22.7 13.4142857,22.7 C11.9571429,22.7 11.5,22.0131955 11.5,21.0974563 C11.5,20.8112878 11.5285714,20.5251192 11.6142857,20.2103339 L13.4666667,13.2662452 C13.4888672,13.16989 13.5158594,13.0441032 13.5476434,12.8888848 L13.5476556,12.8888873 C13.6610831,12.3349595 14.1484976,11.9372388 14.7139194,11.9372388 L15.6026845,11.9372388 C16.2601663,11.9372388 16.7931607,12.4702331 16.7931607,13.1277149 C16.7931607,13.2348442 16.7787003,13.3414833 16.7501714,13.444744 L15.3,18.6936407 C15.1857143,19.1228935 15.0714286,19.5521463 15.0714286,20.0672496 C15.0714286,20.4392687 15.3285714,20.7826709 15.6714286,20.7826709 C16.1708445,20.7826709 16.5611408,20.2799226 17.0139802,19.7138169 C17.0139802,19.7138169 17.0139802,19.7138169 17.0139802,19.7138169 L17.0139802,19.7138169 C17.1271374,19.5723563 17.3285648,19.5386015 17.4816565,19.6354447 Z" id="Shape" fill="#203641"></path>
    </g>
</svg>