<?xml version="1.0" encoding="UTF-8"?>
<svg width="30px" height="30px" viewBox="0 0 30 30" version="1.1" xmlns="http://www.w3.org/2000/svg" xmlns:xlink="http://www.w3.org/1999/xlink">
    <!-- Generator: Sketch 52.5 (67469) - http://www.bohemiancoding.com/sketch -->
    <title>Atoms/Icons/icon-dial</title>
    <desc>Created with Sketch.</desc>
    <g id="Atoms/Icons/icon-dial" stroke="none" stroke-width="1" fill="none" fill-rule="evenodd">
        <path d="" id="Path-3" stroke="#979797"></path>
        <path d="M15,28 C7.82029825,28 2,22.1797017 2,15 C2,7.82029825 7.82029825,2 15,2 C22.1797017,2 28,7.82029825 28,15 C28,22.1797017 22.1797017,28 15,28 Z M24.75,15 C24.75,9.61522369 20.3847763,5.25 15,5.25 C9.61522369,5.25 5.25,9.61522369 5.25,15 C5.25,15.5983085 5.73502485,16.0833333 6.33333333,16.0833333 C6.93164181,16.0833333 7.41666667,15.5983085 7.41666667,15 C7.41666667,10.8118406 10.8118406,7.41666667 15,7.41666667 C19.1881594,7.41666667 22.5833333,10.8118406 22.5833333,15 C22.5833333,15.5983085 23.0683582,16.0833333 23.6666667,16.0833333 C24.2649751,16.0833333 24.75,15.5983085 24.75,15 Z M13.3991402,18.6709655 C12.4144159,19.2293893 11.75,20.2871033 11.75,21.5 C11.75,23.2949254 13.2050746,24.75 15,24.75 C16.7949254,24.75 18.25,23.2949254 18.25,21.5 C18.25,20.2871033 17.5855841,19.2293893 16.6008598,18.6709655 L15.3186887,12.2601103 C15.2929577,12.1314554 15.1923927,12.0308903 15.0637377,12.0051593 C14.8877308,11.969958 14.7165127,12.0841034 14.6813113,12.2601103 L13.3991402,18.6709655 Z" id="Shape" fill="#203641"></path>
    </g>
</svg>