<?xml version="1.0" encoding="UTF-8"?>
<svg width="30px" height="30px" viewBox="0 0 30 30" version="1.1" xmlns="http://www.w3.org/2000/svg" xmlns:xlink="http://www.w3.org/1999/xlink">
    <!-- Generator: Sketch 52.5 (67469) - http://www.bohemiancoding.com/sketch -->
    <title>Atoms/Icons/iconA-detail-interior</title>
    <desc>Created with Sketch.</desc>
    <g id="Atoms/Icons/iconA-detail-interior" stroke="none" stroke-width="1" fill="none" fill-rule="evenodd">
        <rect id="Bounding-Box" fill-opacity="0" fill="#FFFFFF" x="0" y="0" width="30" height="30"></rect>
        <path d="M11.9875768,12.2022883 C11.9661635,12.1681492 11.9438911,12.1344743 11.92077,12.1012969 C11.7174533,11.8095486 11.5232728,11.5516754 11.3371386,11.3273381 C12.0386811,10.8896747 12.7156358,10.5769953 13.3680028,10.3892998 C15.6256282,9.73974819 19.6734063,9.89246306 21.4145268,10.9270807 C23.1556474,11.9616983 23.9125573,13.1336676 24.4455963,13.2760755 C24.9786352,13.4184834 27.531895,13.9179837 27.9069987,14.6506737 C28.1570678,15.1391337 28.3374294,16.2658372 28.4480836,18.0307843 C28.7049386,18.0307843 28.9131607,18.2390064 28.9131607,18.4958614 C28.9131607,18.5214499 28.9110489,18.5469948 28.9068468,18.5722359 C28.826575,19.0543528 28.7271238,19.4399192 28.6084841,19.7289336 C28.54737,19.8778117 27.3440352,19.9873663 24.9984796,20.0575974 C24.9994907,20.0255786 25,19.9934333 25,19.961169 C25,18.3043147 23.6568542,16.961169 22,16.961169 C20.3431458,16.961169 19,18.3043147 19,19.961169 C19,20.0227509 19.0018555,20.0838994 19.0055136,20.1445617 C16.9867589,20.154752 14.6497957,20.1539873 11.9946238,20.1422675 C11.998191,20.0823578 12,20.0219746 12,19.961169 C12,19.6249987 11.9447066,19.3017428 11.8427184,19 L15.0336545,19 C16.1249931,19 17.0148478,18.1251191 17.0333666,17.0339376 L17.0912449,13.6235628 L17.8307182,10.8875116 C15.1317887,10.6499076 13.4745404,11.2882498 12.3804854,11.9283966 C12.247139,12.0064195 12.1161695,12.0977167 11.9875768,12.2022883 Z M6.46731802,18.3525051 C6.17141775,18.8173995 6,19.3692658 6,19.961169 C6,20.0083777 6.00109043,20.0553317 6.00324748,20.1020072 C5.54201757,20.0979961 5.07373034,20.0937421 4.59838579,20.0892451 L3.00104353,19.8677458 C2.42723313,19.7881769 2,19.2976125 2,18.7183116 L2,18.1319111 C2,17.89762 2.1899305,17.7076895 2.42422165,17.7076895 C2.55595934,16.6720948 2.96521783,15.8926019 3.65199714,15.3692108 C4.01574434,15.0920009 4.63642912,14.8040514 5.51405149,14.5053623 L5.56227041,17.0041092 C5.57385747,17.6045608 5.9392257,18.1245737 6.46731802,18.3525051 Z M18.0464526,13.7892945 L21.7573875,13.7892945 C21.8921826,13.7892945 22.0230504,13.7439007 22.1288927,13.6604314 C22.3890648,13.4552547 22.4336473,13.078015 22.2284706,12.817843 L22.2285128,12.8178097 C21.4789216,11.8672988 20.3355746,11.2636364 18.798472,11.0068226 L18.0464526,13.7892945 Z M6.44778253,11.0615986 C6.44673347,11.0072356 6.45455899,10.9530655 6.47095083,10.9012221 C6.55419705,10.6379344 6.83512334,10.4919773 7.09842209,10.5752186 C7.98218364,10.8546461 9.57602505,11.0944751 9.85684223,11.277028 C10.1752231,11.4840003 10.5977338,11.9518316 11.1003415,12.673046 C11.27619,12.9253789 11.3702209,13.2256688 11.3696946,13.5332306 L11.3632282,17.317906 C11.363194,17.3378663 11.3619645,17.3578079 11.3595462,17.3776226 C11.3260923,17.651731 11.0767638,17.8468201 10.8026553,17.8133662 L7.00141759,17.471486 C6.75420707,17.4413149 6.56688926,17.233814 6.56208427,16.9848155 L6.44778253,11.0615986 Z" id="Shape" fill-opacity="0.7" fill="#2CB9D9"></path>
        <path d="M9,21.961169 C7.8954305,21.961169 7,21.0657385 7,19.961169 C7,18.8565995 7.8954305,17.961169 9,17.961169 C10.1045695,17.961169 11,18.8565995 11,19.961169 C11,21.0657385 10.1045695,21.961169 9,21.961169 Z M22,21.961169 C20.8954305,21.961169 20,21.0657385 20,19.961169 C20,18.8565995 20.8954305,17.961169 22,17.961169 C23.1045695,17.961169 24,18.8565995 24,19.961169 C24,21.0657385 23.1045695,21.961169 22,21.961169 Z" id="Accent" fill="#2CB9D9"></path>
    </g>
</svg>