<?xml version="1.0" encoding="UTF-8"?>
<svg width="30px" height="30px" viewBox="0 0 30 30" version="1.1" xmlns="http://www.w3.org/2000/svg" xmlns:xlink="http://www.w3.org/1999/xlink">
    <!-- Generator: Sketch 52.5 (67469) - http://www.bohemiancoding.com/sketch -->
    <title>Atoms/Icons/icon-car-large</title>
    <desc>Created with Sketch.</desc>
    <g id="Atoms/Icons/icon-car-large" stroke="none" stroke-width="1" fill="none" fill-rule="evenodd">
        <path d="M4.0074757,19.7306022 L2.52445307,19.6688258 C2.18201578,19.5390719 2.00839778,19.1408564 2.00359905,18.4741793 C1.99935149,17.8840751 1.99886362,17.1581441 2.00213546,16.2963863 C2.0028527,16.1071128 2.15649138,15.9540563 2.34576625,15.9540563 L2.7496616,14.0507872 C2.91265746,13.2827046 3.51001175,12.6810539 4.27690654,12.5125576 L9.24706851,11.4205519 C10.2585328,9.20510411 11.3712475,7.90723146 12.5852125,7.52693396 C13.7991776,7.14663645 16.9562517,6.9721895 22.056435,7.00359309 L24.3648367,7.00362698 C24.6061695,7.00362698 24.8240113,7.14822564 24.917723,7.37062082 C26.1932559,10.397696 26.9280182,12.1175234 27.1220099,12.5301029 C27.3237098,12.959076 27.4691852,14.4433211 27.5584363,16.9828384 C27.8018219,16.9828384 27.9993097,17.1797916 27.9999694,17.4231764 C28.0016289,18.0385052 27.9497304,18.4860388 27.8442656,18.7657774 C27.6505117,19.2796972 27.8257617,19.6697861 26.8580038,19.6688258 C26.6929239,19.668662 26.3883864,19.6762114 25.9949921,19.6888475 C25.9983166,19.6263197 26,19.5633564 26,19.5 C26,17.5670034 24.4329966,16 22.5,16 C20.5670034,16 19,17.5670034 19,19.5 C19,19.6462653 19.008972,19.7904351 19.0263957,19.931989 L10.9736043,19.931989 C10.991028,19.7904351 11,19.6462653 11,19.5 C11,17.5670034 9.43299662,16 7.5,16 C5.56700338,16 4,17.5670034 4,19.5 C4,19.5774812 4.00251768,19.6543744 4.0074757,19.7306022 Z M10.8717666,10.4505178 C11.5225407,10.4365343 11.9004162,10.4612649 12.005393,10.5247096 C12.1103698,10.5881542 12.1108091,10.9002483 12.006711,11.4609917 L14.8683979,11.3497267 C14.9170446,11.3478353 14.9572603,11.311186 14.9636482,11.2629234 L15.3798264,8.1185317 C15.3806084,8.11262287 15.380859,8.10665581 15.3805751,8.10070221 C15.3779525,8.04570564 15.331243,8.00324813 15.2762464,8.00587071 L15.2762318,8.00556431 C13.8129899,8.07534078 12.9533363,8.17348601 12.697271,8.3 C12.0900634,8.60000263 11.481562,9.31684188 10.8717666,10.4505178 Z M16.4295999,8.08760223 L16.0428565,11.1829952 C16.0360094,11.2377976 16.0748848,11.2877744 16.1296872,11.2946215 C16.1348955,11.2952723 16.1401471,11.2955119 16.1453931,11.2953383 L20.3941667,11.1547075 C20.449365,11.1528805 20.4926309,11.1066524 20.4908039,11.0514542 C20.4904593,11.0410447 20.4884907,11.0307529 20.4849692,11.0209511 L19.4234114,8.06618887 C19.4091457,8.02648152 19.371493,8 19.3293008,8 L16.5288284,8 C16.4783939,8 16.4358527,8.03755681 16.4295999,8.08760223 Z M20.2362244,8.0661166 L21.3493172,11.0625279 C21.3638722,11.1017095 21.4012606,11.1277054 21.4430583,11.1277054 L25.444846,11.1277054 C25.5000744,11.1277054 25.544846,11.0829338 25.544846,11.0277054 C25.544846,11.0145567 25.5422529,11.0015372 25.5372152,10.9893919 L24.3455194,8.11635371 C24.2990508,8.00432335 24.189697,7.9312941 24.0684116,7.9312941 L20.3299655,7.9312941 C20.274737,7.9312941 20.2299655,7.97606563 20.2299655,8.0312941 C20.2299655,8.04318134 20.2320849,8.05497337 20.2362244,8.0661166 Z M7.5,22 C6.11928813,22 5,20.8807119 5,19.5 C5,18.1192881 6.11928813,17 7.5,17 C8.88071187,17 10,18.1192881 10,19.5 C10,20.8807119 8.88071187,22 7.5,22 Z M22.5,22 C21.1192881,22 20,20.8807119 20,19.5 C20,18.1192881 21.1192881,17 22.5,17 C23.8807119,17 25,18.1192881 25,19.5 C25,20.8807119 23.8807119,22 22.5,22 Z" id="Shape" fill="#203641"></path>
    </g>
</svg>