<?xml version="1.0" encoding="UTF-8"?>
<svg width="30px" height="30px" viewBox="0 0 30 30" version="1.1" xmlns="http://www.w3.org/2000/svg" xmlns:xlink="http://www.w3.org/1999/xlink">
    <!-- Generator: Sketch 52.5 (67469) - http://www.bohemiancoding.com/sketch -->
    <title>Atoms/Icons/icon-eye-closed</title>
    <desc>Created with Sketch.</desc>
    <g id="Atoms/Icons/icon-eye-closed" stroke="none" stroke-width="1" fill="none" fill-rule="evenodd">
        <path d="M13.9804408,19.1757904 C12.83461,19.0612071 11.8248467,18.6458439 10.9511511,17.9296996 C10.0774555,17.2135552 9.45441013,16.325537 9.08201496,15.2656434 C8.7096198,14.2057499 8.66665115,13.1172111 8.95310902,12.0000262 L13.9804408,19.1757904 Z M14.6249705,20.5937557 L14.9687197,20.5937557 L16.3437164,22.5703135 C15.7708013,22.6276048 15.1978856,22.6562508 14.6249705,22.6562508 C12.0754976,22.6562508 9.72654467,22.0260438 7.5781123,20.7656303 C5.4583259,19.5338622 3.78254865,17.8724083 2.55078053,15.7812672 C2.35025996,15.466164 2.25,15.1224148 2.25,14.7500197 C2.25,14.3776245 2.35025996,14.0338753 2.55078053,13.7187721 C3.63931939,11.8567976 5.1002534,10.324249 6.93358258,9.12112684 L8.09373607,10.7969041 C6.51821877,11.8281516 5.25780533,13.145857 4.31249508,14.7500197 C5.37238861,16.5260569 6.8118383,17.9440223 8.63084416,19.0039158 C10.44985,20.0638093 12.4478921,20.5937557 14.6249705,20.5937557 Z M26.6991605,15.7812672 C25.9830161,17.0130353 25.1021588,18.1015742 24.0565886,19.0468844 C23.0110184,19.9921947 21.8437033,20.7656303 20.5546439,21.3671914 L22.6171389,24.3320281 C22.7030762,24.4466114 22.7317222,24.5683556 22.7030762,24.6972616 C22.6744303,24.8261675 22.6028163,24.9335891 22.488233,25.0195264 L21.5858914,25.6640561 C21.4713081,25.7499934 21.3424022,25.7786394 21.1991736,25.7499934 C21.055945,25.7213475 20.9556844,25.6497335 20.898393,25.5351502 L6.63280205,5.16801126 C6.54686476,5.05342799 6.51821877,4.9316837 6.54686476,4.80277776 C6.57551074,4.67387182 6.64712471,4.5664502 6.76170799,4.4805129 L7.66404959,3.83598319 C7.77863287,3.7500459 7.90753881,3.72139991 8.05076742,3.7500459 C8.19399603,3.77869188 8.29425664,3.85030585 8.35154795,3.96488913 L10.7577922,7.35941229 C12.0182057,7.01566311 13.3072651,6.84378852 14.6249705,6.84378852 C17.1744434,6.84378852 19.5233963,7.47399557 21.6718287,8.73440901 C23.7916151,9.96617713 25.4673923,11.6276311 26.6991605,13.7187721 C26.899681,14.0338753 26.999941,14.3776245 26.999941,14.7500197 C26.999941,15.1224148 26.899681,15.466164 26.6991605,15.7812672 Z M24.9374459,14.7500197 C23.9634897,13.1172111 22.6601076,11.785183 21.027299,10.7539354 C19.3944904,9.72268791 17.6041298,9.12112684 15.656218,8.94925225 C15.1978856,9.40758471 14.9687197,9.96617713 14.9687197,10.6250295 C14.9687197,11.2838819 15.2050472,11.849636 15.6777024,12.3222911 C16.1503575,12.7949462 16.7161116,13.0312738 17.3749639,13.0312738 C18.0338163,13.0312738 18.5995704,12.7949462 19.0722255,12.3222911 C19.5448806,11.849636 19.7812082,11.2838819 19.7812082,10.6250295 C20.4400606,11.8567976 20.6262585,13.1745024 20.3398006,14.5781451 C20.0533428,15.9817878 19.3371991,17.1276179 18.1913682,18.0156369 L19.3515217,19.6484455 C20.5259979,19.1328217 21.5930531,18.459646 22.552686,17.6289191 C23.5123189,16.7981921 24.3072389,15.8385585 24.9374459,14.7500197 Z" id="Shape" fill="#203641"></path>
    </g>
</svg>