<?xml version="1.0" encoding="UTF-8"?>
<svg width="30px" height="30px" viewBox="0 0 30 30" version="1.1" xmlns="http://www.w3.org/2000/svg" xmlns:xlink="http://www.w3.org/1999/xlink">
    <!-- Generator: Sketch 52.5 (67469) - http://www.bohemiancoding.com/sketch -->
    <title>Atoms/Icons/icon-list</title>
    <desc>Created with Sketch.</desc>
    <g id="Atoms/Icons/icon-list" stroke="none" stroke-width="1" fill="none" fill-rule="evenodd">
        <path d="M5.5,6 L7.5,6 C8.05228475,6 8.5,6.44771525 8.5,7 L8.5,9 C8.5,9.55228475 8.05228475,10 7.5,10 L5.5,10 C4.94771525,10 4.5,9.55228475 4.5,9 L4.5,7 C4.5,6.44771525 4.94771525,6 5.5,6 Z M5.5,13 L7.5,13 C8.05228475,13 8.5,13.4477153 8.5,14 L8.5,16 C8.5,16.5522847 8.05228475,17 7.5,17 L5.5,17 C4.94771525,17 4.5,16.5522847 4.5,16 L4.5,14 C4.5,13.4477153 4.94771525,13 5.5,13 Z M5.5,20 L7.5,20 C8.05228475,20 8.5,20.4477153 8.5,21 L8.5,23 C8.5,23.5522847 8.05228475,24 7.5,24 L5.5,24 C4.94771525,24 4.5,23.5522847 4.5,23 L4.5,21 C4.5,20.4477153 4.94771525,20 5.5,20 Z M12.5,6.5 L24.5,6.5 C25.0522847,6.5 25.5,6.94771525 25.5,7.5 L25.5,8.5 C25.5,9.05228475 25.0522847,9.5 24.5,9.5 L12.5,9.5 C11.9477153,9.5 11.5,9.05228475 11.5,8.5 L11.5,7.5 C11.5,6.94771525 11.9477153,6.5 12.5,6.5 Z M12.5,13.5 L24.5,13.5 C25.0522847,13.5 25.5,13.9477153 25.5,14.5 L25.5,15.5 C25.5,16.0522847 25.0522847,16.5 24.5,16.5 L12.5,16.5 C11.9477153,16.5 11.5,16.0522847 11.5,15.5 L11.5,14.5 C11.5,13.9477153 11.9477153,13.5 12.5,13.5 Z M12.5,20.5 L24.5,20.5 C25.0522847,20.5 25.5,20.9477153 25.5,21.5 L25.5,22.5 C25.5,23.0522847 25.0522847,23.5 24.5,23.5 L12.5,23.5 C11.9477153,23.5 11.5,23.0522847 11.5,22.5 L11.5,21.5 C11.5,20.9477153 11.9477153,20.5 12.5,20.5 Z" id="Shape" fill="#203641"></path>
    </g>
</svg>