<?xml version="1.0" encoding="UTF-8"?>
<svg width="30px" height="30px" viewBox="0 0 30 30" version="1.1" xmlns="http://www.w3.org/2000/svg" xmlns:xlink="http://www.w3.org/1999/xlink">
    <!-- Generator: Sketch 52.5 (67469) - http://www.bohemiancoding.com/sketch -->
    <title>Atoms/Icons/icon-oval-check</title>
    <desc>Created with Sketch.</desc>
    <g id="Atoms/Icons/icon-oval-check" stroke="none" stroke-width="1" fill="none" fill-rule="evenodd">
        <path d="M24.2048536,5.79514642 C25.8627172,7.45301003 26.9823932,9.40161814 27.5638828,11.6409708 C28.1453724,13.8803234 28.1453724,16.1196766 27.5638828,18.3590292 C26.9823932,20.5983819 25.8627172,22.54699 24.2048536,24.2048536 C22.54699,25.8627172 20.5983819,26.9823932 18.3590292,27.5638828 C16.1196766,28.1453724 13.8803234,28.1453724 11.6409708,27.5638828 C9.40161814,26.9823932 7.45301003,25.8627172 5.79514642,24.2048536 C4.13728282,22.54699 3.01760679,20.5983819 2.4361172,18.3590292 C1.8546276,16.1196766 1.8546276,13.8803234 2.4361172,11.6409708 C3.01760679,9.40161814 4.13728282,7.45301003 5.79514642,5.79514642 C7.45301003,4.13728282 9.40161814,3.01760679 11.6409708,2.4361172 C13.8803234,1.8546276 16.1196766,1.8546276 18.3590292,2.4361172 C20.5983819,3.01760679 22.54699,4.13728282 24.2048536,5.79514642 Z M12.9519007,16.099622 L10.5776926,13.8255903 C10.1788445,13.4435711 9.54582655,13.4572136 9.16380734,13.8560616 L8.47210037,14.5782399 C8.09008115,14.977088 8.10372362,15.6101059 8.50257167,15.9921252 L12.2601937,19.5911996 C12.646941,19.9616285 13.2568604,19.9616285 13.6436077,19.5911996 L21.4639947,12.1007829 C21.8628428,11.7187636 21.8764853,11.0857457 21.494466,10.6868976 L20.8027591,9.96471933 C20.4207399,9.56587128 19.7877219,9.55222881 19.3888738,9.93424802 L12.9519007,16.099622 Z" id="Shape" fill="#203641"></path>
    </g>
</svg>