<?xml version="1.0" encoding="UTF-8"?>
<svg width="30px" height="30px" viewBox="0 0 30 30" version="1.1" xmlns="http://www.w3.org/2000/svg" xmlns:xlink="http://www.w3.org/1999/xlink">
    <!-- Generator: Sketch 52.5 (67469) - http://www.bohemiancoding.com/sketch -->
    <title>Atoms/Icons/icon-phone</title>
    <desc>Created with Sketch.</desc>
    <g id="Atoms/Icons/icon-phone" stroke="none" stroke-width="1" fill="none" fill-rule="evenodd">
        <path d="M26.9746556,21.6329114 C26.991552,21.7004221 27,21.7679324 27,21.835443 C27,22.0717298 26.945087,22.3417722 26.8352613,22.6455696 C26.7254356,22.9493671 26.5860413,23.194093 26.4170784,23.3797468 L24.0600477,26.1139241 C23.8403959,26.3502108 23.5869518,26.5358651 23.2997152,26.6708861 C22.8773081,26.8902955 22.3704198,27 21.7790502,27 C20.3428664,27 18.5772057,26.5021096 16.4820671,25.5063291 C13.913833,24.308017 11.5736983,22.6455696 9.46166369,20.5189873 C7.11308095,18.1729957 5.33897178,15.5738398 4.13933619,12.721519 C2.95659662,9.93670886 2.69470444,7.91139241 3.35365928,6.64556962 C3.48882937,6.3755273 3.66624029,6.1476792 3.88589203,5.96202532 L6.59774461,3.58227848 C6.78360353,3.43037975 7.02437549,3.29535878 7.32006048,3.17721519 C7.61574547,3.0590716 7.89030985,3 8.14375402,3 C8.21133926,3 8.27892411,3.00843869 8.34650935,3.02531646 C8.53236828,3.04219422 8.7308998,3.09282713 8.94210315,3.17721519 C9.15330649,3.26160325 9.34761381,3.36708861 9.52502473,3.49367089 C9.70243564,3.62025316 9.85027795,3.75105498 9.96855202,3.88607595 L12.6550602,7.30379747 C12.9929856,7.72573853 13.1619485,8.20675118 13.1619485,8.74683544 C13.1619485,8.86497903 13.1535005,8.98312223 13.1366041,9.10126582 C13.1197077,9.21940941 13.0774673,9.35864992 13.009882,9.51898734 C12.9422968,9.67932477 12.8662635,9.82700435 12.7817823,9.96202532 C12.697301,10.0970463 12.6001472,10.2278481 12.4903215,10.3544304 C12.3804958,10.4810127 12.2748939,10.5780589 12.1735163,10.6455696 L11.185084,11.3544304 C11.5061134,12.2827006 12.6043713,13.6835443 14.4798582,15.556962 C16.3046562,17.3797468 17.6985991,18.4767931 18.6616869,18.8481013 L19.3206418,17.8860759 C19.4727083,17.6497892 19.7050322,17.4303797 20.0176132,17.2278481 C20.3301942,17.0253165 20.621655,16.8987342 20.8919956,16.8481013 C21.0102697,16.8312235 21.1369917,16.8227848 21.2721618,16.8227848 C21.8128426,16.8227848 22.2943865,16.9915613 22.7167936,17.3291139 L26.1129454,20.0126582 C26.3325972,20.1814347 26.5269041,20.4261602 26.695867,20.7468354 C26.8648299,21.0675107 26.9577592,21.3628691 26.9746556,21.6329114 Z" id="" fill="#203641"></path>
    </g>
</svg>