<?xml version="1.0" encoding="UTF-8"?>
<svg width="30px" height="30px" viewBox="0 0 30 30" version="1.1" xmlns="http://www.w3.org/2000/svg" xmlns:xlink="http://www.w3.org/1999/xlink">
    <!-- Generator: Sketch 52.5 (67469) - http://www.bohemiancoding.com/sketch -->
    <title>Atoms/Icons/icon-ticket-stack</title>
    <desc>Created with Sketch.</desc>
    <g id="Atoms/Icons/icon-ticket-stack" stroke="none" stroke-width="1" fill="none" fill-rule="evenodd">
        <path d="M17.7254723,11.1092815 C17.719463,11.1371693 17.716299,11.1661149 17.716299,11.1957996 L17.716299,11.9895673 C17.716299,12.2153336 17.8993187,12.3983533 18.1250851,12.3983533 C18.3508514,12.3983533 18.5338711,12.2153336 18.5338711,11.9895673 L18.5338711,11.1957996 C18.5338711,11.1661149 18.5307071,11.1371693 18.5246978,11.1092815 L22.288647,11.1092815 C22.5060516,11.1092815 22.6822929,11.2790277 22.6822929,11.4884203 C22.6822929,12.116598 23.2110166,12.6258366 23.8632304,12.6258366 C24.080635,12.6258366 24.2568763,12.7955828 24.2568763,13.0049754 L24.2568763,16.0380856 C24.2568763,16.2474782 24.080635,16.4172244 23.8632304,16.4172244 C23.2110166,16.4172244 22.6822929,16.926463 22.6822929,17.5546407 C22.6822929,18.1828184 23.2110166,18.6920571 23.8632304,18.6920571 C24.080635,18.6920571 24.2568763,18.8618033 24.2568763,19.0711959 L24.2568763,22.1043061 C24.2568763,22.3136987 24.080635,22.4834449 23.8632304,22.4834449 C23.2110166,22.4834449 22.6822929,22.9926835 22.6822929,23.6208612 C22.6822929,23.8302538 22.5060516,24 22.288647,24 L18.5338711,24 L18.5338711,23.2808482 C18.5338711,23.0550819 18.3508514,22.8720621 18.1250851,22.8720621 C17.8993187,22.8720621 17.716299,23.0550819 17.716299,23.2808482 L17.716299,24 L4.96822929,24 C4.75082468,24 4.57458343,23.8302538 4.57458343,23.6208612 C4.57458343,22.9926835 4.04585967,22.4834449 3.39364586,22.4834449 C3.17624125,22.4834449 3,22.3136987 3,22.1043061 L3,19.0711959 C3,18.8618033 3.17624125,18.6920571 3.39364586,18.6920571 C4.04585967,18.6920571 4.57458343,18.1828184 4.57458343,17.5546407 C4.57458343,16.926463 4.04585967,16.4172244 3.39364586,16.4172244 C3.17624125,16.4172244 3,16.2474782 3,16.0380856 L3,13.0049754 C3,12.7955828 3.17624125,12.6258366 3.39364586,12.6258366 C4.04585967,12.6258366 4.57458343,12.116598 4.57458343,11.4884203 C4.57458343,11.2790277 4.75082468,11.1092815 4.96822929,11.1092815 L17.7254723,11.1092815 Z M18.1250851,13.2040232 C17.8993187,13.2040232 17.716299,13.387043 17.716299,13.6128093 L17.716299,14.406577 C17.716299,14.6323433 17.8993187,14.8153631 18.1250851,14.8153631 C18.3508514,14.8153631 18.5338711,14.6323433 18.5338711,14.406577 L18.5338711,13.6128093 C18.5338711,13.387043 18.3508514,13.2040232 18.1250851,13.2040232 Z M18.1250851,15.621033 C17.8993187,15.621033 17.716299,15.8040527 17.716299,16.029819 L17.716299,16.8235867 C17.716299,17.049353 17.8993187,17.2323728 18.1250851,17.2323728 C18.3508514,17.2323728 18.5338711,17.049353 18.5338711,16.8235867 L18.5338711,16.029819 C18.5338711,15.8040527 18.3508514,15.621033 18.1250851,15.621033 Z M18.1250851,18.0380427 C17.8993187,18.0380427 17.716299,18.2210625 17.716299,18.4468288 L17.716299,19.2405964 C17.716299,19.4663627 17.8993187,19.6493825 18.1250851,19.6493825 C18.3508514,19.6493825 18.5338711,19.4663627 18.5338711,19.2405964 L18.5338711,18.4468288 C18.5338711,18.2210625 18.3508514,18.0380427 18.1250851,18.0380427 Z M18.1250851,20.4550524 C17.8993187,20.4550524 17.716299,20.6380722 17.716299,20.8638385 L17.716299,21.6576061 C17.716299,21.8833725 17.8993187,22.0663922 18.1250851,22.0663922 C18.3508514,22.0663922 18.5338711,21.8833725 18.5338711,21.6576061 L18.5338711,20.8638385 C18.5338711,20.6380722 18.3508514,20.4550524 18.1250851,20.4550524 Z M25.4832346,14.9230595 L25.4832346,13.0049754 C25.4832346,12.1364502 24.7756779,11.4406354 23.90709,11.4179051 C23.869381,10.568111 23.1533679,9.90077663 22.288647,9.90077663 L19.5688873,9.90077663 C19.5637028,9.85966837 19.5521303,9.81865574 19.533679,9.77908686 L19.1982183,9.05968906 C19.1028053,8.85507528 18.8595856,8.76655054 18.6549718,8.86196351 C18.4503581,8.95737648 18.3618333,9.20059621 18.4572463,9.40520998 L18.6883328,9.90077663 L5.75151642,9.90077663 L16.3860511,4.94181167 C16.3923908,4.96962622 16.4017561,4.99719708 16.4143014,5.02410052 L16.7497621,5.74349832 C16.8451751,5.94811209 17.0883948,6.03663684 17.2930086,5.94122387 C17.4976223,5.8458109 17.5861471,5.60259117 17.4907341,5.39797739 L17.1552734,4.67857959 C17.1427281,4.65167615 17.1276276,4.62677966 17.1103954,4.60404435 L20.5216919,3.0133307 C20.7187274,2.92145154 20.950194,3.00081108 21.0386872,3.1905852 C21.3041665,3.75990754 21.9985665,3.99798616 22.589673,3.7223487 C22.7867085,3.63046954 23.0181752,3.70982908 23.1066683,3.8996032 L24.3885161,6.64853463 C24.4770092,6.83830874 24.3890182,7.06663383 24.1919827,7.15851298 C23.6008763,7.43415045 23.3369033,8.11912571 23.6023827,8.68844805 C23.8678621,9.25777039 24.5622621,9.49584902 25.1533686,9.22021155 C25.350404,9.1283324 25.5818707,9.20769194 25.6703638,9.39746605 L26.9522116,12.1463975 C27.0407047,12.3361716 26.9527138,12.5644967 26.7556783,12.6563758 C26.1645718,12.9320133 25.9005989,13.6169886 26.1660783,14.1863109 C26.2545714,14.376085 26.1665804,14.6044101 25.9695449,14.6962893 L25.4832346,14.9230595 Z M17.6334994,6.67140878 C17.4288856,6.76682175 17.3403609,7.01004148 17.4357738,7.21465525 L17.7712345,7.93405305 C17.8666475,8.13866683 18.1098672,8.22719157 18.314481,8.1317786 C18.5190948,8.03636563 18.6076195,7.7931459 18.5122066,7.58853213 L18.1767459,6.86913432 C18.0813329,6.66452055 17.8381132,6.57599581 17.6334994,6.67140878 Z" id="Combined-Shape" fill="#203641"></path>
    </g>
</svg>