<?xml version="1.0" encoding="UTF-8"?>
<svg width="30px" height="30px" viewBox="0 0 30 30" version="1.1" xmlns="http://www.w3.org/2000/svg" xmlns:xlink="http://www.w3.org/1999/xlink">
    <!-- Generator: Sketch 52.5 (67469) - http://www.bohemiancoding.com/sketch -->
    <title>Atoms/Icons/icon-oval-clear-hollow</title>
    <desc>Created with Sketch.</desc>
    <g id="Atoms/Icons/icon-oval-clear-hollow" stroke="none" stroke-width="1" fill="none" fill-rule="evenodd">
        <path d="M24.2048536,5.79514642 C25.8627172,7.45301003 26.9823932,9.40161814 27.5638828,11.6409708 C28.1453724,13.8803234 28.1453724,16.1196766 27.5638828,18.3590292 C26.9823932,20.5983819 25.8627172,22.54699 24.2048536,24.2048536 C22.54699,25.8627172 20.5983819,26.9823932 18.3590292,27.5638828 C16.1196766,28.1453724 13.8803234,28.1453724 11.6409708,27.5638828 C9.40161814,26.9823932 7.45301003,25.8627172 5.79514642,24.2048536 C4.13728282,22.54699 3.01760679,20.5983819 2.4361172,18.3590292 C1.8546276,16.1196766 1.8546276,13.8803234 2.4361172,11.6409708 C3.01760679,9.40161814 4.13728282,7.45301003 5.79514642,5.79514642 C7.45301003,4.13728282 9.40161814,3.01760679 11.6409708,2.4361172 C13.8803234,1.8546276 16.1196766,1.8546276 18.3590292,2.4361172 C20.5983819,3.01760679 22.54699,4.13728282 24.2048536,5.79514642 Z M7.57673099,22.423269 C8.91291941,23.7594574 10.4841778,24.6626216 12.2905068,25.1327622 C14.0968358,25.6029028 15.9031642,25.6029028 17.7094932,25.1327622 C19.5158222,24.6626216 21.0870806,23.7594574 22.423269,22.423269 C23.7594574,21.0870806 24.6626216,19.5158222 25.1327622,17.7094932 C25.6029028,15.9031642 25.6029028,14.0968358 25.1327622,12.2905068 C24.6626216,10.4841778 23.7594574,8.91291941 22.423269,7.57673099 C21.0870806,6.24054257 19.5158222,5.33737836 17.7094932,4.8672378 C15.9031642,4.39709724 14.0968358,4.39709724 12.2905068,4.8672378 C10.4841778,5.33737836 8.91291941,6.24054257 7.57673099,7.57673099 C6.24054257,8.91291941 5.33737836,10.4841778 4.8672378,12.2905068 C4.39709724,14.0968358 4.39709724,15.9031642 4.8672378,17.7094932 C5.33737836,19.5158222 6.24054257,21.0870806 7.57673099,22.423269 Z M15,17.0996175 L11.7455928,20.3540247 C11.605618,20.4590056 11.4481467,20.5114961 11.2731789,20.5114961 C11.098211,20.5114961 10.9582362,20.4590056 10.8532554,20.3540247 L9.64597527,19.1467446 C9.54099439,19.0417638 9.48850395,18.901789 9.48850395,18.7268211 C9.48850395,18.5518533 9.54099439,18.394382 9.64597527,18.2544072 L12.9003825,15 L9.64597527,11.7455928 C9.54099439,11.605618 9.48850395,11.4481467 9.48850395,11.2731789 C9.48850395,11.098211 9.54099439,10.9582362 9.64597527,10.8532554 L10.8532554,9.64597527 C10.9582362,9.54099439 11.098211,9.48850395 11.2731789,9.48850395 C11.4481467,9.48850395 11.605618,9.54099439 11.7455928,9.64597527 L15,12.9003825 L18.2544072,9.64597527 C18.394382,9.54099439 18.5518533,9.48850395 18.7268211,9.48850395 C18.901789,9.48850395 19.0417638,9.54099439 19.1467446,9.64597527 L20.3540247,10.8532554 C20.4590056,10.9582362 20.5114961,11.098211 20.5114961,11.2731789 C20.5114961,11.4481467 20.4590056,11.605618 20.3540247,11.7455928 L17.0996175,15 L20.3540247,18.2544072 C20.4590056,18.394382 20.5114961,18.5518533 20.5114961,18.7268211 C20.5114961,18.901789 20.4590056,19.0417638 20.3540247,19.1467446 L19.1467446,20.3540247 C19.0417638,20.4590056 18.901789,20.5114961 18.7268211,20.5114961 C18.5518533,20.5114961 18.394382,20.4590056 18.2544072,20.3540247 L15,17.0996175 Z" id="Shape" fill="#203641"></path>
    </g>
</svg>