<?xml version="1.0" encoding="UTF-8"?>
<svg width="30px" height="30px" viewBox="0 0 30 30" version="1.1" xmlns="http://www.w3.org/2000/svg" xmlns:xlink="http://www.w3.org/1999/xlink">
    <!-- Generator: Sketch 52.5 (67469) - http://www.bohemiancoding.com/sketch -->
    <title>Atoms/Icons/icon-filter</title>
    <desc>Created with Sketch.</desc>
    <g id="Atoms/Icons/icon-filter" stroke="none" stroke-width="1" fill="none" fill-rule="evenodd">
        <path d="M11,22 L11,21 C11,20.4477153 11.4477153,20 12,20 L14,20 C14.5522847,20 15,20.4477153 15,21 L15,22 L26,22 C26.5522847,22 27,22.4477153 27,23 L27,24 C27,24.5522847 26.5522847,25 26,25 L15,25 L15,26 C15,26.5522847 14.5522847,27 14,27 L12,27 C11.4477153,27 11,26.5522847 11,26 L11,25 L4,25 C3.44771525,25 3,24.5522847 3,24 L3,23 C3,22.4477153 3.44771525,22 4,22 L11,22 Z M19,13 L19,12 C19,11.4477153 19.4477153,11 20,11 L22,11 C22.5522847,11 23,11.4477153 23,12 L23,13 L26,13 C26.5522847,13 27,13.4477153 27,14 L27,15 C27,15.5522847 26.5522847,16 26,16 L23,16 L23,17 C23,17.5522847 22.5522847,18 22,18 L20,18 C19.4477153,18 19,17.5522847 19,17 L19,16 L4,16 C3.44771525,16 3,15.5522847 3,15 L3,14 C3,13.4477153 3.44771525,13 4,13 L19,13 Z M7,5 L7,4 C7,3.44771525 7.44771525,3 8,3 L10,3 C10.5522847,3 11,3.44771525 11,4 L11,5 L26,5 C26.5522847,5 27,5.44771525 27,6 L27,7 C27,7.55228475 26.5522847,8 26,8 L11,8 C11,8.55228475 10.5522847,9 10,9 L8,9 C7.44771525,9 7,8.55228475 7,8 L4,8 C3.44771525,8 3,7.55228475 3,7 L3,6 C3,5.44771525 3.44771525,5 4,5 L7,5 Z" id="Shape" fill="#203641"></path>
    </g>
</svg>