<?xml version="1.0" encoding="UTF-8"?>
<svg width="30px" height="30px" viewBox="0 0 30 30" version="1.1" xmlns="http://www.w3.org/2000/svg" xmlns:xlink="http://www.w3.org/1999/xlink">
    <!-- Generator: Sketch 52.5 (67469) - http://www.bohemiancoding.com/sketch -->
    <title>Atoms/Icons/icon-clock</title>
    <desc>Created with Sketch.</desc>
    <g id="Atoms/Icons/icon-clock" stroke="none" stroke-width="1" fill="none" fill-rule="evenodd">
        <path d="M15,2 C17.3413981,2 19.5080645,2.58534973 21.5,3.75604839 C23.4919355,4.92674705 25.073253,6.50806452 26.2439516,8.5 C27.4146503,10.4919355 28,12.6586019 28,15 C28,17.3413981 27.4146503,19.5080645 26.2439516,21.5 C25.073253,23.4919355 23.4919355,25.073253 21.5,26.2439516 C19.5080645,27.4146503 17.3413981,28 15,28 C12.6586019,28 10.4919355,27.4146503 8.5,26.2439516 C6.50806452,25.073253 4.92674705,23.4919355 3.75604839,21.5 C2.58534973,19.5080645 2,17.3413981 2,15 C2,12.6586019 2.58534973,10.4919355 3.75604839,8.5 C4.92674705,6.50806452 6.50806452,4.92674705 8.5,3.75604839 C10.4919355,2.58534973 12.6586019,2 15,2 Z M13.7943548,16.7822581 C13.6196239,16.6424729 13.5322581,16.4677419 13.5322581,16.2580645 L13.5322581,7.66129032 C13.5322581,7.48655941 13.5934142,7.33803737 13.7157258,7.21572581 C13.8380374,7.09341425 13.9865594,7.03225806 14.1612903,7.03225806 L15.8387097,7.03225806 C16.0134406,7.03225806 16.1619626,7.09341425 16.2842742,7.21572581 C16.4065858,7.33803737 16.4677419,7.48655941 16.4677419,7.66129032 L16.4677419,15.1048387 L19.9798387,17.6209677 C20.1196239,17.7258065 20.198253,17.8655917 20.2157258,18.0403226 C20.2331987,18.2150535 20.1895161,18.3723116 20.0846774,18.5120968 L19.141129,19.875 C19.0362903,20.0147852 18.8965051,20.1021503 18.7217742,20.1370968 C18.5470433,20.1720433 18.3897852,20.1370968 18.25,20.0322581 L13.7943548,16.7822581 Z" id="Shape" fill="#203641"></path>
    </g>
</svg>