<?xml version="1.0" encoding="UTF-8"?>
<svg width="30px" height="30px" viewBox="0 0 30 30" version="1.1" xmlns="http://www.w3.org/2000/svg" xmlns:xlink="http://www.w3.org/1999/xlink">
    <!-- Generator: Sketch 52.5 (67469) - http://www.bohemiancoding.com/sketch -->
    <title>Atoms/Icons/icon-wash</title>
    <desc>Created with Sketch.</desc>
    <g id="Atoms/Icons/icon-wash" stroke="none" stroke-width="1" fill="none" fill-rule="evenodd">
        <path d="M2.82024348,8.99352542 L4.6798087,8.99352542 L4.6798087,8.14533898 C4.6798087,8.06501695 4.74664348,8 4.82893913,8 L5.64093913,8 C5.72335652,8 5.79006957,8.06513559 5.79006957,8.14533898 L5.79006957,8.99352542 L6.29954783,8.99352542 L6.29954783,8.14533898 C6.29954783,8.06501695 6.36638261,8 6.44867826,8 L7.26067826,8 C7.34309565,8 7.4098087,8.06513559 7.4098087,8.14533898 L7.4098087,8.99352542 L7.91928696,8.99352542 L7.91928696,8.14533898 C7.91928696,8.06501695 7.98612174,8 8.06841739,8 L8.88041739,8 C8.96283478,8 9.02954783,8.06513559 9.02954783,8.14533898 L9.02954783,8.99352542 L9.53902609,8.99352542 L9.53902609,8.14533898 C9.53902609,8.06501695 9.60586087,8 9.68815652,8 L10.5001565,8 C10.5825739,8 10.649287,8.06513559 10.649287,8.14533898 L10.649287,8.99352542 L11.1587652,8.99352542 L11.1587652,8.14533898 C11.1587652,8.06501695 11.2256,8 11.3078957,8 L12.1198957,8 C12.202313,8 12.2690261,8.06513559 12.2690261,8.14533898 L12.2690261,8.99352542 L12.7783826,8.99352542 L12.7783826,8.14533898 C12.7783826,8.06501695 12.8452174,8 12.927513,8 L13.739513,8 C13.8219304,8 13.8886435,8.06513559 13.8886435,8.14533898 L13.8886435,8.99352542 L14.3981217,8.99352542 L14.3981217,8.14533898 C14.3981217,8.06501695 14.4649565,8 14.5472522,8 L15.3592522,8 C15.4416696,8 15.5083826,8.06513559 15.5083826,8.14533898 L15.5083826,8.99352542 L16.0178609,8.99352542 L16.0178609,8.14533898 C16.0178609,8.06501695 16.0846957,8 16.1669913,8 L16.9789913,8 C17.0614087,8 17.1281217,8.06513559 17.1281217,8.14533898 L17.1281217,8.99352542 L17.6376,8.99352542 L17.6376,8.14533898 C17.6376,8.06501695 17.7044348,8 17.7867304,8 L18.5987304,8 C18.6811478,8 18.7478609,8.06513559 18.7478609,8.14533898 L18.7478609,8.99352542 L19.2573391,8.99352542 L19.2573391,8.14533898 C19.2573391,8.06501695 19.3241739,8 19.4064696,8 L20.2184696,8 C20.300887,8 20.3676,8.06513559 20.3676,8.14533898 L20.3676,8.99352542 L20.8770783,8.99352542 L20.8770783,8.14533898 C20.8770783,8.06501695 20.943913,8 21.0262087,8 L21.8382087,8 C21.9206261,8 21.9873391,8.06513559 21.9873391,8.14533898 L21.9873391,8.99352542 L22.4968174,8.99352542 L22.4968174,8.14533898 C22.4968174,8.06501695 22.5636522,8 22.6459478,8 L23.4579478,8 C23.5403652,8 23.6070783,8.06513559 23.6070783,8.14533898 L23.6070783,8.99352542 L24.1165565,8.99352542 L24.1165565,8.14533898 C24.1165565,8.06501695 24.1833913,8 24.265687,8 L25.077687,8 C25.1601043,8 25.2268174,8.06513559 25.2268174,8.14533898 L25.2268174,8.99352542 L26.9930087,8.99352542 L27.3388696,8.99352542 C27.5901391,8.99352542 27.7939304,9.19213559 27.7939304,9.43701695 L27.7939304,11.2195254 L28.6641217,11.2195254 C28.7464174,11.2195254 28.8132522,11.2845424 28.8132522,11.3648644 L28.8132522,12.1562203 C28.8132522,12.2364237 28.7465391,12.3015593 28.6641217,12.3015593 L27.7939304,12.3015593 L27.7939304,12.7980847 L28.6641217,12.7980847 C28.7464174,12.7980847 28.8132522,12.8631017 28.8132522,12.9434237 L28.8132522,13.7347797 C28.8132522,13.8149831 28.7465391,13.8801186 28.6641217,13.8801186 L27.7939304,13.8801186 L27.7939304,14.3766441 L28.6641217,14.3766441 C28.7464174,14.3766441 28.8132522,14.441661 28.8132522,14.5219831 L28.8132522,15.313339 C28.8132522,15.3935424 28.7465391,15.458678 28.6641217,15.458678 L27.7939304,15.458678 L27.7939304,15.9552034 L28.6641217,15.9552034 C28.7464174,15.9552034 28.8132522,16.0202203 28.8132522,16.1005424 L28.8132522,16.8918983 C28.8132522,16.9721017 28.7465391,17.0372373 28.6641217,17.0372373 L27.7939304,17.0372373 L27.7939304,17.5337627 L28.6641217,17.5337627 C28.7464174,17.5337627 28.8132522,17.5987797 28.8132522,17.6791017 L28.8132522,18.4704576 C28.8132522,18.550661 28.7465391,18.6157966 28.6641217,18.6157966 L27.7939304,18.6157966 L27.7939304,19.112322 L28.6641217,19.112322 C28.7464174,19.112322 28.8132522,19.177339 28.8132522,19.257661 L28.8132522,20.0490169 C28.8132522,20.1292203 28.7465391,20.1943559 28.6641217,20.1943559 L27.7939304,20.1943559 L27.7939304,21.9059153 L26.9930087,21.9059153 L26.9930087,20.1943559 L26.1228174,20.1943559 C26.0404,20.1943559 25.973687,20.1292203 25.973687,20.0490169 L25.973687,19.257661 C25.973687,19.1774576 26.0404,19.112322 26.1228174,19.112322 L26.9930087,19.112322 L26.9930087,18.6157966 L26.1228174,18.6157966 C26.0404,18.6157966 25.973687,18.550661 25.973687,18.4704576 L25.973687,17.6791017 C25.973687,17.5988983 26.0404,17.5337627 26.1228174,17.5337627 L26.9930087,17.5337627 L26.9930087,17.0372373 L26.1228174,17.0372373 C26.0404,17.0372373 25.973687,16.9721017 25.973687,16.8918983 L25.973687,16.1005424 C25.973687,16.020339 26.0404,15.9552034 26.1228174,15.9552034 L26.9930087,15.9552034 L26.9930087,15.458678 L26.1228174,15.458678 C26.0404,15.458678 25.973687,15.3935424 25.973687,15.313339 L25.973687,14.5219831 C25.973687,14.4417797 26.0404,14.3766441 26.1228174,14.3766441 L26.9930087,14.3766441 L26.9930087,13.8801186 L26.1228174,13.8801186 C26.0404,13.8801186 25.973687,13.8149831 25.973687,13.7347797 L25.973687,12.9434237 C25.973687,12.8632203 26.0404,12.7980847 26.1228174,12.7980847 L26.9930087,12.7980847 L26.9930087,12.3015593 L26.1228174,12.3015593 C26.0404,12.3015593 25.973687,12.2364237 25.973687,12.1562203 L25.973687,11.3648644 C25.973687,11.284661 26.0404,11.2195254 26.1228174,11.2195254 L26.9930087,11.2195254 L26.9930087,9.77408475 L25.2268174,9.77408475 L25.2268174,10.6220339 C25.2268174,10.7023559 25.1599826,10.7673729 25.077687,10.7673729 L24.265687,10.7673729 C24.1833913,10.7674915 24.1165565,10.7023559 24.1165565,10.6220339 L24.1165565,9.77408475 L23.6070783,9.77408475 L23.6070783,10.6220339 C23.6070783,10.7023559 23.5402435,10.7673729 23.4579478,10.7673729 L22.6459478,10.7673729 C22.5636522,10.7674915 22.4968174,10.7023559 22.4968174,10.6220339 L22.4968174,9.77408475 L21.9873391,9.77408475 L21.9873391,10.6220339 C21.9873391,10.7023559 21.9205043,10.7673729 21.8382087,10.7673729 L21.0262087,10.7673729 C20.943913,10.7674915 20.8770783,10.7023559 20.8770783,10.6220339 L20.8770783,9.77408475 L20.3676,9.77408475 L20.3676,10.6220339 C20.3676,10.7023559 20.3007652,10.7673729 20.2184696,10.7673729 L19.4064696,10.7673729 C19.3241739,10.7674915 19.2573391,10.7023559 19.2573391,10.6220339 L19.2573391,9.77408475 L18.7478609,9.77408475 L18.7478609,10.6220339 C18.7478609,10.7023559 18.6810261,10.7673729 18.5987304,10.7673729 L17.7867304,10.7673729 C17.7044348,10.7674915 17.6376,10.7023559 17.6376,10.6220339 L17.6376,9.77408475 L17.1281217,9.77408475 L17.1281217,10.6220339 C17.1281217,10.7023559 17.061287,10.7673729 16.9789913,10.7673729 L16.1669913,10.7673729 C16.0846957,10.7674915 16.0178609,10.7023559 16.0178609,10.6220339 L16.0178609,9.77408475 L15.5083826,9.77408475 L15.5083826,10.6220339 C15.5083826,10.7023559 15.4415478,10.7673729 15.3592522,10.7673729 L14.5472522,10.7673729 C14.4649565,10.7674915 14.3981217,10.7023559 14.3981217,10.6220339 L14.3981217,9.77408475 L13.8886435,9.77408475 L13.8886435,10.6220339 C13.8886435,10.7023559 13.8218087,10.7673729 13.739513,10.7673729 L12.927513,10.7673729 C12.8452174,10.7674915 12.7783826,10.7023559 12.7783826,10.6220339 L12.7783826,9.77408475 L12.2690261,9.77408475 L12.2690261,10.6220339 C12.2690261,10.7023559 12.2021913,10.7673729 12.1198957,10.7673729 L11.3078957,10.7673729 C11.2254783,10.7674915 11.1587652,10.7023559 11.1587652,10.6220339 L11.1587652,9.77408475 L10.649287,9.77408475 L10.649287,10.6220339 C10.649287,10.7023559 10.5824522,10.7673729 10.5001565,10.7673729 L9.68815652,10.7673729 C9.60573913,10.7674915 9.53902609,10.7023559 9.53902609,10.6220339 L9.53902609,9.77408475 L9.02954783,9.77408475 L9.02954783,10.6220339 C9.02954783,10.7023559 8.96271304,10.7673729 8.88041739,10.7673729 L8.06841739,10.7673729 C7.986,10.7674915 7.91928696,10.7023559 7.91928696,10.6220339 L7.91928696,9.77408475 L7.4098087,9.77408475 L7.4098087,10.6220339 C7.4098087,10.7023559 7.34297391,10.7673729 7.26067826,10.7673729 L6.44867826,10.7673729 C6.36626087,10.7674915 6.29954783,10.7023559 6.29954783,10.6220339 L6.29954783,9.77408475 L5.79006957,9.77408475 L5.79006957,10.6220339 C5.79006957,10.7023559 5.72323478,10.7673729 5.64093913,10.7673729 L4.82893913,10.7673729 C4.74652174,10.7674915 4.6798087,10.7023559 4.6798087,10.6220339 L4.6798087,9.77408475 L2.82024348,9.77408475 L2.82024348,11.2195254 L3.69043478,11.2195254 C3.77285217,11.2195254 3.83956522,11.284661 3.83956522,11.3648644 L3.83956522,12.1562203 C3.83956522,12.2364237 3.77273043,12.3015593 3.69043478,12.3015593 L2.82024348,12.3015593 L2.82024348,12.7980847 L3.69043478,12.7980847 C3.77285217,12.7980847 3.83956522,12.8632203 3.83956522,12.9434237 L3.83956522,13.7347797 C3.83956522,13.8149831 3.77273043,13.8801186 3.69043478,13.8801186 L2.82024348,13.8801186 L2.82024348,14.3766441 L3.69043478,14.3766441 C3.77285217,14.3766441 3.83956522,14.4417797 3.83956522,14.5219831 L3.83956522,15.313339 C3.83956522,15.3935424 3.77273043,15.458678 3.69043478,15.458678 L2.82024348,15.458678 L2.82024348,15.9552034 L3.69043478,15.9552034 C3.77285217,15.9552034 3.83956522,16.020339 3.83956522,16.1005424 L3.83956522,16.8918983 C3.83956522,16.9721017 3.77273043,17.0372373 3.69043478,17.0372373 L2.82024348,17.0372373 L2.82024348,17.5337627 L3.69043478,17.5337627 C3.77285217,17.5337627 3.83956522,17.5988983 3.83956522,17.6791017 L3.83956522,18.4704576 C3.83956522,18.550661 3.77273043,18.6157966 3.69043478,18.6157966 L2.82024348,18.6157966 L2.82024348,19.112322 L3.69043478,19.112322 C3.77285217,19.112322 3.83956522,19.1774576 3.83956522,19.257661 L3.83956522,20.0490169 C3.83956522,20.1292203 3.77273043,20.1943559 3.69043478,20.1943559 L2.82024348,20.1943559 L2.82024348,21.9059153 L2.01932174,21.9059153 L2.01932174,20.1943559 L1.14913043,20.1943559 C1.06671304,20.1943559 1,20.1292203 1,20.0490169 L1,19.257661 C1,19.177339 1.06683478,19.112322 1.14913043,19.112322 L2.01932174,19.112322 L2.01932174,18.6157966 L1.14913043,18.6157966 C1.06671304,18.6157966 1,18.550661 1,18.4704576 L1,17.6791017 C1,17.5987797 1.06683478,17.5337627 1.14913043,17.5337627 L2.01932174,17.5337627 L2.01932174,17.0372373 L1.14913043,17.0372373 C1.06671304,17.0372373 1,16.9721017 1,16.8918983 L1,16.1005424 C1,16.0202203 1.06683478,15.9552034 1.14913043,15.9552034 L2.01932174,15.9552034 L2.01932174,15.458678 L1.14913043,15.458678 C1.06671304,15.458678 1,15.3935424 1,15.313339 L1,14.5219831 C1,14.441661 1.06683478,14.3766441 1.14913043,14.3766441 L2.01932174,14.3766441 L2.01932174,13.8801186 L1.14913043,13.8801186 C1.06671304,13.8801186 1,13.8149831 1,13.7347797 L1,12.9434237 C1,12.8631017 1.06683478,12.7980847 1.14913043,12.7980847 L2.01932174,12.7980847 L2.01932174,12.3015593 L1.14913043,12.3015593 C1.06671304,12.3015593 1,12.2364237 1,12.1562203 L1,11.3648644 C1,11.2845424 1.06683478,11.2195254 1.14913043,11.2195254 L2.01932174,11.2195254 L2.01932174,9.43701695 C2.01932174,9.19213559 2.22311304,8.99352542 2.47438261,8.99352542 L2.82024348,8.99352542 Z M25.3193391,18.6152034 C25.3193391,18.6152034 25.5042609,20.5313051 24.555913,20.6213559 L23.5151652,20.7118814 C23.5151652,20.7118814 23.7468348,18.4120847 21.9426609,18.3220339 C21.9426609,18.3220339 19.9069391,17.8938475 19.6525043,20.6440169 L9.38344348,20.6440169 C9.38344348,20.6440169 9.33584348,18.3674746 7.53166957,18.4125593 C7.53166957,18.4125593 5.63521739,18.0972034 5.49692174,20.3063559 C5.49692174,20.3063559 4.47906087,20.4642712 4.47906087,18.5030847 C4.47906087,18.5030847 4.61735652,18.1649492 4.8717913,18.1649492 C4.8717913,18.1649492 5.08057391,18.1193898 5.01093913,17.8942034 C5.01093913,17.8942034 4.82601739,16.4066441 5.35789565,15.9107119 L7.13918261,13.7465254 C7.13918261,13.7465254 7.46325217,13.2281695 8.45725217,13.2050339 C8.45725217,13.2050339 14.7346087,13.1403729 16.4837565,13.5881356 L16.7189565,13.6447288 L16.968887,13.7281356 L17.206887,13.8213898 L17.4137217,13.9195085 L20.9468348,16.0229492 C20.9468348,16.0229492 24.1165565,16.6090508 24.8799826,17.9608814 C24.8799826,17.9608814 25.2506783,18.321678 25.3193391,18.6152034 Z M7.44036522,15.9773898 L12.2513739,16.113 L12.0883652,13.8810678 C12.0883652,13.8810678 12.1121043,13.678661 11.7661217,13.6558814 C11.418313,13.6332203 9.15201739,13.678661 9.15201739,13.678661 C9.15201739,13.678661 8.4809913,13.610322 8.04078261,14.3097288 C8.04078261,14.3097288 7.30121739,15.234322 7.44036522,15.9773898 Z M18.6347652,16.2579831 C18.6347652,16.2579831 19.0704696,16.3011695 18.681513,15.5939322 C18.681513,15.5939322 17.6407652,13.678661 13.2682609,13.7009661 C13.2682609,13.7009661 12.9451652,13.6332203 12.9213043,13.9935424 L13.4074087,16.113 L18.6347652,16.2579831 Z M21.6369739,18.8854746 C22.4929217,18.8854746 23.186713,19.5611525 23.1865913,20.3961695 C23.1865913,21.2297627 22.4928,21.9059153 21.6369739,21.9059153 C20.7821217,21.9059153 20.0873565,21.2297627 20.0873565,20.3961695 C20.0873565,19.5611525 20.7821217,18.8854746 21.6369739,18.8854746 Z M21.6369739,21.1620169 C22.0718261,21.1620169 22.4242609,20.8190169 22.4241391,20.3961695 C22.4241391,19.9724915 22.0717043,19.6294915 21.6369739,19.6294915 C21.2032174,19.6294915 20.8507826,19.9723729 20.8507826,20.3961695 C20.8507826,20.8190169 21.2030957,21.1620169 21.6369739,21.1620169 Z M7.48613913,18.8854746 C8.34281739,18.8854746 9.0366087,19.5611525 9.03673043,20.3961695 C9.03673043,21.2297627 8.34281739,21.9059153 7.48613913,21.9059153 C6.63031304,21.9059153 5.93652174,21.2297627 5.93652174,20.3961695 C5.93652174,19.5611525 6.63031304,18.8854746 7.48613913,18.8854746 Z M7.48613913,21.1620169 C7.92086957,21.1620169 8.27233043,20.8190169 8.27233043,20.3961695 C8.27233043,19.9724915 7.92086957,19.6294915 7.48613913,19.6294915 C7.05238261,19.6294915 6.69994783,19.9723729 6.69994783,20.3961695 C6.69994783,20.8190169 7.05226087,21.1620169 7.48613913,21.1620169 Z" id="Combined-Shape" fill="#203641"></path>
    </g>
</svg>