<?xml version="1.0" encoding="UTF-8"?>
<svg width="30px" height="30px" viewBox="0 0 30 30" version="1.1" xmlns="http://www.w3.org/2000/svg" xmlns:xlink="http://www.w3.org/1999/xlink">
    <!-- Generator: Sketch 52.5 (67469) - http://www.bohemiancoding.com/sketch -->
    <title>Atoms/Icons/icon-oval-plus</title>
    <desc>Created with Sketch.</desc>
    <g id="Atoms/Icons/icon-oval-plus" stroke="none" stroke-width="1" fill="none" fill-rule="evenodd">
        <path d="M24.2048536,5.79514642 C25.8627172,7.45301003 26.9823932,9.40161814 27.5638828,11.6409708 C28.1453724,13.8803234 28.1453724,16.1196766 27.5638828,18.3590292 C26.9823932,20.5983819 25.8627172,22.54699 24.2048536,24.2048536 C22.54699,25.8627172 20.5983819,26.9823932 18.3590292,27.5638828 C16.1196766,28.1453724 13.8803234,28.1453724 11.6409708,27.5638828 C9.40161814,26.9823932 7.45301003,25.8627172 5.79514642,24.2048536 C4.13728282,22.54699 3.01760679,20.5983819 2.4361172,18.3590292 C1.8546276,16.1196766 1.8546276,13.8803234 2.4361172,11.6409708 C3.01760679,9.40161814 4.13728282,7.45301003 5.79514642,5.79514642 C7.45301003,4.13728282 9.40161814,3.01760679 11.6409708,2.4361172 C13.8803234,1.8546276 16.1196766,1.8546276 18.3590292,2.4361172 C20.5983819,3.01760679 22.54699,4.13728282 24.2048536,5.79514642 Z M16.4846538,16.4846538 L16.4846538,21.0870806 C16.4599094,21.2602904 16.3856767,21.4087558 16.2619557,21.5324767 C16.1382348,21.6561977 16.0021413,21.7180585 15.8536759,21.7180585 L14.1463241,21.7180585 C13.9978587,21.7180585 13.8617652,21.6561977 13.7380443,21.5324767 C13.6143233,21.4087558 13.5400906,21.2602904 13.5153462,21.0870806 L13.5153462,16.4846538 L8.91291941,16.4846538 C8.73970961,16.4599094 8.59124423,16.3856767 8.46752327,16.2619557 C8.34380231,16.1382348 8.28194154,16.0021413 8.28194154,15.8536759 L8.28194154,14.1463241 C8.28194154,13.9978587 8.34380231,13.8617652 8.46752327,13.7380443 C8.59124423,13.6143233 8.73970961,13.5400906 8.91291941,13.5153462 L13.5153462,13.5153462 L13.5153462,8.91291941 C13.5400906,8.73970961 13.6143233,8.59124423 13.7380443,8.46752327 C13.8617652,8.34380231 13.9978587,8.28194154 14.1463241,8.28194154 L15.8536759,8.28194154 C16.0021413,8.28194154 16.1382348,8.34380231 16.2619557,8.46752327 C16.3856767,8.59124423 16.4599094,8.73970961 16.4846538,8.91291941 L16.4846538,13.5153462 L21.0870806,13.5153462 C21.2602904,13.5400906 21.4087558,13.6143233 21.5324767,13.7380443 C21.6561977,13.8617652 21.7180585,13.9978587 21.7180585,14.1463241 L21.7180585,15.8536759 C21.7180585,16.0021413 21.6561977,16.1382348 21.5324767,16.2619557 C21.4087558,16.3856767 21.2602904,16.4599094 21.0870806,16.4846538 L16.4846538,16.4846538 Z" id="Shape" fill="#203641"></path>
    </g>
</svg>