<?xml version="1.0" encoding="UTF-8"?>
<svg width="30px" height="30px" viewBox="0 0 30 30" version="1.1" xmlns="http://www.w3.org/2000/svg" xmlns:xlink="http://www.w3.org/1999/xlink">
    <!-- Generator: Sketch 52.5 (67469) - http://www.bohemiancoding.com/sketch -->
    <title>Atoms/Icons/icon-wash-silver</title>
    <desc>Created with Sketch.</desc>
    <g id="Atoms/Icons/icon-wash-silver" stroke="none" stroke-width="1" fill="none" fill-rule="evenodd">
        <rect id="Bounding-Box" fill-opacity="0" fill="#FFFFFF" x="0" y="0" width="30" height="30"></rect>
        <path d="M2.91446895,7.2643829 C2.63890592,6.39878876 2.56474075,5.55393764 2.69073077,4.72653968 C3.96656098,4.8928865 4.75022853,5.49914246 5.0881215,6.56052637 C5.43016289,7.63494124 5.32696346,8.53003209 4.78353491,9.27553206 C3.80605673,8.79435632 3.18869994,8.12579284 2.91446895,7.2643829 Z M8.39200018,9.12251073 C7.71949022,9.47889888 7.04008528,9.68596652 6.34969306,9.74616675 C6.37606171,8.7250784 6.78842678,8.03717089 7.59768354,7.60831551 C8.42593481,7.16939422 9.15805859,7.08252925 9.83533997,7.33281354 C9.53895878,8.18147422 9.05912003,8.768979 8.39200018,9.12251073 Z M7.93606121,6.38548287 C7.43455144,6.95902556 6.87317601,7.3958983 6.24898495,7.69985622 C5.90837155,6.73888137 6.04797164,5.94980556 6.65145739,5.25963987 C7.26910788,4.55327493 7.92279181,4.2094871 8.64579055,4.19956327 C8.67217722,5.09679829 8.43355143,5.81653708 7.93606121,6.38548287 Z M7.73061226,22.9964725 C6.85435523,22.7627231 6.10529677,22.370481 5.48,21.8190226 C6.31509513,20.8337991 7.25084441,20.4999411 8.32530307,20.7865626 C9.4129532,21.0767032 10.107453,21.6453967 10.4364738,22.5044246 C9.49997259,23.0688692 8.60263354,23.2290921 7.73061226,22.9964725 Z M12.2734919,19.3836669 C12.2057686,20.1420036 12.0090427,20.8257807 11.6831407,21.4397661 C10.8410722,20.8679797 10.4889029,20.1503569 10.5703969,19.2378216 C10.6538037,18.3038678 10.9800922,17.6403763 11.5592672,17.2045455 C12.1095025,17.9109849 12.3406723,18.6314083 12.2734919,19.3836669 Z M2.17165009,11.5042772 C1.7057902,10.7252839 1.44090079,9.9204069 1.37502093,9.08673028 C2.65611043,8.95675148 3.55793674,9.36726204 4.12917004,10.3224568 C4.70741655,11.2893789 4.81093721,12.1836921 4.45139446,13.0331737 C3.38923785,12.7886628 2.63525806,12.279505 2.17165009,11.5042772 Z M7.93209975,12.0591237 C7.35806449,12.5596141 6.74326622,12.9164282 6.08427672,13.1328881 C5.8771655,12.1335811 6.1221315,11.3700988 6.81288991,10.7678396 C7.51986148,10.1514445 8.21343455,9.89950177 8.93043834,9.98806808 C8.83513768,10.8813984 8.50153416,11.5626446 7.93209975,12.0591237 Z M4.57787723,19.7204767 C3.79275615,19.2669782 3.17126207,18.693233 2.71026576,17.997649 C3.77024644,17.2616957 4.75924725,17.1817514 5.72195582,17.7378273 C6.69648386,18.3007303 7.21980193,19.0309447 7.31556784,19.947046 C6.2663353,20.2497761 5.35920312,20.171783 4.57787723,19.7204767 Z M9.89407339,17.4060418 C9.6330316,18.1217862 9.26676471,18.7319439 8.79387495,19.2410801 C8.12897561,18.4695691 7.97438352,17.6841998 8.28850502,16.8229174 C8.60999944,15.9414194 9.09603783,15.3845102 9.76731886,15.1133969 C10.1158981,15.9393657 10.153023,16.696034 9.89407339,17.4060418 Z M2.78086817,15.6900238 C2.14038774,15.0476815 1.68881182,14.331533 1.42353212,13.5392264 C2.63616241,13.1026972 3.61101599,13.2821147 4.39636746,14.0697492 C5.19136095,14.8670538 5.50783399,15.7090261 5.36381878,16.6197701 C4.27335834,16.6401552 3.41825259,16.3292611 2.78086817,15.6900238 Z M8.50812355,14.8318725 C8.0715528,15.4562478 7.56070541,15.9512048 6.97305458,16.3207952 C6.53063617,15.4021366 6.58415644,14.6025426 7.10949859,13.851208 C7.64717133,13.0822384 8.25983693,12.6698639 8.97747728,12.5819441 C9.10064533,13.4711538 8.94119521,14.2125014 8.50812355,14.8318725 Z M27.085531,7.2643829 C26.8113001,8.12579284 26.1939433,8.79435632 25.2164651,9.27553206 C24.6730365,8.53003209 24.5698371,7.63494124 24.9118785,6.56052637 C25.2497715,5.49914246 26.033439,4.8928865 27.3092692,4.72653968 C27.4352593,5.55393764 27.3610941,6.39878876 27.085531,7.2643829 Z M21.6079998,9.12251073 C20.94088,8.768979 20.4610412,8.18147422 20.16466,7.33281354 C20.8419414,7.08252925 21.5740652,7.16939422 22.4023165,7.60831551 C23.2115732,8.03717089 23.6239383,8.7250784 23.6503069,9.74616675 C22.9599147,9.68596652 22.2805098,9.47889888 21.6079998,9.12251073 Z M22.0639388,6.38548287 C21.5664486,5.81653708 21.3278228,5.09679829 21.3542095,4.19956327 C22.0772082,4.2094871 22.7308921,4.55327493 23.3485426,5.25963987 C23.9520284,5.94980556 24.0916285,6.73888137 23.7510151,7.69985622 C23.126824,7.3958983 22.5654486,6.95902556 22.0639388,6.38548287 Z M22.2693877,22.9964725 C21.3973665,23.2290921 20.5000274,23.0688692 19.5635262,22.5044246 C19.892547,21.6453967 20.5870468,21.0767032 21.6746969,20.7865626 C22.7491556,20.4999411 23.6849049,20.8337991 24.52,21.8190226 C23.8947032,22.370481 23.1456448,22.7627231 22.2693877,22.9964725 Z M17.7265081,19.3836669 C17.6593277,18.6314083 17.8904975,17.9109849 18.4407328,17.2045455 C19.0199078,17.6403763 19.3461963,18.3038678 19.4296031,19.2378216 C19.5110971,20.1503569 19.1589278,20.8679797 18.3168593,21.4397661 C17.9909573,20.8257807 17.7942314,20.1420036 17.7265081,19.3836669 Z M27.8283499,11.5042772 C27.3647419,12.279505 26.6107622,12.7886628 25.5486055,13.0331737 C25.1890628,12.1836921 25.2925835,11.2893789 25.87083,10.3224568 C26.4420633,9.36726204 27.3438896,8.95675148 28.6249791,9.08673028 C28.5590992,9.9204069 28.2942098,10.7252839 27.8283499,11.5042772 Z M22.0679003,12.0591237 C21.4984658,11.5626446 21.1648623,10.8813984 21.0695617,9.98806808 C21.7865654,9.89950177 22.4801385,10.1514445 23.1871101,10.7678396 C23.8778685,11.3700988 24.1228345,12.1335811 23.9157233,13.1328881 C23.2567338,12.9164282 22.6419355,12.5596141 22.0679003,12.0591237 Z M25.4221228,19.7204767 C24.6407969,20.171783 23.7336647,20.2497761 22.6844322,19.947046 C22.7801981,19.0309447 23.3035161,18.3007303 24.2780442,17.7378273 C25.2407527,17.1817514 26.2297536,17.2616957 27.2897342,17.997649 C26.8287379,18.693233 26.2072438,19.2669782 25.4221228,19.7204767 Z M20.1059266,17.4060418 C19.846977,16.696034 19.8841019,15.9393657 20.2326811,15.1133969 C20.9039622,15.3845102 21.3900006,15.9414194 21.711495,16.8229174 C22.0256165,17.6841998 21.8710244,18.4695691 21.206125,19.2410801 C20.7332353,18.7319439 20.3669684,18.1217862 20.1059266,17.4060418 Z M27.2191318,15.6900238 C26.5817474,16.3292611 25.7266417,16.6401552 24.6361812,16.6197701 C24.492166,15.7090261 24.808639,14.8670538 25.6036325,14.0697492 C26.388984,13.2821147 27.3638376,13.1026972 28.5764679,13.5392264 C28.3111882,14.331533 27.8596123,15.0476815 27.2191318,15.6900238 Z M21.4918765,14.8318725 C21.0588048,14.2125014 20.8993547,13.4711538 21.0225227,12.5819441 C21.7401631,12.6698639 22.3528287,13.0822384 22.8905014,13.851208 C23.4158436,14.6025426 23.4693638,15.4021366 23.0269454,16.3207952 C22.4392946,15.9512048 21.9284472,15.4562478 21.4918765,14.8318725 Z M15.0509091,26.8961039 C13.4763955,26.8961039 12.2,25.6169175 12.2,24.038961 C12.2,22.4610046 13.4763955,21.1818182 15.0509091,21.1818182 C16.6254227,21.1818182 17.9018182,22.4610046 17.9018182,24.038961 C17.9018182,25.6169175 16.6254227,26.8961039 15.0509091,26.8961039 Z" id="Combined-Shape" fill="#203641"></path>
    </g>
</svg>