<?xml version="1.0" encoding="UTF-8"?>
<svg width="30px" height="30px" viewBox="0 0 30 30" version="1.1" xmlns="http://www.w3.org/2000/svg" xmlns:xlink="http://www.w3.org/1999/xlink">
    <!-- Generator: Sketch 52.5 (67469) - http://www.bohemiancoding.com/sketch -->
    <title>Atoms/Icons/icon-location</title>
    <desc>Created with Sketch.</desc>
    <g id="Atoms/Icons/icon-location" stroke="none" stroke-width="1" fill="none" fill-rule="evenodd">
        <path d="M16.2910573,26.6015679 C16.2295855,26.6869911 16.1546832,26.7618935 16.06926,26.8233653 C15.6323774,27.1377526 15.0233527,27.0384506 14.7089654,26.601568 L14.7089505,26.6015787 C9.56965015,19.4598448 7,14.4081458 7,11.4464817 C7,6.78161866 10.8055796,3 15.5,3 C20.1944204,3 24,6.78161866 24,11.4464817 C24,14.4081443 21.4303524,19.4598397 16.2910573,26.6015679 Z M15.5,15.3448578 C17.6666556,15.3448578 19.4230769,13.5994954 19.4230769,11.4464817 C19.4230769,9.29346798 17.6666556,7.54810552 15.5,7.54810552 C13.3333444,7.54810552 11.5769231,9.29346798 11.5769231,11.4464817 C11.5769231,13.5994954 13.3333444,15.3448578 15.5,15.3448578 Z" id="Shape" fill="#203641"></path>
    </g>
</svg>