<?xml version="1.0" encoding="UTF-8"?>
<svg width="30px" height="30px" viewBox="0 0 30 30" version="1.1" xmlns="http://www.w3.org/2000/svg" xmlns:xlink="http://www.w3.org/1999/xlink">
    <!-- Generator: Sketch 52.5 (67469) - http://www.bohemiancoding.com/sketch -->
    <title>Atoms/Icons/icon-search</title>
    <desc>Created with Sketch.</desc>
    <g id="Atoms/Icons/icon-search" stroke="none" stroke-width="1" fill="none" fill-rule="evenodd">
        <path d="M21.3063573,18.9154302 L26.1829468,23.7920197 C26.5734711,24.1825439 26.5734711,24.8157089 26.1829468,25.2062332 L24.7687332,26.6204468 C24.3782089,27.0109711 23.7450439,27.0109711 23.3545197,26.6204468 L18.3840968,21.6500239 C16.9569002,22.5071462 15.2860062,23 13.5,23 C8.25329488,23 4,18.7467051 4,13.5 C4,8.25329488 8.25329488,4 13.5,4 C18.7467051,4 23,8.25329488 23,13.5 C23,15.5126659 22.3741135,17.3791482 21.3063573,18.9154302 Z M13.5,19 C16.5375661,19 19,16.5375661 19,13.5 C19,10.4624339 16.5375661,8 13.5,8 C10.4624339,8 8,10.4624339 8,13.5 C8,16.5375661 10.4624339,19 13.5,19 Z" id="Shape" fill="#203641"></path>
    </g>
</svg>