<?xml version="1.0" encoding="UTF-8"?>
<svg width="30px" height="30px" viewBox="0 0 30 30" version="1.1" xmlns="http://www.w3.org/2000/svg" xmlns:xlink="http://www.w3.org/1999/xlink">
    <!-- Generator: Sketch 52.5 (67469) - http://www.bohemiancoding.com/sketch -->
    <title>Atoms/Icons/icon-detail-exterior</title>
    <desc>Created with Sketch.</desc>
    <g id="Atoms/Icons/icon-detail-exterior" stroke="none" stroke-width="1" fill="none" fill-rule="evenodd">
        <rect id="Bounding-Box" fill-opacity="0" fill="#FFFFFF" x="0" y="0" width="30" height="30"></rect>
        <path d="M17.0464526,13.7892945 L17.8307182,10.8875116 C15.1317887,10.6499076 13.4745404,11.2882498 12.3804854,11.9283966 C12.0195092,12.1396088 11.675951,12.4480976 11.3498106,12.8538631 C11.7272313,12.9968788 11.9955379,13.3617534 11.9955379,13.7892945 L16.0357606,13.7892945 L17.0464526,13.7892945 Z M18.0464526,13.7892945 L21.7573875,13.7892945 C21.8921826,13.7892945 22.0230504,13.7439007 22.1288927,13.6604314 C22.3890648,13.4552547 22.4336473,13.078015 22.2284706,12.817843 L22.2285128,12.8178097 C21.4789216,11.8672988 20.3355746,11.2636364 18.798472,11.0068226 L18.0464526,13.7892945 Z M19.0055136,20.1445617 C16.9867589,20.154752 14.6497957,20.1539873 11.9946238,20.1422675 C11.998191,20.0823578 12,20.0219746 12,19.961169 C12,18.3043147 10.6568542,16.961169 9,16.961169 C7.34314575,16.961169 6,18.3043147 6,19.961169 C6,20.0083777 6.00109043,20.0553317 6.00324748,20.1020072 C5.54201757,20.0979961 5.07373034,20.0937421 4.59838579,20.0892451 L3.00104353,19.8677458 C2.42723313,19.7881769 2,19.2976125 2,18.7183116 L2,18.1319111 C2,17.89762 2.1899305,17.7076895 2.42422165,17.7076895 C2.55595934,16.6720948 2.96521783,15.8926019 3.65199714,15.3692108 C4.33877645,14.8458198 5.94148669,14.2841441 8.46012787,13.684184 C10.2269608,11.920629 11.8629191,10.8223343 13.3680028,10.3892998 C15.6256282,9.73974819 19.6734063,9.89246306 21.4145268,10.9270807 C23.1556474,11.9616983 23.9125573,13.1336676 24.4455963,13.2760755 C24.9786352,13.4184834 27.531895,13.9179837 27.9069987,14.6506737 C28.1570678,15.1391337 28.3374294,16.2658372 28.4480836,18.0307843 C28.7049386,18.0307843 28.9131607,18.2390064 28.9131607,18.4958614 C28.9131607,18.5214499 28.9110489,18.5469948 28.9068468,18.5722359 C28.826575,19.0543528 28.7271238,19.4399192 28.6084841,19.7289336 C28.54737,19.8778117 27.3440352,19.9873663 24.9984796,20.0575974 C24.9994907,20.0255786 25,19.9934333 25,19.961169 C25,18.3043147 23.6568542,16.961169 22,16.961169 C20.3431458,16.961169 19,18.3043147 19,19.961169 C19,20.0227509 19.0018555,20.0838994 19.0055136,20.1445617 Z M9,21.961169 C7.8954305,21.961169 7,21.0657385 7,19.961169 C7,18.8565995 7.8954305,17.961169 9,17.961169 C10.1045695,17.961169 11,18.8565995 11,19.961169 C11,21.0657385 10.1045695,21.961169 9,21.961169 Z M22,21.961169 C20.8954305,21.961169 20,21.0657385 20,19.961169 C20,18.8565995 20.8954305,17.961169 22,17.961169 C23.1045695,17.961169 24,18.8565995 24,19.961169 C24,21.0657385 23.1045695,21.961169 22,21.961169 Z M6.5,13 C5.67157288,13 5,12.3284271 5,11.5 C5,10.9477153 5.5,9.78104858 6.5,8 C7.5,9.78104858 8,10.9477153 8,11.5 C8,12.3284271 7.32842712,13 6.5,13 Z M9,10 C8.44771525,10 8,9.59705627 8,9.1 C8,8.76862915 8.33333333,8.06862915 9,7 C9.66666667,8.06862915 10,8.76862915 10,9.1 C10,9.59705627 9.55228475,10 9,10 Z" id="Combined-Shape" fill="#203641"></path>
    </g>
</svg>