<?xml version="1.0" encoding="UTF-8"?>
<svg width="30px" height="30px" viewBox="0 0 30 30" version="1.1" xmlns="http://www.w3.org/2000/svg" xmlns:xlink="http://www.w3.org/1999/xlink">
    <!-- Generator: Sketch 52.5 (67469) - http://www.bohemiancoding.com/sketch -->
    <title>Atoms/Icons/icon-locate</title>
    <desc>Created with Sketch.</desc>
    <g id="Atoms/Icons/icon-locate" stroke="none" stroke-width="1" fill="none" fill-rule="evenodd">
        <path d="M14,24.9506248 C9.27558355,24.4815561 5.51844387,20.7244165 5.04937524,16 L2.5,16 C2.22385763,16 2,15.7761424 2,15.5 L2,14.5 C2,14.2238576 2.22385763,14 2.5,14 L5.04937524,14 C5.51844387,9.27558355 9.27558355,5.51844387 14,5.04937524 L14,2.5 C14,2.22385763 14.2238576,2 14.5,2 L15.5,2 C15.7761424,2 16,2.22385763 16,2.5 L16,5.04937524 C20.7244165,5.51844387 24.4815561,9.27558355 24.9506248,14 L27.5,14 C27.7761424,14 28,14.2238576 28,14.5 L28,15.5 C28,15.7761424 27.7761424,16 27.5,16 L24.9506248,16 C24.4815561,20.7244165 20.7244165,24.4815561 16,24.9506248 L16,27.5 C16,27.7761424 15.7761424,28 15.5,28 L14.5,28 C14.2238576,28 14,27.7761424 14,27.5 L14,24.9506248 Z M15,23 C19.418278,23 23,19.418278 23,15 C23,10.581722 19.418278,7 15,7 C10.581722,7 7,10.581722 7,15 C7,19.418278 10.581722,23 15,23 Z M15,20 C12.2385763,20 10,17.7614237 10,15 C10,12.2385763 12.2385763,10 15,10 C17.7614237,10 20,12.2385763 20,15 C20,17.7614237 17.7614237,20 15,20 Z" id="Shape" fill="#203641"></path>
    </g>
</svg>