<?xml version="1.0" encoding="UTF-8"?>
<svg width="30px" height="30px" viewBox="0 0 30 30" version="1.1" xmlns="http://www.w3.org/2000/svg" xmlns:xlink="http://www.w3.org/1999/xlink">
    <!-- Generator: Sketch 52.5 (67469) - http://www.bohemiancoding.com/sketch -->
    <title>Atoms/Icons/icon-heart</title>
    <desc>Created with Sketch.</desc>
    <g id="Atoms/Icons/icon-heart" stroke="none" stroke-width="1" fill="none" fill-rule="evenodd">
        <path d="M16.4541931,6.91006787 C17.5810928,5.77237531 18.9549553,5.13749854 20.5488588,5.01949741 C22.1484814,4.90107287 23.5581349,5.3223239 24.7459416,6.28055187 C25.7524545,7.10468696 26.4254512,8.09864712 26.7483647,9.24008548 C27.0732549,10.3089206 27.0834601,11.3932031 26.7794565,12.4797533 C26.4794665,13.5519589 25.9643032,14.4676683 25.2353488,15.2177032 L25.2259055,15.227214 L15.6723,24.6373947 C15.3089425,25.1096466 14.6914322,25.1096466 14.3845664,24.7012501 L4.76502585,15.2177032 C4.03607152,14.4676683 3.52090817,13.5519589 3.22091812,12.4797533 C2.91691462,11.3932031 2.92711976,10.3089206 3.2487095,9.25133234 C3.57492342,8.09864712 4.24792016,7.10468696 5.2580065,6.27764759 C6.4422398,5.3223239 7.85189331,4.90107287 9.45151588,5.01949741 C11.0454194,5.13749854 12.4192818,5.77237531 13.5383699,6.90231857 L15.0002037,8.32726297 L16.4541931,6.91006787 Z" id="Shape" fill="#203641"></path>
    </g>
</svg>