<?xml version="1.0" encoding="UTF-8"?>
<svg width="30px" height="30px" viewBox="0 0 30 30" version="1.1" xmlns="http://www.w3.org/2000/svg" xmlns:xlink="http://www.w3.org/1999/xlink">
    <!-- Generator: Sketch 52.5 (67469) - http://www.bohemiancoding.com/sketch -->
    <title>Atoms/Icons/iconA-double-diamond</title>
    <desc>Created with Sketch.</desc>
    <g id="Atoms/Icons/iconA-double-diamond" stroke="none" stroke-width="1" fill="none" fill-rule="evenodd">
        <rect id="Bounding-Box" fill-opacity="0" fill="#FFFFFF" x="0" y="0" width="30" height="30"></rect>
        <path d="M18.7673719,15.0058056 C18.7285916,15.0019658 18.6892603,15 18.6494699,15 L16.9450871,15 C16.5437893,15 16.1698919,15.2035736 15.9521137,15.5406382 L14.1959829,18.258676 C14.0724617,18.449855 14.0067555,18.6726273 14.0067555,18.9002385 C14.0067555,19.1535902 14.0864507,19.388328 14.2221395,19.5807505 C14.0277464,19.9789916 14.0663596,20.4705995 14.3618369,20.83938 L15.7746383,22.6026747 L15.3936267,23.5698489 C15.332156,23.7258886 15.1558289,23.8025519 14.9997892,23.7410811 C14.9214383,23.7102153 14.8594228,23.6481998 14.828557,23.5698489 L10.3086738,12.0964051 C10.247203,11.9403654 10.3238663,11.7640384 10.479906,11.7025676 C10.5153527,11.6886037 10.5531105,11.6814346 10.5912086,11.6814346 L19.6309751,11.6814346 C19.7986863,11.6814346 19.934643,11.8173913 19.934643,11.9851025 C19.934643,12.0232006 19.9274739,12.0609584 19.9135099,12.0964051 L18.7673719,15.0058056 Z M20.6754264,15 L21.9892206,11.8676487 C22.0365364,11.7548383 22.1469229,11.6814346 22.2692542,11.6814346 L25.7512547,11.6814346 C25.9189658,11.6814346 26.0549226,11.8173913 26.0549226,11.9851025 C26.0549226,12.0542561 26.0313193,12.1213384 25.9880162,12.1752556 L23.4869278,15.2893868 C23.275347,15.1057941 23.001482,15 22.7119903,15 L20.6754264,15 Z M23.1565843,5.13859457 L26.1676417,9.78783226 C26.2588092,9.92859989 26.2186003,10.1166205 26.0778327,10.207788 C26.0286654,10.2396309 25.9713375,10.2565736 25.9127594,10.2565736 L22.456683,10.2565736 C22.3446392,10.2565736 22.2416989,10.1948764 22.1888777,10.0960648 L19.7035605,5.44682712 C19.6244959,5.29892235 19.6803019,5.1149273 19.8282066,5.03586266 C19.8722512,5.01231799 19.9214231,5 19.9713658,5 L22.901702,5 C23.0046648,5 23.1006139,5.05217322 23.1565843,5.13859457 Z M13.0344177,5 L17.187766,5 C17.2998098,5 17.4027501,5.06169714 17.4555713,5.16050876 L19.9408885,9.80974645 C20.0199531,9.95765122 19.9641471,10.1416463 19.8162424,10.2207109 C19.7721978,10.2442556 19.7230259,10.2565736 19.6730832,10.2565736 L10.5491005,10.2565736 C10.3813894,10.2565736 10.2454326,10.1206168 10.2454326,9.95290563 C10.2454326,9.90296288 10.2577506,9.85379105 10.2812952,9.80974645 L12.7666124,5.16050876 C12.8194336,5.06169714 12.9223739,5 13.0344177,5 Z M7.3204817,5 L10.2508179,5 C10.4185291,5 10.5544858,5.13595677 10.5544858,5.30366794 C10.5544858,5.35361069 10.5421679,5.40278252 10.5186232,5.44682712 L8.03330599,10.0960648 C7.98048481,10.1948764 7.87754451,10.2565736 7.76550071,10.2565736 L4.30942434,10.2565736 C4.14171317,10.2565736 4.0057564,10.1206168 4.0057564,9.95290563 C4.0057564,9.89432748 4.02269904,9.83699956 4.05454201,9.78783226 L7.06559937,5.13859457 C7.12156976,5.05217322 7.21751892,5 7.3204817,5 Z M4.47092975,11.6814346 L7.95292947,11.6814346 C8.07526083,11.6814346 8.18564731,11.7548383 8.23296308,11.8676487 L12.5956699,22.2692244 C12.6172925,22.3207772 12.5930294,22.3800976 12.5414766,22.4017202 C12.4998421,22.4191829 12.4516762,22.406961 12.4234048,22.37176 L4.23416819,12.1752555 C4.12914956,12.0444957 4.1500169,11.8533596 4.2807767,11.7483409 C4.33469384,11.7050378 4.40177618,11.6814346 4.47092975,11.6814346 Z" id="Shape" fill="#3883F2" opacity="0.7"></path>
        <path d="M26.2079274,16.0833232 L27.9640582,18.8013609 C28.0186668,18.8858809 27.9944188,18.998667 27.9098988,19.0532756 C27.8804343,19.0723126 27.8461006,19.0824393 27.8110212,19.0824393 L25.8000123,19.0824393 C25.7327213,19.0824393 25.6709086,19.0453503 25.6392441,18.9859747 L24.1897394,16.267937 C24.1423886,16.1791471 24.1759815,16.0687834 24.2647714,16.0214325 C24.2911582,16.0073607 24.320603,16 24.3505076,16 L26.0548904,16 C26.1167384,16 26.1743635,16.0313748 26.2079274,16.0833232 Z M20.2879872,16 L22.7119903,16 C22.7792814,16 22.8410941,16.037089 22.8727585,16.0964645 L24.3222633,18.8145023 C24.3696141,18.9032921 24.3360211,19.0136559 24.2472313,19.0610067 C24.2208445,19.0750786 24.1913996,19.0824393 24.1614951,19.0824393 L18.8384824,19.0824393 C18.7378557,19.0824393 18.6562816,19.0008652 18.6562816,18.9002385 C18.6562816,18.870334 18.6636423,18.8408891 18.6777142,18.8145023 L20.1272189,16.0964645 C20.1588834,16.037089 20.2206961,16 20.2879872,16 Z M16.9450871,16 L18.6494699,16 C18.7500966,16 18.8316706,16.0815741 18.8316706,16.1822008 C18.8316706,16.2121053 18.8243099,16.2415501 18.8102381,16.267937 L17.3607333,18.9859747 C17.3290689,19.0453503 17.2672562,19.0824393 17.1999651,19.0824393 L15.1889563,19.0824393 C15.0883296,19.0824393 15.0067555,19.0008652 15.0067555,18.9002385 C15.0067555,18.8651591 15.0168822,18.8308254 15.0359193,18.8013609 L16.79205,16.0833232 C16.825614,16.0313748 16.8832391,16 16.9450871,16 Z M15.2844276,19.9179736 L17.3093231,19.9179736 C17.3827782,19.9179736 17.4490494,19.9620826 17.4774031,20.0298449 L20.0244407,26.1170003 C20.037388,26.1479429 20.0227999,26.1835228 19.9918572,26.1964701 C19.966861,26.2069292 19.9379601,26.1995647 19.9210175,26.1784189 L15.142238,20.2141007 C15.0793182,20.1355715 15.0919721,20.0209045 15.1705013,19.9579847 C15.202825,19.932086 15.2430083,19.9179736 15.2844276,19.9179736 Z M18.8623136,19.9179736 L24.1376639,19.9179736 C24.2382906,19.9179736 24.3198647,19.9995476 24.3198647,20.1001743 C24.3198647,20.1229834 24.3155819,20.1455896 24.307239,20.1668181 L21.6695639,26.8783832 C21.6327575,26.972037 21.5269987,27.0181209 21.433345,26.9813145 C21.3862235,26.9627956 21.3489326,26.9255046 21.3304136,26.8783832 L18.6927384,20.1668181 C18.6559321,20.0731644 18.702016,19.9674056 18.7956698,19.9305992 C18.8168983,19.9222563 18.8395045,19.9179736 18.8623136,19.9179736 Z M22.9755367,26.1170003 L25.5225744,20.0298449 C25.550928,19.9620826 25.6171992,19.9179736 25.6906544,19.9179736 L27.7155502,19.9179736 C27.8161769,19.9179736 27.897751,19.9995476 27.897751,20.1001743 C27.897751,20.1415937 27.8836386,20.181777 27.8577399,20.2141007 L23.07896,26.1784189 C23.0579867,26.2045953 23.0197643,26.2088133 22.9935879,26.18784 C22.9724421,26.1708974 22.9650776,26.1419965 22.9755367,26.1170003 Z" id="Accent" fill="#3883F2"></path>
    </g>
</svg>