<?xml version="1.0" encoding="UTF-8"?>
<svg width="30px" height="30px" viewBox="0 0 30 30" version="1.1" xmlns="http://www.w3.org/2000/svg" xmlns:xlink="http://www.w3.org/1999/xlink">
    <!-- Generator: Sketch 52.5 (67469) - http://www.bohemiancoding.com/sketch -->
    <title>Atoms/Icons/icon-ticket</title>
    <desc>Created with Sketch.</desc>
    <g id="Atoms/Icons/icon-ticket" stroke="none" stroke-width="1" fill="none" fill-rule="evenodd">
        <path d="M19.6234844,7.5 C19.618167,7.52803132 19.6153846,7.55695996 19.6153846,7.58653846 L19.6153846,8.53846154 C19.6153846,8.79336219 19.8220224,9 20.0769231,9 C20.3318237,9 20.5384615,8.79336219 20.5384615,8.53846154 L20.5384615,7.58653846 C20.5384615,7.55695996 20.5356791,7.52803132 20.5303618,7.5 L24.7777778,7.5 C25.0232377,7.5 25.2222222,7.69752143 25.2222222,7.94117647 C25.2222222,8.67214158 25.8191759,9.26470588 26.5555556,9.26470588 C26.8010154,9.26470588 27,9.46222732 27,9.70588235 L27,13.2352941 C27,13.4789492 26.8010154,13.6764706 26.5555556,13.6764706 C25.8191759,13.6764706 25.2222222,14.2690349 25.2222222,15 C25.2222222,15.7309651 25.8191759,16.3235294 26.5555556,16.3235294 C26.8010154,16.3235294 27,16.5210508 27,16.7647059 L27,20.2941176 C27,20.5377727 26.8010154,20.7352941 26.5555556,20.7352941 C25.8191759,20.7352941 25.2222222,21.3278584 25.2222222,22.0588235 C25.2222222,22.3024786 25.0232377,22.5 24.7777778,22.5 L20.5384615,22.5 L20.5384615,21.6490385 C20.5384615,21.3941378 20.3318237,21.1875 20.0769231,21.1875 C19.8220224,21.1875 19.6153846,21.3941378 19.6153846,21.6490385 L19.6153846,22.5 L5.22222222,22.5 C4.97676233,22.5 4.77777778,22.3024786 4.77777778,22.0588235 C4.77777778,21.3278584 4.18082411,20.7352941 3.44444444,20.7352941 C3.19898456,20.7352941 3,20.5377727 3,20.2941176 L3,16.7647059 C3,16.5210508 3.19898456,16.3235294 3.44444444,16.3235294 C4.18082411,16.3235294 4.77777778,15.7309651 4.77777778,15 C4.77777778,14.2690349 4.18082411,13.6764706 3.44444444,13.6764706 C3.19898456,13.6764706 3,13.4789492 3,13.2352941 L3,9.70588235 C3,9.46222732 3.19898456,9.26470588 3.44444444,9.26470588 C4.18082411,9.26470588 4.77777778,8.67214158 4.77777778,7.94117647 C4.77777778,7.69752143 4.97676233,7.5 5.22222222,7.5 L19.6234844,7.5 Z M20.0769231,9.9375 C19.8220224,9.9375 19.6153846,10.1441378 19.6153846,10.3990385 L19.6153846,11.3509615 C19.6153846,11.6058622 19.8220224,11.8125 20.0769231,11.8125 C20.3318237,11.8125 20.5384615,11.6058622 20.5384615,11.3509615 L20.5384615,10.3990385 C20.5384615,10.1441378 20.3318237,9.9375 20.0769231,9.9375 Z M20.0769231,12.75 C19.8220224,12.75 19.6153846,12.9566378 19.6153846,13.2115385 L19.6153846,14.1634615 C19.6153846,14.4183622 19.8220224,14.625 20.0769231,14.625 C20.3318237,14.625 20.5384615,14.4183622 20.5384615,14.1634615 L20.5384615,13.2115385 C20.5384615,12.9566378 20.3318237,12.75 20.0769231,12.75 Z M20.0769231,15.5625 C19.8220224,15.5625 19.6153846,15.7691378 19.6153846,16.0240385 L19.6153846,16.9759615 C19.6153846,17.2308622 19.8220224,17.4375 20.0769231,17.4375 C20.3318237,17.4375 20.5384615,17.2308622 20.5384615,16.9759615 L20.5384615,16.0240385 C20.5384615,15.7691378 20.3318237,15.5625 20.0769231,15.5625 Z M20.0769231,18.375 C19.8220224,18.375 19.6153846,18.5816378 19.6153846,18.8365385 L19.6153846,19.7884615 C19.6153846,20.0433622 19.8220224,20.25 20.0769231,20.25 C20.3318237,20.25 20.5384615,20.0433622 20.5384615,19.7884615 L20.5384615,18.8365385 C20.5384615,18.5816378 20.3318237,18.375 20.0769231,18.375 Z" id="Shape" fill="#203641"></path>
    </g>
</svg>