<?xml version="1.0" encoding="UTF-8"?>
<svg width="30px" height="30px" viewBox="0 0 30 30" version="1.1" xmlns="http://www.w3.org/2000/svg" xmlns:xlink="http://www.w3.org/1999/xlink">
    <!-- Generator: Sketch 52.5 (67469) - http://www.bohemiancoding.com/sketch -->
    <title>Atoms/Icons/icon-heart-hollow</title>
    <desc>Created with Sketch.</desc>
    <g id="Atoms/Icons/icon-heart-hollow" stroke="none" stroke-width="1" fill="none" fill-rule="evenodd">
        <path d="M24.1614776,14.170335 C24.7096978,13.6063434 25.1007878,12.9124524 25.334931,12.0755927 C25.5622026,11.2632927 25.5546317,10.4705923 25.3050109,9.64841096 C25.0679582,8.81047419 24.5708116,8.07583598 23.8041228,7.44801807 C22.9191427,6.73408651 21.887387,6.42450744 20.6596049,6.51540359 C19.4275702,6.60661457 18.3926362,7.08456239 17.5198962,7.96566103 L17.5011749,7.98423226 L15.0001656,10.4219515 L13.9531829,9.40138935 L12.4726027,7.95784704 C11.6069772,7.08382495 10.5717749,6.60653834 9.34076976,6.51540359 C8.11344835,6.42454155 7.08154694,6.73382695 6.20827959,7.43824272 C5.42895065,8.07634234 4.93219691,8.81113974 4.68382798,9.68772085 C4.44544949,10.4716585 4.43846566,11.2643419 4.66544371,12.0755927 C4.89958686,12.9124524 5.29067684,13.6063434 5.81810856,14.1495194 L14.9962175,23.1978753 L24.1614776,14.170335 Z M20.4381127,3.52359123 C22.4141645,3.37729859 24.200515,3.91329443 25.6962297,5.11996896 C26.9349073,6.13420108 27.7832038,7.38773703 28.1835278,8.8038438 C28.5917227,10.1467375 28.6048631,11.522593 28.2239821,12.8839139 C27.857211,14.1948042 27.2166526,15.3313143 26.2997767,16.2745823 L26.2785137,16.2958655 L16.7823312,25.6494853 C15.8505179,26.744866 14.1947482,26.8017343 13.2713332,25.7101309 L3.68935691,16.2631392 C2.78372209,15.3313143 2.14316364,14.1948042 1.77639253,12.8839139 C1.39599588,11.5243241 1.40811836,10.1483916 1.80539461,8.84286921 C2.21690243,7.38879582 3.06456445,6.13493542 4.31620052,5.11017104 C5.80045589,3.91281886 7.58697869,3.37735548 9.562262,3.52359123 C11.5153205,3.66818161 13.2289458,4.45825942 14.5853906,5.82819219 L15.0002417,6.23257446 L15.3982125,5.84467464 C16.7783245,4.45573323 18.4879713,3.66796565 20.4381127,3.52359123 Z" id="Shape" fill="#203641"></path>
    </g>
</svg>