<?xml version="1.0" encoding="UTF-8"?>
<svg width="30px" height="30px" viewBox="0 0 30 30" version="1.1" xmlns="http://www.w3.org/2000/svg" xmlns:xlink="http://www.w3.org/1999/xlink">
    <!-- Generator: Sketch 52.5 (67469) - http://www.bohemiancoding.com/sketch -->
    <title>Atoms/Icons/icon-eye-open</title>
    <desc>Created with Sketch.</desc>
    <g id="Atoms/Icons/icon-eye-open" stroke="none" stroke-width="1" fill="none" fill-rule="evenodd">
        <path d="M26.6991605,13.7187721 C26.899681,14.0338753 26.999941,14.3776245 26.999941,14.7500197 C26.999941,15.1224148 26.899681,15.466164 26.6991605,15.7812672 C25.4673923,17.8724083 23.7916151,19.5338622 21.6718287,20.7656303 C19.5233963,22.0260438 17.1744434,22.6562508 14.6249705,22.6562508 C12.0754976,22.6562508 9.72654467,22.0260438 7.5781123,20.7656303 C5.4583259,19.5338622 3.78254865,17.8724083 2.55078053,15.7812672 C2.35025996,15.466164 2.25,15.1224148 2.25,14.7500197 C2.25,14.3776245 2.35025996,14.0338753 2.55078053,13.7187721 C3.78254865,11.6276311 5.4583259,9.96617713 7.5781123,8.73440901 C9.72654467,7.47399557 12.0754976,6.84378852 14.6249705,6.84378852 C17.1744434,6.84378852 19.5233963,7.47399557 21.6718287,8.73440901 C23.7916151,9.96617713 25.4673923,11.6276311 26.6991605,13.7187721 Z M14.6249705,20.5937557 C16.8020489,20.5937557 18.800091,20.0638093 20.6190968,19.0039158 C22.4381027,17.9440223 23.8775524,16.5260569 24.9374459,14.7500197 C24.2785935,13.6614808 23.4693502,12.6946862 22.5097173,11.849636 C21.5500844,11.0045857 20.4687066,10.324249 19.2655844,9.8086252 C20.0676661,10.8685187 20.4687066,12.0573175 20.4687066,13.3750229 C20.4687066,14.4349165 20.203733,15.408872 19.6737866,16.296891 C19.1438401,17.1849099 18.4348575,17.8938926 17.5468385,18.423839 C16.6588196,18.9537855 15.684864,19.218759 14.6249705,19.218759 C13.565077,19.218759 12.5911214,18.9537855 11.7031025,18.423839 C10.8150835,17.8938926 10.1061008,17.1849099 9.57615441,16.296891 C9.04620797,15.408872 8.78123443,14.4349165 8.78123443,13.3750229 C8.78123443,12.4010667 9.01040033,11.4844025 9.46873279,10.6250295 C9.46873279,11.2838819 9.70506035,11.849636 10.1777155,12.3222911 C10.6503706,12.7949462 11.2161247,13.0312738 11.8749771,13.0312738 C12.5338294,13.0312738 13.0995835,12.7949462 13.5722386,12.3222911 C14.0448938,11.849636 14.2812213,11.2838819 14.2812213,10.6250295 C14.2812213,9.96617713 14.0520554,9.40758471 13.593723,8.94925225 C11.6458112,9.12112684 9.85545062,9.72268791 8.22264201,10.7539354 C6.5898334,11.785183 5.28645131,13.1172111 4.31249508,14.7500197 C5.37238861,16.5260569 6.8118383,17.9440223 8.63084416,19.0039158 C10.44985,20.0638093 12.4478921,20.5937557 14.6249705,20.5937557 Z" id="Shape" fill="#203641"></path>
    </g>
</svg>