<?xml version="1.0" encoding="UTF-8"?>
<svg width="30px" height="30px" viewBox="0 0 30 30" version="1.1" xmlns="http://www.w3.org/2000/svg" xmlns:xlink="http://www.w3.org/1999/xlink">
    <!-- Generator: Sketch 52.5 (67469) - http://www.bohemiancoding.com/sketch -->
    <title>Atoms/Icons/icon-close</title>
    <desc>Created with Sketch.</desc>
    <g id="Atoms/Icons/icon-close" stroke="none" stroke-width="1" fill="none" fill-rule="evenodd">
        <path d="M17.0208153,15.1923882 L24.0918831,22.263456 C24.4824074,22.6539803 24.4824074,23.2871452 24.0918831,23.6776695 L22.6776695,25.0918831 C22.2871452,25.4824074 21.6539803,25.4824074 21.263456,25.0918831 L14.1923882,18.0208153 L7.12132034,25.0918831 C6.73079605,25.4824074 6.09763107,25.4824074 5.70710678,25.0918831 L4.29289322,23.6776695 C3.90236893,23.2871452 3.90236893,22.6539803 4.29289322,22.263456 L11.363961,15.1923882 L4.29289322,8.12132034 C3.90236893,7.73079605 3.90236893,7.09763107 4.29289322,6.70710678 L5.70710678,5.29289322 C6.09763107,4.90236893 6.73079605,4.90236893 7.12132034,5.29289322 L14.1923882,12.363961 L21.263456,5.29289322 C21.6539803,4.90236893 22.2871452,4.90236893 22.6776695,5.29289322 L24.0918831,6.70710678 C24.4824074,7.09763107 24.4824074,7.73079605 24.0918831,8.12132034 L17.0208153,15.1923882 Z" id="Shape" fill="#203641"></path>
    </g>
</svg>