<?xml version="1.0" encoding="UTF-8"?>
<svg width="30px" height="30px" viewBox="0 0 30 30" version="1.1" xmlns="http://www.w3.org/2000/svg" xmlns:xlink="http://www.w3.org/1999/xlink">
    <!-- Generator: Sketch 52.5 (67469) - http://www.bohemiancoding.com/sketch -->
    <title>Atoms/Icons/icon-map</title>
    <desc>Created with Sketch.</desc>
    <g id="Atoms/Icons/icon-map" stroke="none" stroke-width="1" fill="none" fill-rule="evenodd">
        <path d="M11.9277568,7.46700845 C11.9277568,7.05158724 12.3397336,6.7618687 12.730676,6.90236362 L18.1751085,8.85895653 C18.4133254,8.94456574 18.5721892,9.17046851 18.5721892,9.42360136 L18.5721892,23.5885051 C18.5721892,24.0039263 18.1602124,24.2936449 17.76927,24.1531499 L12.3248375,22.196557 C12.0866206,22.1109478 11.9277568,21.885045 11.9277568,21.6319122 L11.9277568,7.46700845 Z M5.24847352,23.9815975 C4.85686346,24.1253918 4.44166217,23.8355419 4.44166217,23.4183666 L4.44166217,9.12585896 C4.44166217,8.86966306 4.60433327,8.64173111 4.84661431,8.558447 L10.2910468,6.68692335 C10.6805716,6.55302417 11.0860946,6.84243892 11.0860946,7.25433531 L11.0860946,21.4192391 C11.0860946,21.6708542 10.9291017,21.8957419 10.692906,21.98247 L5.24847352,23.9815975 Z M26.0582838,21.9296546 C26.0582838,22.1858505 25.8956127,22.4137824 25.6533317,22.4970666 L20.2088992,24.3685902 C19.8193744,24.5024894 19.4138514,24.2130746 19.4138514,23.8011782 L19.4138514,9.6362745 C19.4138514,9.38465935 19.5708443,9.1597717 19.80704,9.07304359 L25.2514725,7.07391605 C25.6430825,6.93012173 26.0582838,7.21997165 26.0582838,7.63714697 L26.0582838,21.9296546 Z" id="Shape" fill="#203641"></path>
    </g>
</svg>