<?xml version="1.0" encoding="UTF-8"?>
<svg width="236px" height="322px" viewBox="0 0 236 322" version="1.1" xmlns="http://www.w3.org/2000/svg" xmlns:xlink="http://www.w3.org/1999/xlink">
    <!-- Generator: Sketch 52.5 (67469) - http://www.bohemiancoding.com/sketch -->
    <title>Atoms/Illustrations/art-drops</title>
    <desc>Created with Sketch.</desc>
    <g id="Atoms/Illustrations/art-drops" stroke="none" stroke-width="1" fill="none" fill-rule="evenodd">
        <g id="Group-3" transform="translate(103.000000, 0.000000)">
            <path d="M40.8617275,174.785234 C8.0668079,160.183995 -10.6966215,119.531991 7.91915455,88.9668978 C34.3742207,45.5305371 45.3884865,15.8749045 40.9619518,1.67688086e-12 C117.458385,52.7377227 146.031089,100.01861 126.680064,141.842661 C111.606553,174.421571 73.6566471,189.386473 40.8617275,174.785234 Z M77.6921039,51.8626509 C83.2372884,53.7887028 89.4607885,57.88946 95.0313816,63.6972653 C100.487071,69.3852741 104.299068,75.6498669 106.073639,81.216071 C107.698672,75.5624226 104.771108,67.2270778 98.2482671,60.4168412 C91.6433025,53.5208626 83.35969,50.2848264 77.6921039,51.8626509 Z" id="Combined-Shape" fill="#3883F2"></path>
            <g id="Atoms/Icons/icon-wash" transform="translate(32.000000, 76.000000)" fill="#FFFFFF">
                <path d="M7.41410662,23.6429787 L12.3026969,23.6429787 L12.3026969,21.4131908 C12.3026969,21.2020331 12.4783981,21.0311108 12.6947442,21.0311108 L14.829402,21.0311108 C15.0460681,21.0311108 15.2214493,21.202345 15.2214493,21.4131908 L15.2214493,23.6429787 L16.560811,23.6429787 L16.560811,21.4131908 C16.560811,21.2020331 16.7365122,21.0311108 16.9528583,21.0311108 L19.0875161,21.0311108 C19.3041822,21.0311108 19.4795634,21.202345 19.4795634,21.4131908 L19.4795634,23.6429787 L20.8189251,23.6429787 L20.8189251,21.4131908 C20.8189251,21.2020331 20.9946263,21.0311108 21.2109725,21.0311108 L23.3456302,21.0311108 C23.5622964,21.0311108 23.7376775,21.202345 23.7376775,21.4131908 L23.7376775,23.6429787 L25.0770393,23.6429787 L25.0770393,21.4131908 C25.0770393,21.2020331 25.2527405,21.0311108 25.4690866,21.0311108 L27.6037443,21.0311108 C27.8204105,21.0311108 27.9957917,21.202345 27.9957917,21.4131908 L27.9957917,23.6429787 L29.3351534,23.6429787 L29.3351534,21.4131908 C29.3351534,21.2020331 29.5108546,21.0311108 29.7272007,21.0311108 L31.8618585,21.0311108 C32.0785246,21.0311108 32.2539058,21.202345 32.2539058,21.4131908 L32.2539058,23.6429787 L33.5929475,23.6429787 L33.5929475,21.4131908 C33.5929475,21.2020331 33.7686487,21.0311108 33.9849948,21.0311108 L36.1196526,21.0311108 C36.3363187,21.0311108 36.5116999,21.202345 36.5116999,21.4131908 L36.5116999,23.6429787 L37.8510616,23.6429787 L37.8510616,21.4131908 C37.8510616,21.2020331 38.0267628,21.0311108 38.243109,21.0311108 L40.3777667,21.0311108 C40.5944329,21.0311108 40.769814,21.202345 40.769814,21.4131908 L40.769814,23.6429787 L42.1091757,23.6429787 L42.1091757,21.4131908 C42.1091757,21.2020331 42.284877,21.0311108 42.5012231,21.0311108 L44.6358808,21.0311108 C44.852547,21.0311108 45.0279282,21.202345 45.0279282,21.4131908 L45.0279282,23.6429787 L46.3672899,23.6429787 L46.3672899,21.4131908 C46.3672899,21.2020331 46.5429911,21.0311108 46.7593372,21.0311108 L48.893995,21.0311108 C49.1106611,21.0311108 49.2860423,21.202345 49.2860423,21.4131908 L49.2860423,23.6429787 L50.625404,23.6429787 L50.625404,21.4131908 C50.625404,21.2020331 50.8011052,21.0311108 51.0174513,21.0311108 L53.1521091,21.0311108 C53.3687752,21.0311108 53.5441564,21.202345 53.5441564,21.4131908 L53.5441564,23.6429787 L54.8835181,23.6429787 L54.8835181,21.4131908 C54.8835181,21.2020331 55.0592194,21.0311108 55.2755655,21.0311108 L57.4102232,21.0311108 C57.6268894,21.0311108 57.8022706,21.202345 57.8022706,21.4131908 L57.8022706,23.6429787 L59.1416323,23.6429787 L59.1416323,21.4131908 C59.1416323,21.2020331 59.3173335,21.0311108 59.5336796,21.0311108 L61.6683373,21.0311108 C61.8850035,21.0311108 62.0603847,21.202345 62.0603847,21.4131908 L62.0603847,23.6429787 L63.3997464,23.6429787 L63.3997464,21.4131908 C63.3997464,21.2020331 63.5754476,21.0311108 63.7917937,21.0311108 L65.9264515,21.0311108 C66.1431176,21.0311108 66.3184988,21.202345 66.3184988,21.4131908 L66.3184988,23.6429787 L70.9616194,23.6429787 L71.8708492,23.6429787 C72.531409,23.6429787 73.0671537,24.1651027 73.0671537,24.8088686 L73.0671537,29.4948852 L75.3547899,29.4948852 C75.571136,29.4948852 75.7468372,29.6658076 75.7468372,29.8769653 L75.7468372,31.957352 C75.7468372,32.1681978 75.571456,32.3394321 75.3547899,32.3394321 L73.0671537,32.3394321 L73.0671537,33.6447422 L75.3547899,33.6447422 C75.571136,33.6447422 75.7468372,33.8156645 75.7468372,34.0268222 L75.7468372,36.107209 C75.7468372,36.3180548 75.571456,36.4892891 75.3547899,36.4892891 L73.0671537,36.4892891 L73.0671537,37.7945992 L75.3547899,37.7945992 C75.571136,37.7945992 75.7468372,37.9655215 75.7468372,38.1766792 L75.7468372,40.257066 C75.7468372,40.4679118 75.571456,40.639146 75.3547899,40.639146 L73.0671537,40.639146 L73.0671537,41.9444562 L75.3547899,41.9444562 C75.571136,41.9444562 75.7468372,42.1153785 75.7468372,42.3265362 L75.7468372,44.406923 C75.7468372,44.6177688 75.571456,44.789003 75.3547899,44.789003 L73.0671537,44.789003 L73.0671537,46.0943132 L75.3547899,46.0943132 C75.571136,46.0943132 75.7468372,46.2652355 75.7468372,46.4763932 L75.7468372,48.55678 C75.7468372,48.7676258 75.571456,48.93886 75.3547899,48.93886 L73.0671537,48.93886 L73.0671537,50.2441702 L75.3547899,50.2441702 C75.571136,50.2441702 75.7468372,50.4150925 75.7468372,50.6262502 L75.7468372,52.706637 C75.7468372,52.9174828 75.571456,53.088717 75.3547899,53.088717 L73.0671537,53.088717 L73.0671537,57.5882162 L70.9616194,57.5882162 L70.9616194,53.088717 L68.6739832,53.088717 C68.4573171,53.088717 68.2819359,52.9174828 68.2819359,52.706637 L68.2819359,50.6262502 C68.2819359,50.4154044 68.4573171,50.2441702 68.6739832,50.2441702 L70.9616194,50.2441702 L70.9616194,48.93886 L68.6739832,48.93886 C68.4573171,48.93886 68.2819359,48.7676258 68.2819359,48.55678 L68.2819359,46.4763932 C68.2819359,46.2655474 68.4573171,46.0943132 68.6739832,46.0943132 L70.9616194,46.0943132 L70.9616194,44.789003 L68.6739832,44.789003 C68.4573171,44.789003 68.2819359,44.6177688 68.2819359,44.406923 L68.2819359,42.3265362 C68.2819359,42.1156904 68.4573171,41.9444562 68.6739832,41.9444562 L70.9616194,41.9444562 L70.9616194,40.639146 L68.6739832,40.639146 C68.4573171,40.639146 68.2819359,40.4679118 68.2819359,40.257066 L68.2819359,38.1766792 C68.2819359,37.9658334 68.4573171,37.7945992 68.6739832,37.7945992 L70.9616194,37.7945992 L70.9616194,36.4892891 L68.6739832,36.4892891 C68.4573171,36.4892891 68.2819359,36.3180548 68.2819359,36.107209 L68.2819359,34.0268222 C68.2819359,33.8159764 68.4573171,33.6447422 68.6739832,33.6447422 L70.9616194,33.6447422 L70.9616194,32.3394321 L68.6739832,32.3394321 C68.4573171,32.3394321 68.2819359,32.1681978 68.2819359,31.957352 L68.2819359,29.8769653 C68.2819359,29.6661195 68.4573171,29.4948852 68.6739832,29.4948852 L70.9616194,29.4948852 L70.9616194,25.6949823 L66.3184988,25.6949823 L66.3184988,27.9241464 C66.3184988,28.1353041 66.1427976,28.3062264 65.9264515,28.3062264 L63.7917937,28.3062264 C63.5754476,28.3065384 63.3997464,28.1353041 63.3997464,27.9241464 L63.3997464,25.6949823 L62.0603847,25.6949823 L62.0603847,27.9241464 C62.0603847,28.1353041 61.8846835,28.3062264 61.6683373,28.3062264 L59.5336796,28.3062264 C59.3173335,28.3065384 59.1416323,28.1353041 59.1416323,27.9241464 L59.1416323,25.6949823 L57.8022706,25.6949823 L57.8022706,27.9241464 C57.8022706,28.1353041 57.6265693,28.3062264 57.4102232,28.3062264 L55.2755655,28.3062264 C55.0592194,28.3065384 54.8835181,28.1353041 54.8835181,27.9241464 L54.8835181,25.6949823 L53.5441564,25.6949823 L53.5441564,27.9241464 C53.5441564,28.1353041 53.3684552,28.3062264 53.1521091,28.3062264 L51.0174513,28.3062264 C50.8011052,28.3065384 50.625404,28.1353041 50.625404,27.9241464 L50.625404,25.6949823 L49.2860423,25.6949823 L49.2860423,27.9241464 C49.2860423,28.1353041 49.1103411,28.3062264 48.893995,28.3062264 L46.7593372,28.3062264 C46.5429911,28.3065384 46.3672899,28.1353041 46.3672899,27.9241464 L46.3672899,25.6949823 L45.0279282,25.6949823 L45.0279282,27.9241464 C45.0279282,28.1353041 44.8522269,28.3062264 44.6358808,28.3062264 L42.5012231,28.3062264 C42.284877,28.3065384 42.1091757,28.1353041 42.1091757,27.9241464 L42.1091757,25.6949823 L40.769814,25.6949823 L40.769814,27.9241464 C40.769814,28.1353041 40.5941128,28.3062264 40.3777667,28.3062264 L38.243109,28.3062264 C38.0267628,28.3065384 37.8510616,28.1353041 37.8510616,27.9241464 L37.8510616,25.6949823 L36.5116999,25.6949823 L36.5116999,27.9241464 C36.5116999,28.1353041 36.3359987,28.3062264 36.1196526,28.3062264 L33.9849948,28.3062264 C33.7686487,28.3065384 33.5929475,28.1353041 33.5929475,27.9241464 L33.5929475,25.6949823 L32.2539058,25.6949823 L32.2539058,27.9241464 C32.2539058,28.1353041 32.0782046,28.3062264 31.8618585,28.3062264 L29.7272007,28.3062264 C29.5105346,28.3065384 29.3351534,28.1353041 29.3351534,27.9241464 L29.3351534,25.6949823 L27.9957917,25.6949823 L27.9957917,27.9241464 C27.9957917,28.1353041 27.8200905,28.3062264 27.6037443,28.3062264 L25.4690866,28.3062264 C25.2524204,28.3065384 25.0770393,28.1353041 25.0770393,27.9241464 L25.0770393,25.6949823 L23.7376775,25.6949823 L23.7376775,27.9241464 C23.7376775,28.1353041 23.5619763,28.3062264 23.3456302,28.3062264 L21.2109725,28.3062264 C20.9943063,28.3065384 20.8189251,28.1353041 20.8189251,27.9241464 L20.8189251,25.6949823 L19.4795634,25.6949823 L19.4795634,27.9241464 C19.4795634,28.1353041 19.3038622,28.3062264 19.0875161,28.3062264 L16.9528583,28.3062264 C16.7361922,28.3065384 16.560811,28.1353041 16.560811,27.9241464 L16.560811,25.6949823 L15.2214493,25.6949823 L15.2214493,27.9241464 C15.2214493,28.1353041 15.0457481,28.3062264 14.829402,28.3062264 L12.6947442,28.3062264 C12.478078,28.3065384 12.3026969,28.1353041 12.3026969,27.9241464 L12.3026969,25.6949823 L7.41410662,25.6949823 L7.41410662,29.4948852 L9.70174283,29.4948852 C9.91840899,29.4948852 10.0937902,29.6661195 10.0937902,29.8769653 L10.0937902,31.957352 C10.0937902,32.1681978 9.91808895,32.3394321 9.70174283,32.3394321 L7.41410662,32.3394321 L7.41410662,33.6447422 L9.70174283,33.6447422 C9.91840899,33.6447422 10.0937902,33.8159764 10.0937902,34.0268222 L10.0937902,36.107209 C10.0937902,36.3180548 9.91808895,36.4892891 9.70174283,36.4892891 L7.41410662,36.4892891 L7.41410662,37.7945992 L9.70174283,37.7945992 C9.91840899,37.7945992 10.0937902,37.9658334 10.0937902,38.1766792 L10.0937902,40.257066 C10.0937902,40.4679118 9.91808895,40.639146 9.70174283,40.639146 L7.41410662,40.639146 L7.41410662,41.9444562 L9.70174283,41.9444562 C9.91840899,41.9444562 10.0937902,42.1156904 10.0937902,42.3265362 L10.0937902,44.406923 C10.0937902,44.6177688 9.91808895,44.789003 9.70174283,44.789003 L7.41410662,44.789003 L7.41410662,46.0943132 L9.70174283,46.0943132 C9.91840899,46.0943132 10.0937902,46.2655474 10.0937902,46.4763932 L10.0937902,48.55678 C10.0937902,48.7676258 9.91808895,48.93886 9.70174283,48.93886 L7.41410662,48.93886 L7.41410662,50.2441702 L9.70174283,50.2441702 C9.91840899,50.2441702 10.0937902,50.4154044 10.0937902,50.6262502 L10.0937902,52.706637 C10.0937902,52.9174828 9.91808895,53.088717 9.70174283,53.088717 L7.41410662,53.088717 L7.41410662,57.5882162 L5.30857239,57.5882162 L5.30857239,53.088717 L3.02093618,53.088717 C2.80427002,53.088717 2.62888884,52.9174828 2.62888884,52.706637 L2.62888884,50.6262502 C2.62888884,50.4150925 2.80459006,50.2441702 3.02093618,50.2441702 L5.30857239,50.2441702 L5.30857239,48.93886 L3.02093618,48.93886 C2.80427002,48.93886 2.62888884,48.7676258 2.62888884,48.55678 L2.62888884,46.4763932 C2.62888884,46.2652355 2.80459006,46.0943132 3.02093618,46.0943132 L5.30857239,46.0943132 L5.30857239,44.789003 L3.02093618,44.789003 C2.80427002,44.789003 2.62888884,44.6177688 2.62888884,44.406923 L2.62888884,42.3265362 C2.62888884,42.1153785 2.80459006,41.9444562 3.02093618,41.9444562 L5.30857239,41.9444562 L5.30857239,40.639146 L3.02093618,40.639146 C2.80427002,40.639146 2.62888884,40.4679118 2.62888884,40.257066 L2.62888884,38.1766792 C2.62888884,37.9655215 2.80459006,37.7945992 3.02093618,37.7945992 L5.30857239,37.7945992 L5.30857239,36.4892891 L3.02093618,36.4892891 C2.80427002,36.4892891 2.62888884,36.3180548 2.62888884,36.107209 L2.62888884,34.0268222 C2.62888884,33.8156645 2.80459006,33.6447422 3.02093618,33.6447422 L5.30857239,33.6447422 L5.30857239,32.3394321 L3.02093618,32.3394321 C2.80427002,32.3394321 2.62888884,32.1681978 2.62888884,31.957352 L2.62888884,29.8769653 C2.62888884,29.6658076 2.80459006,29.4948852 3.02093618,29.4948852 L5.30857239,29.4948852 L5.30857239,24.8088686 C5.30857239,24.1651027 5.84431708,23.6429787 6.50487684,23.6429787 L7.41410662,23.6429787 Z M66.5617282,48.9373005 C66.5617282,48.9373005 67.0478669,53.9745189 64.5547659,54.2112526 L61.8187555,54.4492338 C61.8187555,54.4492338 62.427789,48.4033242 57.6848164,48.1665905 C57.6848164,48.1665905 52.3331302,47.040936 51.6642494,54.2708259 L24.6680299,54.2708259 C24.6680299,54.2708259 24.5428948,48.286049 19.7999221,48.4045718 C19.7999221,48.4045718 14.8143601,47.5755361 14.4507962,53.3831526 C14.4507962,53.3831526 11.7749532,53.7982942 11.7749532,48.6425531 C11.7749532,48.6425531 12.138517,47.7536322 12.8073978,47.7536322 C12.8073978,47.7536322 13.3562641,47.6338618 13.173202,47.0418717 C13.173202,47.0418717 12.6870633,43.1312436 14.0853121,41.8274929 L18.7681175,36.1380873 C18.7681175,36.1380873 19.6200604,34.7753872 22.2331759,34.7145663 C22.2331759,34.7145663 38.7356484,34.5445797 43.3339636,35.7216981 L43.9522783,35.8704754 L44.6093176,36.0897425 L45.2349932,36.3348975 L45.7787388,36.5928405 L55.0669003,42.1225523 C55.0669003,42.1225523 63.3997464,43.6633485 65.4067087,47.2171606 C65.4067087,47.2171606 66.3812264,48.1656548 66.5617282,48.9373005 Z M19.5598931,42.0027819 L32.2075002,42.3592859 L31.7789685,36.4917843 C31.7789685,36.4917843 31.841376,35.9596793 30.9318262,35.8997942 C30.0174758,35.8402209 24.0596364,35.9596793 24.0596364,35.9596793 C24.0596364,35.9596793 22.2955834,35.7800238 21.1383237,37.6186864 C21.1383237,37.6186864 19.1940889,40.0493392 19.5598931,42.0027819 Z M48.9887264,42.7404303 C48.9887264,42.7404303 50.1341447,42.8539626 49.1116212,40.9947144 C49.1116212,40.9947144 46.3756109,35.9596793 34.880783,36.0183169 C34.880783,36.0183169 34.0314004,35.8402209 33.9686729,36.7874674 L35.2465871,42.3592859 L48.9887264,42.7404303 Z M56.8811993,49.6478134 C59.131391,49.6478134 60.9552913,51.4240957 60.9549712,53.6192624 C60.9549712,55.8106864 59.131071,57.5882162 56.8811993,57.5882162 C54.633888,57.5882162 52.8074275,55.8106864 52.8074275,53.6192624 C52.8074275,51.4240957 54.633888,49.6478134 56.8811993,49.6478134 Z M56.8811993,55.6325903 C58.0243774,55.6325903 58.9508892,54.7308814 58.9505692,53.6192624 C58.9505692,52.5054602 58.0240573,51.6037513 56.8811993,51.6037513 C55.7409017,51.6037513 54.8143898,52.5051483 54.8143898,53.6192624 C54.8143898,54.7308814 55.7405816,55.6325903 56.8811993,55.6325903 Z M19.6802276,49.6478134 C21.9323396,49.6478134 23.7562398,51.4240957 23.7565598,53.6192624 C23.7565598,55.8106864 21.9323396,57.5882162 19.6802276,57.5882162 C17.430356,57.5882162 15.6064558,55.8106864 15.6064558,53.6192624 C15.6064558,51.4240957 17.430356,49.6478134 19.6802276,49.6478134 Z M19.6802276,55.6325903 C20.8230856,55.6325903 21.7470372,54.7308814 21.7470372,53.6192624 C21.7470372,52.5054602 20.8230856,51.6037513 19.6802276,51.6037513 C18.53993,51.6037513 17.6134181,52.5051483 17.6134181,53.6192624 C17.6134181,54.7308814 18.5396099,55.6325903 19.6802276,55.6325903 Z" id="Combined-Shape"></path>
            </g>
        </g>
        <g id="Group-3" transform="translate(0.000000, 141.000000)">
            <path d="M40.8617275,174.785234 C8.0668079,160.183995 -10.6966215,119.531991 7.91915455,88.9668978 C34.3742207,45.5305371 45.3884865,15.8749045 40.9619518,1.67688086e-12 C117.458385,52.7377227 146.031089,100.01861 126.680064,141.842661 C111.606553,174.421571 73.6566471,189.386473 40.8617275,174.785234 Z M77.6921039,51.8626509 C83.2372884,53.7887028 89.4607885,57.88946 95.0313816,63.6972653 C100.487071,69.3852741 104.299068,75.6498669 106.073639,81.216071 C107.698672,75.5624226 104.771108,67.2270778 98.2482671,60.4168412 C91.6433025,53.5208626 83.35969,50.2848264 77.6921039,51.8626509 Z" id="Combined-Shape" fill="#3883F2"></path>
            <g id="Atoms/Icons/icon-detail" transform="translate(32.000000, 76.000000)" fill="#FFFFFF">
                <path d="M31.2351517,49.2341128 C30.97066,49.4878022 31.0004258,50.0377316 31.4722202,50.12831 C31.6999223,50.1719969 31.8722009,50.0777196 31.9723319,49.9309939 C33.2983419,51.1829634 34.9582785,52.7437211 35.4203038,53.1794983 C27.2341868,59.3725374 22.0563427,56.5137636 19.3984756,51.1222938 C17.2460196,46.7567113 10.7103003,47.0202427 8.32169283,42.1921132 C5.93308534,37.3639838 13.949419,32.1855725 18.5318549,27.8385793 C27.3752677,19.4496771 23.0677927,16.5271388 31.0848586,11.5954921 C36.0678365,8.53043547 40.5272539,12.7072085 45.4824063,15.2306224 C50.4375586,17.7544008 54.8332701,17.723054 56.8949268,23.3166275 C58.0265888,26.3869905 56.5452374,28.9810494 54.4298488,31.4934171 C54.3077431,31.368731 54.1842441,31.2444404 54.0592812,31.1203684 C53.8042755,30.8671805 53.5529793,30.624535 53.2829576,30.3691412 C53.1250366,30.2197753 52.9565002,30.0621426 52.7140337,29.835564 C50.2649606,27.5365298 46.8570989,24.298922 46.664926,24.075246 C44.4261329,21.4693422 41.158787,22.8648292 40.2813428,25.5458457 C39.2987598,24.6346261 38.4743932,23.8658663 38.528007,23.914921 C35.1276418,20.8037084 31.7257565,19.1242437 29.6470107,21.2243044 C29.231152,21.6442272 28.9480418,22.093227 28.7810381,22.558115 C27.3547821,21.9478464 25.855837,22.1534562 24.6560624,23.3807919 C23.2861081,24.7825743 23.3903152,26.3633996 24.3310044,28.1132737 C23.7098177,28.3155825 23.1328143,28.7460915 22.5915218,29.4416228 C21.3421794,31.0469598 21.672277,32.4733681 23.4862628,34.6816849 C23.0934812,34.8975453 22.7192244,35.2248395 22.3597572,35.6772523 C20.3346461,38.2259854 22.2855967,40.5849882 29.4460584,47.5216847 C29.795927,47.8606198 30.1593372,48.2100446 30.5406745,48.5743728 C30.7191705,48.7449073 30.9581183,48.9717987 31.2351517,49.2341128 Z M65.1891503,51.9143462 C65.8280406,52.4279227 65.9041948,53.3701478 65.3550055,53.9792226 L55.2023253,65.2476525 C54.6641197,65.8450633 53.7378204,65.8837 53.1512862,65.3336738 L52.9579715,65.1521542 C52.5094669,64.7315245 52.3945033,64.0914675 52.6215015,63.5571146 C51.0175025,62.0043567 47.1098373,58.2609708 45.7039126,57.2651645 C43.9168505,55.9996304 42.0829243,56.4202601 37.0673611,51.6613851 C32.051798,46.9025101 22.8638604,38.6368079 24.1152798,37.0618156 C25.3666992,35.4868234 30.021628,40.1217693 31.5370245,41.3585082 C33.0520548,42.5952471 34.0182619,42.7949916 34.0307102,42.1556635 C34.0431585,41.5163355 22.972966,32.5919869 24.3609505,30.8085023 C25.748935,29.0250176 29.9044677,33.1554995 32.3868035,35.4551121 C34.8691393,37.7543602 36.7583506,39.7106165 37.2200358,39.0435867 C37.6817209,38.3765569 31.1060939,32.8281811 29.8363682,31.4186705 C28.5666424,30.00916 24.8248324,26.405741 26.2600472,24.9371819 C27.6956281,23.4686228 29.2029698,25.7069999 31.28037,27.3406762 C33.3574041,28.974717 41.1646797,36.3689065 41.8508002,35.6883903 C42.5372869,35.0078741 33.2684354,26.9025506 32.144794,25.8608177 C31.0211526,24.8190848 30.4723294,23.5670371 31.2411945,22.7906581 C32.0096934,22.0142791 34.6615457,23.4059293 37.0135406,25.5579206 C39.3655354,27.7099118 47.0911649,35.2090765 47.9255666,34.1862975 C48.7672908,33.154406 42.2546375,28.4483831 42.2974742,26.8923447 C42.340311,25.3359418 43.8710848,24.2537497 44.9639715,25.5258448 C45.3103269,25.9289787 49.7799959,30.1462109 51.1785981,31.4591297 C52.5772003,32.7720485 57.2584902,36.9911032 57.6733112,41.4711379 C58.0881322,45.950808 57.8823693,46.5504059 58.377738,47.555689 C58.7614383,48.334255 62.0997772,50.7366558 63.5862497,51.7809402 C64.0852798,51.5020999 64.7216071,51.5385496 65.1891503,51.9143462 Z M35.6112771,17.2419177 C36.2659108,17.3673048 36.069301,18.3784199 35.4153996,18.2533974 C34.7607659,18.1276458 34.9577418,17.1165307 35.6112771,17.2419177 Z M32.4849253,18.2738092 C33.1399251,18.3995607 32.9429492,19.4106759 32.2894139,19.2852888 C31.6344141,19.1595373 31.83139,18.1484222 32.4849253,18.2738092 Z M33.7967556,15.7285255 L33.6839887,15.7070202 C33.418181,15.6559906 33.1186898,15.8396971 33.0780498,16.115257 C33.0374098,16.3915458 33.2032649,16.6638252 33.4881111,16.7184998 L33.600878,16.7400051 C33.8666857,16.7910347 34.1661769,16.6073282 34.2068169,16.3317683 C34.2478231,16.055115 34.0816018,15.7832001 33.7967556,15.7285255 Z M15.8166628,36.05471 C16.4712965,36.180097 16.2746867,37.1912121 15.6207852,37.0661896 C14.9661516,36.9404381 15.1631275,35.9293229 15.8166628,36.05471 Z M13.4405036,41.0763874 C14.0951373,41.2017744 13.8981614,42.2128896 13.244626,42.0878671 C12.5899924,41.9621155 12.7869683,40.9510004 13.4405036,41.0763874 Z M16.9476267,42.9141821 C17.6022604,43.0399337 17.4056506,44.0510488 16.7521153,43.9256618 C16.0971155,43.7999102 16.2940914,42.7887951 16.9476267,42.9141821 Z M18.2689762,38.5059534 C18.9236099,38.6317049 18.7270001,39.6428201 18.0730987,39.517433 C17.418465,39.3916815 17.6154409,38.3805664 18.2689762,38.5059534 Z M26.8359638,48.0736395 C27.4909636,48.199391 27.2939877,49.2105062 26.6404524,49.0851192 C25.9854525,48.9593676 26.1824285,47.9482525 26.8359638,48.0736395 Z M24.4253887,51.4572667 C25.0803885,51.5830182 24.8834126,52.5941334 24.2298773,52.4687463 C23.5748775,52.3429948 23.7718534,51.3318797 24.4253887,51.4572667 Z M29.4310664,51.6016076 C30.0860663,51.7269946 29.8890904,52.7381097 29.235555,52.6130872 C28.5805552,52.4873357 28.7775311,51.4762206 29.4310664,51.6016076 Z M53.321901,25.5331348 C53.9769008,25.6585218 53.7799249,26.6696369 53.1263896,26.5446144 C52.4713898,26.4188629 52.6683657,25.4077477 53.321901,25.5331348 Z M51.6080641,22.2909325 C52.263064,22.4163195 52.066088,23.4274346 51.4121866,23.3024121 C50.7575529,23.1766606 50.9545288,22.1655455 51.6080641,22.2909325 Z M46.8758827,22.548632 C47.5305164,22.6743835 47.3339066,23.6854986 46.6800052,23.5601116 C46.0253715,23.4343601 46.2223474,22.423245 46.8758827,22.548632 Z M20.579965,33.8214358 C21.2345987,33.9471873 21.0379889,34.9583025 20.3844536,34.8329155 C19.7294537,34.7071639 19.9264297,33.6960488 20.579965,33.8214358 Z M20.1552585,31.1762799 C20.8102584,31.3016669 20.6132824,32.3127821 19.9597471,32.1877595 C19.3047473,32.062008 19.5017232,31.0508929 20.1552585,31.1762799 Z M40.576681,21.2240493 C41.2313147,21.3498008 41.0347049,22.3609159 40.3808035,22.2355289 C39.7261698,22.1097774 39.9231457,21.0986622 40.576681,21.2240493 Z" id="Combined-Shape"></path>
            </g>
        </g>
    </g>
</svg>