<?xml version="1.0" encoding="UTF-8"?>
<svg width="295px" height="168px" viewBox="0 0 295 168" version="1.1" xmlns="http://www.w3.org/2000/svg" xmlns:xlink="http://www.w3.org/1999/xlink">
    <!-- Generator: Sketch 52.5 (67469) - http://www.bohemiancoding.com/sketch -->
    <title>Atoms/Illustrations/art-promos</title>
    <desc>Created with Sketch.</desc>
    <g id="Atoms/Illustrations/art-promos" stroke="none" stroke-width="1" fill="none" fill-rule="evenodd">
        <g id="Atoms/Icons/Promo" transform="translate(144.000000, 0.000000)" fill="#3883F2">
            <path d="M55.9353808,5.2881124 L46.2836101,14.559068 C44.8233064,14.5703054 43.3807421,15.1227719 42.2822753,16.2212387 C40.0191752,18.4843388 40.0736112,22.2079852 42.4038617,24.5382356 C44.7341121,26.8684861 48.4577585,26.9229221 50.7208586,24.659822 C52.1078616,23.272819 52.6243545,21.3372075 52.2799422,19.5099885 L61.3984877,10.7512194 L63.6682428,13.0209744 C63.8490947,13.2018264 63.9474106,13.4492231 63.9400278,13.7048798 L63.3488644,34.1762315 C63.3420184,34.4133032 63.2447843,34.6387851 63.0770794,34.80649 L31.2136443,66.6699251 C30.850748,67.0328214 30.2623768,67.0328214 29.8994805,66.6699251 L0.272172231,37.0426167 C-0.0907240771,36.6797204 -0.0907240771,36.0913493 0.272172231,35.728453 L32.1356073,3.86501786 C32.3033122,3.69731301 32.5287941,3.60007891 32.7658658,3.59323285 L53.2372175,3.00206946 C53.4928742,2.99468671 53.7402709,3.09300255 53.9211228,3.27385447 L55.9353808,5.2881124 Z M47.2628325,21.4591919 C46.4811284,22.2016251 45.2391114,22.1765189 44.4887098,21.4031156 C43.7383082,20.6297123 43.7636839,19.4008841 44.545388,18.6584509 L63.621362,0.540808056 C64.4030661,-0.201625109 65.6450832,-0.176518874 66.3954848,0.596884401 C67.1458864,1.37028768 67.1205107,2.5991159 66.3388066,3.34154907 L47.2628325,21.4591919 Z" id="Shape"></path>
        </g>
        <path d="M154.896893,166.260664 C154.632926,166.627165 154.311287,166.948528 153.944469,167.212268 C152.068444,168.561122 149.453221,168.135075 148.103204,166.260664 L148.10314,166.26071 C126.03438,135.619665 115,113.945749 115,101.238963 C115,81.2247363 131.341607,65 151.5,65 C171.658393,65 188,81.2247363 188,101.238963 C188,113.945742 176.965631,135.619643 154.896893,166.260664 Z M151,118 C160.388841,118 168,110.612698 168,101.5 C168,92.3873016 160.388841,85 151,85 C141.611159,85 134,92.3873016 134,101.5 C134,110.612698 141.611159,118 151,118 Z" id="Shape" fill="#F74F9E"></path>
        <path d="M264.67518,167.138775 C264.545005,167.320247 264.386388,167.479368 264.205492,167.609958 C263.280329,168.277837 261.990629,168.066882 261.324868,167.138775 L261.324836,167.138798 C250.441612,151.967018 245,141.235274 245,134.943564 C245,125.033607 253.058875,117 263,117 C272.941125,117 281,125.033607 281,134.943564 C281,141.23527 275.558393,151.967008 264.67518,167.138775 Z M262.5,143 C267.19442,143 271,139.418278 271,135 C271,130.581722 267.19442,127 262.5,127 C257.80558,127 254,130.581722 254,135 C254,139.418278 257.80558,143 262.5,143 Z" id="Shape" fill="#F74F9E"></path>
        <path d="M28.6751802,152.138775 C28.5450046,152.320247 28.3863879,152.479368 28.2054918,152.609958 C27.2803286,153.277837 25.9906293,153.066882 25.3248678,152.138775 L25.3248363,152.138798 C14.4416121,136.967018 9,126.235274 9,119.943564 C9,110.033607 17.0588745,102 27,102 C36.9411255,102 45,110.033607 45,119.943564 C45,126.23527 39.5583934,136.967008 28.6751802,152.138775 Z M26.5,128 C31.1944204,128 35,124.418278 35,120 C35,115.581722 31.1944204,112 26.5,112 C21.8055796,112 18,115.581722 18,120 C18,124.418278 21.8055796,128 26.5,128 Z" id="Shape" fill="#F74F9E"></path>
        <g id="Atoms/Icons/Promo" transform="translate(87.000000, 29.000000)" fill="#3883F2">
            <path d="M40.8014381,4.03216718 L33.775619,10.7801095 C32.7121434,10.78796 31.661526,11.1901005 30.8616067,11.9900198 C29.2141704,13.6374562 29.2539339,16.3482417 30.9504211,18.0447289 C32.6469082,19.741216 35.3576938,19.7809796 37.0051301,18.1335432 C38.0146521,17.1240212 38.3906242,15.7152076 38.1400591,14.3851743 L44.7785306,8.00925967 L46.3532531,9.58398221 C46.5340937,9.76482283 46.6324091,10.0122005 46.6250395,10.2678415 L46.2014526,24.9614317 C46.1946178,25.1985196 46.0973824,25.4240201 45.9296663,25.5917362 L22.9843136,48.5370888 C22.6214173,48.8999851 22.0330462,48.8999851 21.6701498,48.5370888 L0.458061123,27.3250001 C0.0951648149,26.9621038 0.0951648149,26.3737326 0.458061123,26.0108363 L23.4034137,3.06548369 C23.5711299,2.89776758 23.7966303,2.80053212 24.0337182,2.79369735 L38.7273084,2.37011048 C38.9829495,2.36274086 39.2303271,2.46105621 39.4111677,2.64189682 L40.8014381,4.03216718 Z M34.9030924,15.5448944 C34.3431319,16.082708 33.4534341,16.0645212 32.9158966,15.5042731 C32.3783592,14.9440249 32.3965366,14.05387 32.9564971,13.5160564 L46.6212476,0.39175772 C47.1812081,-0.146055873 48.070906,-0.127869086 48.6084434,0.432379047 C49.1459809,0.99262718 49.1278034,1.88278209 48.567843,2.42059568 L34.9030924,15.5448944 Z" id="Shape"></path>
        </g>
        <g id="Atoms/Icons/Promo" transform="translate(250.000000, 78.328975)" fill="#3883F2">
            <path d="M25.7938478,3.23152875 L21.3314186,7.51789115 C20.6562577,7.52308686 19.9892984,7.77851594 19.4814301,8.28638423 C18.4351015,9.33271284 18.4602695,11.0543147 19.5376445,12.1316897 C20.6150195,13.2090647 22.3366214,13.2342327 23.38295,12.1879041 C24.0242212,11.5466329 24.2630182,10.6517162 24.1037814,9.80691415 L28.3196772,5.75735812 L29.2167367,6.65441769 C29.3975887,6.83526963 29.4959045,7.08266638 29.4885217,7.33832307 L29.2271514,16.3892824 C29.2203053,16.626354 29.1230712,16.851836 28.9553664,17.0195408 L14.7172093,31.2576978 C14.354313,31.6205942 13.7659418,31.6205942 13.4030455,31.2576978 L0.411636357,18.2662887 C0.0487400483,17.9033924 0.0487400483,17.3150212 0.411636357,16.9521249 L14.6497934,2.71396784 C14.8174982,2.546263 15.0429802,2.4490289 15.2800518,2.44218283 L24.3310111,2.18081246 C24.5866678,2.1734297 24.8340646,2.27174553 25.0149165,2.45259747 L25.7938478,3.23152875 Z M22.0475859,10.5439814 C21.6919762,10.8855605 21.1269626,10.8740096 20.7855929,10.5181818 C20.4442231,10.162354 20.4557669,9.596994 20.8113767,9.25541494 L29.4893441,0.919839873 C29.8449539,0.578260815 30.4099674,0.589811706 30.7513372,0.945639508 C31.0927069,1.30146731 31.0811631,1.86682728 30.7255534,2.20840633 L22.0475859,10.5439814 Z" id="Shape"></path>
        </g>
        <g id="Atoms/Icons/Promo" transform="translate(276.000000, 107.000000)" fill="#3883F2">
            <path d="M15.7948635,2.24739922 L13.0472636,4.88673614 C12.6316573,4.89000629 12.2211127,5.04728228 11.9084761,5.35991886 C11.2642445,6.00415046 11.2797112,7.06412295 11.9430219,7.72743367 C12.6063326,8.3907444 13.6663051,8.40621108 14.3105367,7.76197948 C14.7054051,7.36711107 14.8524366,6.81605617 14.7543607,6.29588403 L17.349992,3.80252772 L17.7935232,4.24605888 C17.9743814,4.42691707 18.0726975,4.67432435 18.0653074,4.92998966 L17.9127818,10.2067807 C17.9059295,10.4438434 17.8086961,10.6693151 17.6409975,10.8370137 L9.22731824,19.250693 C8.86442193,19.6135893 8.27605076,19.6135893 7.91315445,19.250693 L0.419762619,11.7573011 C0.0568663102,11.3944048 0.0568663102,10.8060337 0.419762619,10.4431373 L8.83344186,2.02945811 C9.00114049,1.86175947 9.2266122,1.76452613 9.46367487,1.75767383 L14.7404659,1.60514814 C14.9961312,1.59775813 15.2435385,1.69607423 15.4243967,1.87693241 L15.7948635,2.24739922 Z M13.48824,6.74987092 C13.2693007,6.96018346 12.921437,6.9530715 12.7112649,6.73398591 C12.5010927,6.51490033 12.5081999,6.16680437 12.7271393,5.95649183 L18.0699299,0.82422185 C18.2888693,0.613909312 18.6367329,0.621021274 18.846905,0.84010686 C19.0570772,1.05919245 19.04997,1.4072884 18.8310306,1.61760094 L13.48824,6.74987092 Z" id="Shape"></path>
        </g>
        <g id="Atoms/Icons/Promo" transform="translate(191.000000, 86.328975)" fill="#3883F2">
            <path d="M28.2900266,2.80829486 L23.3957495,7.50946654 C22.6552503,7.51516505 21.9237466,7.79531307 21.3667298,8.35232991 C20.2191436,9.49991612 20.2467472,11.3881247 21.4283843,12.5697617 C22.6100213,13.7513988 24.4982299,13.7790025 25.6458161,12.6314163 C26.3491459,11.9280865 26.6110522,10.946565 26.4364055,10.0200079 L31.0602911,5.57855934 L32.071584,6.58985229 C32.252436,6.77070423 32.3507518,7.01810098 32.3433691,7.27375767 L32.0545538,17.2751021 C32.0477077,17.5121737 31.9504736,17.7376556 31.7827688,17.9053605 L16.0778668,33.6102625 C15.7149705,33.9731588 15.1265993,33.9731588 14.763703,33.6102625 L0.387883563,19.234443 C0.0249872546,18.8715467 0.0249872546,18.2831755 0.387883563,17.9202792 L16.0927855,2.21537723 C16.2604904,2.04767239 16.4859723,1.95043829 16.7230439,1.94359222 L26.7243883,1.65477696 C26.980045,1.6473942 27.2274418,1.74571004 27.4082937,1.92656198 L28.2900266,2.80829486 Z M24.1812233,10.8284042 C23.7911997,11.2030393 23.1715074,11.1903706 22.7971019,10.8001079 C22.4226963,10.4098451 22.4353573,9.78977289 22.8253809,9.41513779 L32.3431516,0.272894164 C32.7331752,-0.101740932 33.3528675,-0.0890722133 33.7272731,0.301190538 C34.1016786,0.69145329 34.0890176,1.31152551 33.698994,1.68616061 L24.1812233,10.8284042 Z" id="Shape"></path>
        </g>
        <g id="Atoms/Icons/Promo" transform="translate(187.000000, 58.000000)" fill="#3883F2">
            <path d="M19.955857,1.98902116 L16.4890201,5.31925497 C15.9646207,5.32338106 15.446608,5.52182704 15.0521327,5.91630234 C14.2392611,6.72917394 14.2587765,8.06661464 15.0957216,8.90355975 C15.9326667,9.74050485 17.2701074,9.76002028 18.082979,8.94714867 C18.5812118,8.44891591 18.7667315,7.75361187 18.6429824,7.09727471 L21.9180703,3.95123449 L22.5518798,4.58504396 C22.732738,4.76590213 22.8310541,5.0133094 22.8236641,5.26897471 L22.6253882,12.1285476 C22.618536,12.3656103 22.5213026,12.591082 22.353604,12.7587806 L11.4971269,23.6152577 C11.1342305,23.9781541 10.5458594,23.9781541 10.1829631,23.6152577 L0.384023622,13.8163183 C0.0211273135,13.453422 0.0211273135,12.8650508 0.384023622,12.5021545 L11.2405007,1.6456774 C11.4081994,1.47797876 11.6336711,1.38074542 11.8707338,1.37389312 L18.7303067,1.17561732 C18.985972,1.16822732 19.2333792,1.26654342 19.4142374,1.4474016 L19.955857,1.98902116 Z M17.0454305,7.67010116 C16.7691795,7.93546705 16.3302559,7.92649339 16.0650671,7.65005794 C15.7998784,7.37362249 15.808846,6.93440573 16.085097,6.66903985 L22.8264661,0.193299566 C23.1027171,-0.0720663194 23.5416407,-0.0630926656 23.8068294,0.213342783 C24.0720182,0.489778232 24.0630506,0.928994995 23.7867996,1.19436088 L17.0454305,7.67010116 Z" id="Shape"></path>
        </g>
        <g id="Atoms/Icons/Promo" transform="translate(89.000000, 86.000000)" fill="#3883F2">
            <path d="M19.955857,1.98902116 L16.4890201,5.31925497 C15.9646207,5.32338106 15.446608,5.52182704 15.0521327,5.91630234 C14.2392611,6.72917394 14.2587765,8.06661464 15.0957216,8.90355975 C15.9326667,9.74050485 17.2701074,9.76002028 18.082979,8.94714867 C18.5812118,8.44891591 18.7667315,7.75361187 18.6429824,7.09727471 L21.9180703,3.95123449 L22.5518798,4.58504396 C22.732738,4.76590213 22.8310541,5.0133094 22.8236641,5.26897471 L22.6253882,12.1285476 C22.618536,12.3656103 22.5213026,12.591082 22.353604,12.7587806 L11.4971269,23.6152577 C11.1342305,23.9781541 10.5458594,23.9781541 10.1829631,23.6152577 L0.384023622,13.8163183 C0.0211273135,13.453422 0.0211273135,12.8650508 0.384023622,12.5021545 L11.2405007,1.6456774 C11.4081994,1.47797876 11.6336711,1.38074542 11.8707338,1.37389312 L18.7303067,1.17561732 C18.985972,1.16822732 19.2333792,1.26654342 19.4142374,1.4474016 L19.955857,1.98902116 Z M17.0454305,7.67010116 C16.7691795,7.93546705 16.3302559,7.92649339 16.0650671,7.65005794 C15.7998784,7.37362249 15.808846,6.93440573 16.085097,6.66903985 L22.8264661,0.193299566 C23.1027171,-0.0720663194 23.5416407,-0.0630926656 23.8068294,0.213342783 C24.0720182,0.489778232 24.0630506,0.928994995 23.7867996,1.19436088 L17.0454305,7.67010116 Z" id="Shape"></path>
        </g>
        <g id="Atoms/Icons/Promo" transform="translate(48.000000, 110.000000)" fill="#3883F2">
            <path d="M13.2913509,1.33219562 L10.9692104,3.56290436 C10.6180073,3.56570105 10.2710876,3.69862487 10.0068933,3.96281923 C9.4624251,4.50728741 9.47548303,5.40310269 10.036059,5.96367864 C10.5966349,6.52425459 11.4924502,6.53731252 12.0369184,5.99284433 C12.3706543,5.65910839 12.4949182,5.19336534 12.4120148,4.75373513 L14.6056383,2.64648312 L14.9366488,2.97749355 C15.1175104,3.15835515 15.2158266,3.40576821 15.2084327,3.66143825 L15.0829088,8.00181898 C15.0760531,8.23887673 14.9788202,8.46434283 14.8111249,8.63203806 L7.84254115,15.6006218 C7.47964484,15.9635182 6.89127368,15.9635182 6.52837737,15.6006218 L0.399115772,9.47136025 C0.0362194634,9.10846394 0.0362194634,8.52009278 0.399115772,8.15719647 L7.36769956,1.18861268 C7.53539479,1.02091745 7.76086089,0.923684519 7.99791864,0.916828807 L12.3382994,0.791304962 C12.5939694,0.783910983 12.8413825,0.882227234 13.0222441,1.06308884 L13.2913509,1.33219562 Z M11.3419114,5.13749778 C11.1568818,5.31524207 10.8628959,5.30923144 10.6852756,5.12407267 C10.5076553,4.9389139 10.5136617,4.64472284 10.6986914,4.46697856 L15.2139809,0.129473663 C15.3990105,-0.0482706223 15.6929963,-0.0422599941 15.8706166,0.142898777 C16.048237,0.328057548 16.0422305,0.622248602 15.8572009,0.799992888 L11.3419114,5.13749778 Z" id="Shape"></path>
        </g>
        <g id="Atoms/Icons/Promo" transform="translate(0.000000, 83.000000)" fill="#3883F2">
            <path d="M15.7834791,1.5819823 L13.0259373,4.23094892 C12.6088837,4.23426999 12.1969166,4.39211703 11.8831858,4.70584783 C11.2366298,5.3524038 11.2521361,6.41618444 11.91782,7.08186838 C12.583504,7.74755233 13.6472846,7.76305861 14.2938406,7.11650264 C14.690152,6.72019121 14.8377154,6.16712135 14.7392676,5.64506046 L17.3441955,3.1426987 L17.790402,3.58890519 C17.9712636,3.7697668 18.0695799,4.01717985 18.0621859,4.27284989 L17.9089527,9.57136814 C17.902097,9.80842589 17.8048641,10.033892 17.6371688,10.2015872 L9.18981476,18.6489413 C8.82691846,19.0118376 8.23854729,19.0118376 7.87565098,18.6489413 L0.350747124,11.1240374 C-0.0121491842,10.7611411 -0.0121491842,10.17277 0.350747124,9.80987366 L8.7981012,1.36251958 C8.96579643,1.19482435 9.19126253,1.09759142 9.42832029,1.09073571 L14.7268385,0.937502518 C14.9825086,0.930108538 15.2299216,1.02842479 15.4107832,1.20928639 L15.7834791,1.5819823 Z M13.4685198,6.10077862 C13.2487971,6.31184996 12.8996889,6.30471233 12.6887648,6.08483629 C12.4778407,5.86496025 12.4849733,5.51560838 12.704696,5.30453704 L18.0666023,0.153749975 C18.2863249,-0.057321364 18.6354331,-0.0501837429 18.8463573,0.169692298 C19.0572814,0.389568339 19.0501487,0.738920215 18.8304261,0.949991554 L13.4685198,6.10077862 Z" id="Shape"></path>
        </g>
        <g id="Atoms/Icons/Promo" transform="translate(33.000000, 79.000000)" fill="#3883F2">
            <path d="M19.955857,1.98902116 L16.4890201,5.31925497 C15.9646207,5.32338106 15.446608,5.52182704 15.0521327,5.91630234 C14.2392611,6.72917394 14.2587765,8.06661464 15.0957216,8.90355975 C15.9326667,9.74050485 17.2701074,9.76002028 18.082979,8.94714867 C18.5812118,8.44891591 18.7667315,7.75361187 18.6429824,7.09727471 L21.9180703,3.95123449 L22.5518798,4.58504396 C22.732738,4.76590213 22.8310541,5.0133094 22.8236641,5.26897471 L22.6253882,12.1285476 C22.618536,12.3656103 22.5213026,12.591082 22.353604,12.7587806 L11.4971269,23.6152577 C11.1342305,23.9781541 10.5458594,23.9781541 10.1829631,23.6152577 L0.384023622,13.8163183 C0.0211273135,13.453422 0.0211273135,12.8650508 0.384023622,12.5021545 L11.2405007,1.6456774 C11.4081994,1.47797876 11.6336711,1.38074542 11.8707338,1.37389312 L18.7303067,1.17561732 C18.985972,1.16822732 19.2333792,1.26654342 19.4142374,1.4474016 L19.955857,1.98902116 Z M17.0454305,7.67010116 C16.7691795,7.93546705 16.3302559,7.92649339 16.0650671,7.65005794 C15.7998784,7.37362249 15.808846,6.93440573 16.085097,6.66903985 L22.8264661,0.193299566 C23.1027171,-0.0720663194 23.5416407,-0.0630926656 23.8068294,0.213342783 C24.0720182,0.489778232 24.0630506,0.928994995 23.7867996,1.19436088 L17.0454305,7.67010116 Z" id="Shape"></path>
        </g>
    </g>
</svg>