<?xml version="1.0" encoding="UTF-8"?>
<svg width="400px" height="170px" viewBox="0 0 400 170" version="1.1" xmlns="http://www.w3.org/2000/svg" xmlns:xlink="http://www.w3.org/1999/xlink">
    <!-- Generator: Sketch 52.5 (67469) - http://www.bohemiancoding.com/sketch -->
    <title>Atoms/Illustrations/art-car-large</title>
    <desc>Created with Sketch.</desc>
    <g id="Atoms/Illustrations/art-car-large" stroke="none" stroke-width="1" fill="none" fill-rule="evenodd">
        <path d="M362.946811,129.60556 C363.024885,128.61088 363.064658,127.605437 363.064658,126.590705 C363.064658,105.603884 346.051479,88.590705 325.064658,88.590705 C304.077838,88.590705 287.064658,105.603884 287.064658,126.590705 C287.064658,128.558725 287.214265,130.491803 287.502726,132.379186 C287.316547,132.38298 287.16984,132.384927 287.064658,132.384927 C284.388994,132.384927 228.689692,132.384927 119.966752,132.384927 L119.627653,132.37223 C119.915419,130.487054 120.064658,128.556308 120.064658,126.590705 C120.064658,105.603884 103.051479,88.590705 82.0646585,88.590705 C61.077838,88.590705 44.0646585,105.603884 44.0646585,126.590705 C44.0646585,127.589657 44.1032047,128.579607 44.1788909,129.559147 L26.8700811,129.559147 C23.0372603,128.165883 21.0939943,123.889946 21.0402833,116.731336 C20.9882184,109.79213 20.9866227,101.103745 21.0354961,90.6661808 L21.0355274,90.666181 C21.0381048,90.1157472 21.4850453,89.6708945 22.0354851,89.6708945 L24.8700811,89.6708945 C27.2709397,77.0097094 30.9656528,69.6590492 35.9542203,67.6189138 C43.4370715,64.5587107 87.6151106,58.1767624 90.4225045,57.9171409 C92.2941003,57.74406 103.65336,55.6813528 124.500284,51.7290194 C135.821369,35.0986002 148.275725,24.7416215 161.863352,20.6580833 C175.45098,16.5745451 225.711065,14.7013779 312.643608,15.0385817 L342.938841,15.0385817 C358.282973,49.9938853 367.083828,69.7746391 369.341408,74.3808433 C371.598987,78.9870474 373.22726,87.7659982 374.226227,100.717696 L378.099663,100.71765 C378.63935,100.71765 379.081685,101.145867 379.099183,101.685271 C379.377237,110.256515 378.819325,116.315572 377.425448,119.862442 C375.256806,125.380783 377.218338,129.569459 366.386449,129.559147 C365.545466,129.558347 364.381119,129.574704 362.946811,129.60556 Z M135,52.0507852 C142.283963,51.9006342 146.513435,52.1661851 147.688415,52.8474379 C148.863396,53.5286907 148.868314,56.8798775 147.703168,62.9009983 L210.746419,61.6711126 L216.013179,25 C185.168541,26.0912657 167.401766,27.0003678 162.712854,27.7273061 C158.023942,28.4542445 148.786324,36.5620708 135,52.0507852 Z M224.85073,26 L220,61.163857 L284.381391,59.5634252 L274.127192,27.46503 C273.862761,26.6372899 273.094106,26.075004 272.225155,26.0736531 L224.85073,26 Z M291.709844,25 L305,59.3222538 L352.577503,59.3222538 C345.319387,38.4204094 340.662368,27.2730174 338.606447,25.8800779 C336.550526,24.4871383 320.918325,24.193779 291.709844,25 Z M82.0646585,154.590705 C66.6006855,154.590705 54.0646585,142.054678 54.0646585,126.590705 C54.0646585,111.126732 66.6006855,98.590705 82.0646585,98.590705 C97.5286315,98.590705 110.064658,111.126732 110.064658,126.590705 C110.064658,142.054678 97.5286315,154.590705 82.0646585,154.590705 Z M326.064658,154.590705 C310.600685,154.590705 298.064658,142.054678 298.064658,126.590705 C298.064658,111.126732 310.600685,98.590705 326.064658,98.590705 C341.528631,98.590705 354.064658,111.126732 354.064658,126.590705 C354.064658,142.054678 341.528631,154.590705 326.064658,154.590705 Z" id="Shape" fill="#3883F2"></path>
    </g>
</svg>