<?xml version="1.0" encoding="UTF-8"?>
<svg width="400px" height="170px" viewBox="0 0 400 170" version="1.1" xmlns="http://www.w3.org/2000/svg" xmlns:xlink="http://www.w3.org/1999/xlink">
    <!-- Generator: Sketch 52.5 (67469) - http://www.bohemiancoding.com/sketch -->
    <title>Atoms/Illustrations/art-car-small</title>
    <desc>Created with Sketch.</desc>
    <g id="Atoms/Illustrations/art-car-small" stroke="none" stroke-width="1" fill="none" fill-rule="evenodd">
        <path d="M279.013614,133.293584 C277.513901,133.352123 276.495616,133.384927 276.064658,133.384927 C273.388994,133.384927 217.689692,133.384927 108.966752,133.384927 L106.12207,133.278414 C108.017416,128.759866 109.064658,123.797584 109.064658,118.590705 C109.064658,97.6038845 92.051479,80.590705 71.0646585,80.590705 C50.077838,80.590705 33.0646585,97.6038845 33.0646585,118.590705 C33.0646585,122.793253 33.7468678,126.836463 35.0065831,130.615631 L33.498049,130.559147 L15.8700811,130.559147 C12.0372603,129.165883 10.0939943,124.889946 10.0402833,117.731336 C9.98974494,110.995585 9.98675965,104.972654 10.0313274,99.662543 L10.0312862,99.6625427 C10.035894,99.1135294 10.4822595,98.6708945 11.0312922,98.6708945 L13.8700811,98.6708945 C16.2709397,86.0097094 19.9656528,78.6590492 24.9542203,76.6189138 C32.4370715,73.5587107 76.6151106,64.1767624 79.4225045,63.9171409 C81.2941003,63.74406 92.6533602,62.6813528 113.500284,60.7290194 C141.488035,44.0986002 162.275725,33.7416215 175.863352,29.6580833 C189.45098,25.5745451 208.044399,23.7013779 231.643608,24.0385817 L261.938841,24.0385817 C274.7509,24.2813684 286.516785,26.9667753 297.236494,32.0948023 C313.316058,39.7868429 334.252477,52.0753929 339.064658,53.4183071 C343.87684,54.7612213 375.955038,59.4715371 379.341408,66.3808433 C381.598987,70.9870474 383.22726,82.7659982 384.226227,101.717696 L388.099663,101.71765 C388.63935,101.71765 389.081685,102.145867 389.099183,102.685271 C389.377237,111.256515 388.819325,117.315572 387.425448,120.862442 C385.256806,126.380783 375.741336,130.578524 355.386449,130.559147 C353.824222,130.55766 352.058193,130.573046 350.127033,130.602725 C351.384001,126.827258 352.064658,122.78847 352.064658,118.590705 C352.064658,97.6038845 335.051479,80.590705 314.064658,80.590705 C293.077838,80.590705 276.064658,97.6038845 276.064658,118.590705 C276.064658,123.803411 277.114246,128.770974 279.013614,133.293584 Z M140.540284,58.3652915 C147.824247,58.2151405 152.053718,58.4806914 153.228699,59.1619442 C154.40368,59.843197 154.408598,63.1943838 153.243452,69.2155047 L218.286703,65.9856189 L223.553463,31.3145063 C213.241564,31.3230302 201.808122,32.2321322 189.253138,34.0418124 C176.698154,35.8514927 160.460535,43.959319 140.540284,58.3652915 Z M234.218774,31.3145063 L229.368044,66.4783633 L281.749435,63.8779315 L284.841627,37.6297002 C275.157215,33.9290353 267.967015,31.9744495 263.271026,31.7659429 C258.575037,31.5574362 248.890953,31.4069574 234.218774,31.3145063 Z M289.510647,40.2950444 L286.800803,63.6172982 L304.378306,63.6172982 C307.736049,57.9181169 309.393283,54.0310746 309.350009,51.9561713 C309.306734,49.881268 302.693613,45.9942257 289.510647,40.2950444 Z M71.0646585,146.590705 C55.6006855,146.590705 43.0646585,134.054678 43.0646585,118.590705 C43.0646585,103.126732 55.6006855,90.590705 71.0646585,90.590705 C86.5286315,90.590705 99.0646585,103.126732 99.0646585,118.590705 C99.0646585,134.054678 86.5286315,146.590705 71.0646585,146.590705 Z M315.064658,146.590705 C299.600685,146.590705 287.064658,134.054678 287.064658,118.590705 C287.064658,103.126732 299.600685,90.590705 315.064658,90.590705 C330.528631,90.590705 343.064658,103.126732 343.064658,118.590705 C343.064658,134.054678 330.528631,146.590705 315.064658,146.590705 Z" id="Shape" fill="#3883F2"></path>
    </g>
</svg>