<?xml version="1.0" encoding="UTF-8"?>
<svg width="849px" height="889px" viewBox="0 0 849 889" version="1.1" xmlns="http://www.w3.org/2000/svg" xmlns:xlink="http://www.w3.org/1999/xlink">
    <!-- Generator: Sketch 52.5 (67469) - http://www.bohemiancoding.com/sketch -->
    <title>art-wave</title>
    <desc>Created with Sketch.</desc>
    <g id="Styles" stroke="none" stroke-width="1" fill="none" fill-rule="evenodd">
        <g id="Style-Guide-1" transform="translate(-120.000000, -3943.000000)" fill="#3883F2">
            <g id="Symbols/Atoms/Illustrations/art-wave" transform="translate(120.000000, 3943.000000)">
                <path d="M781.456681,251.305227 C788.99778,306.712596 681.463027,263.504197 699.76323,313.791519 C718.063434,364.078842 872.708942,472.143138 845.8832,517.811143 C819.057458,563.479149 734.130422,495.909904 694.604908,543.168044 C655.079393,590.426184 741.693488,688.103285 714.14735,721.834827 C671.627838,773.90197 585.69127,655.579256 524.842193,799.853083 C503.854811,868.978492 482.791551,897.903505 461.652418,886.628112 C417.276406,862.958412 392.269335,760.363212 330.746207,763.494009 C269.223079,766.624806 272.067405,875.125432 219.456929,869.069107 C166.846452,863.012783 173.624061,674.453202 144.482488,629.57204 C115.340914,584.690877 97.721068,697.00167 58.016097,657.633144 C40.3694433,640.136021 23.7298207,581.439489 8.09722929,481.543549 C-6.88378711,325.935995 -1.07705832,240.781881 25.5174157,226.081205 C69.5342762,201.749926 169.184115,236.651276 200.066719,183.34035 C230.949323,130.029425 138.418253,73.321578 172.150432,32.4902745 C205.882612,-8.34102905 360.305706,100.040957 413.811921,100.040957 C467.318137,100.040957 389.942871,13.7535549 444.579768,1.89055094 C481.004366,-6.01811837 528.036186,10.8862373 585.675228,52.6036179 L585.675228,52.9735999 C711.168797,148.256439 776.429282,214.366981 781.456681,251.305227 Z"></path>
            </g>
        </g>
    </g>
</svg>