<?xml version="1.0" encoding="UTF-8"?>
<svg width="433px" height="214px" viewBox="0 0 433 214" version="1.1" xmlns="http://www.w3.org/2000/svg" xmlns:xlink="http://www.w3.org/1999/xlink">
    <!-- Generator: Sketch 52.5 (67469) - http://www.bohemiancoding.com/sketch -->
    <title>Atoms/Illustrations/art-car-side</title>
    <desc>Created with Sketch.</desc>
    <g id="Atoms/Illustrations/art-car-side" stroke="none" stroke-width="1" fill="none" fill-rule="evenodd">
        <path d="M193.140247,83.3760919 L209.243939,83.3760919 L273.618155,83.3760919 L273.618155,68.4427585 C273.618155,67.8904738 274.06587,67.4427585 274.618155,67.4427585 L283.066638,67.4427585 C278.121146,61.4825901 272.927152,56.910266 267.484658,53.7257865 C250.052714,43.5261131 223.647224,33.355195 180.644281,37.1410177 L193.140247,83.3760919 Z M177.206914,83.3760919 L165.224738,39.0420394 C133.603646,44.3251828 112.441025,58.8209058 101.736874,82.5292082 L101.736887,82.5292141 C101.600533,82.8312221 101.734821,83.1865852 102.036829,83.3229399 C102.114423,83.3579732 102.198585,83.3760919 102.283721,83.3760919 L177.206914,83.3760919 Z M161.925874,184.636684 C161.984161,183.670131 162.013725,182.695831 162.013725,181.714625 C162.013725,155.315414 140.612936,133.914625 114.213725,133.914625 C87.8145138,133.914625 66.4137249,155.315414 66.4137249,181.714625 C66.4137249,182.228703 66.4218402,182.740886 66.4379497,183.251052 C29.0654308,182.132037 9.89229572,180.386467 8.91854445,178.014342 C6.40745296,171.897152 4.43587216,163.065274 3.00380206,151.518708 C3.00126977,151.498291 3,151.477736 3,151.457162 C3,151.181 3.22387376,150.957126 3.50003603,150.957126 L11.4742594,150.957162 C13.2373493,122.835673 16.1111115,104.88353 20.095546,97.1007346 C26.0721977,85.426541 66.7541373,77.4678348 75.2472246,75.1988023 C83.7403119,72.9297698 95.8004098,54.2563929 123.542264,37.7714855 C151.284118,21.2865781 215.778716,18.8533212 251.750214,29.2028442 C275.731213,36.1025262 301.797482,53.602022 329.949021,81.7013316 C370.07937,91.2606968 395.615887,100.210062 406.55857,108.549426 C417.501254,116.88879 424.022106,129.30871 426.121127,145.809186 L431.770392,145.809186 C432.383428,145.809186 432.880392,146.30615 432.880392,146.919186 L432.880392,176.27254 C432.880392,177.270963 432.144057,178.116448 431.155098,178.253584 L391.479445,183.755305 C383.905621,183.826958 376.444245,183.894738 369.095315,183.958648 C369.129684,183.214951 369.147058,182.466817 369.147058,181.714625 C369.147058,155.315414 347.746269,133.914625 321.347058,133.914625 C294.947847,133.914625 273.547058,155.315414 273.547058,181.714625 C273.547058,182.683462 273.575882,183.645567 273.632664,184.600129 C231.326949,184.786864 194.091352,184.799049 161.925874,184.636684 Z M321.347058,213.581292 C303.747584,213.581292 289.480392,199.314099 289.480392,181.714625 C289.480392,164.115151 303.747584,149.847959 321.347058,149.847959 C338.946532,149.847959 353.213725,164.115151 353.213725,181.714625 C353.213725,199.314099 338.946532,213.581292 321.347058,213.581292 Z M114.213725,213.581292 C96.6142508,213.581292 82.3470582,199.314099 82.3470582,181.714625 C82.3470582,164.115151 96.6142508,149.847959 114.213725,149.847959 C131.813199,149.847959 146.080392,164.115151 146.080392,181.714625 C146.080392,199.314099 131.813199,213.581292 114.213725,213.581292 Z M33.2528448,76.6860814 C28.6681871,66.4260381 28.7340835,66.492162 18.5104267,61.8916735 C17.8298578,61.585986 17.8298578,60.6114716 18.5104267,60.3068681 C28.7340835,55.7052956 28.6681871,55.7714195 33.2528448,45.5113762 C33.5574803,44.8295413 34.5286413,44.8295413 34.8332769,45.5113762 C39.4179345,55.7714195 39.3520382,55.7052956 49.5767753,60.3068681 C50.2562639,60.6114716 50.2562639,61.585986 49.5767753,61.8916735 C39.3520382,66.493246 39.4179345,66.4260381 34.8332769,76.6860814 C34.5286413,77.3679163 33.5574803,77.3679163 33.2528448,76.6860814 Z M48.1223243,35.9243189 C45.6809387,30.4441763 45.7160293,30.4794947 40.2718084,28.0222601 C39.9093972,27.8589849 39.9093972,27.3384727 40.2718084,27.1757764 C45.7160293,24.7179629 45.6809387,24.7532813 48.1223243,19.2731386 C48.2845465,18.9089538 48.8017014,18.9089538 48.9639236,19.2731386 C51.4053092,24.7532813 51.3702186,24.7179629 56.8150148,27.1757764 C57.1768507,27.3384727 57.1768507,27.8589849 56.8150148,28.0222601 C51.3702186,30.4800737 51.4053092,30.4441763 48.9639236,35.9243189 C48.8017014,36.2885038 48.2845465,36.2885038 48.1223243,35.9243189 Z M68.9745325,59.3598148 C65.6758381,51.9677119 65.723251,52.0153525 58.3672557,48.7008164 C57.8775814,48.4805762 57.8775814,47.7784631 58.3672557,47.559004 C65.723251,44.2436868 65.6758381,44.2913274 68.9745325,36.8992246 C69.19372,36.4079797 69.8924774,36.4079797 70.1116649,36.8992246 C73.4103593,44.2913274 73.3629464,44.2436868 80.719719,47.559004 C81.208616,47.7784631 81.208616,48.4805762 80.719719,48.7008164 C73.3629464,52.0161335 73.4103593,51.9677119 70.1116649,59.3598148 C69.8924774,59.8510597 69.19372,59.8510597 68.9745325,59.3598148 Z M80.7454842,29.0037314 C79.0185226,25.1168891 79.0433446,25.141939 75.1922689,23.3991224 C74.9359104,23.2833179 74.9359104,22.9141397 75.1922689,22.7987459 C79.0433446,21.0555186 79.0185226,21.0805685 80.7454842,17.1937261 C80.8602352,16.9354246 81.2260548,16.9354246 81.3408058,17.1937261 C83.0677675,21.0805685 83.0429454,21.0555186 86.894428,22.7987459 C87.1503797,22.9141397 87.1503797,23.2833179 86.894428,23.3991224 C83.0429454,25.1423496 83.0677675,25.1168891 81.3408058,29.0037314 C81.2260548,29.262033 80.8602352,29.262033 80.7454842,29.0037314 Z M17.7454842,42.0037314 C16.0185226,38.1168891 16.0433446,38.141939 12.1922689,36.3991224 C11.9359104,36.2833179 11.9359104,35.9141397 12.1922689,35.7987459 C16.0433446,34.0555186 16.0185226,34.0805685 17.7454842,30.1937261 C17.8602352,29.9354246 18.2260548,29.9354246 18.3408058,30.1937261 C20.0677675,34.0805685 20.0429454,34.0555186 23.894428,35.7987459 C24.1503797,35.9141397 24.1503797,36.2833179 23.894428,36.3991224 C20.0429454,38.1423496 20.0677675,38.1168891 18.3408058,42.0037314 C18.2260548,42.262033 17.8602352,42.262033 17.7454842,42.0037314 Z M5.74548421,89.0037314 C4.01852256,85.1168891 4.04334458,85.141939 0.192268939,83.3991224 C-0.0640896464,83.2833179 -0.0640896464,82.9141397 0.192268939,82.7987459 C4.04334458,81.0555186 4.01852256,81.0805685 5.74548421,77.1937261 C5.86023519,76.9354246 6.22605482,76.9354246 6.34080581,77.1937261 C8.06776746,81.0805685 8.04294543,81.0555186 11.894428,82.7987459 C12.1503797,82.9141397 12.1503797,83.2833179 11.894428,83.3991224 C8.04294543,85.1423496 8.06776746,85.1168891 6.34080581,89.0037314 C6.22605482,89.262033 5.86023519,89.262033 5.74548421,89.0037314 Z M62.7454842,12.0037314 C61.0185226,8.11688905 61.0433446,8.14193896 57.1922689,6.39912236 C56.9359104,6.28331787 56.9359104,5.91413971 57.1922689,5.79874586 C61.0433446,4.05551861 61.0185226,4.08056852 62.7454842,0.193726138 C62.8602352,-0.0645753793 63.2260548,-0.0645753793 63.3408058,0.193726138 C65.0677675,4.08056852 65.0429454,4.05551861 68.894428,5.79874586 C69.1503797,5.91413971 69.1503797,6.28331787 68.894428,6.39912236 C65.0429454,8.14234961 65.0677675,8.11688905 63.3408058,12.0037314 C63.2260548,12.262033 62.8602352,12.262033 62.7454842,12.0037314 Z" id="Combined-Shape" fill="#3883F2"></path>
    </g>
</svg>