<?xml version="1.0" encoding="UTF-8"?>
<svg width="276px" height="233px" viewBox="0 0 276 233" version="1.1" xmlns="http://www.w3.org/2000/svg" xmlns:xlink="http://www.w3.org/1999/xlink">
    <!-- Generator: Sketch 52.5 (67469) - http://www.bohemiancoding.com/sketch -->
    <title>Atoms/Illustrations/art-car-front</title>
    <desc>Created with Sketch.</desc>
    <g id="Atoms/Illustrations/art-car-front" stroke="none" stroke-width="1" fill="none" fill-rule="evenodd">
        <path d="M185.692771,151.020109 C177.113916,151.020109 170.172255,144.047766 170.172255,135.452087 C170.172255,126.848896 177.113916,119.875975 185.692771,119.875975 C194.271337,119.875975 201.230067,126.848896 201.230067,135.452087 C201.230067,144.047766 194.271337,151.020109 185.692771,151.020109 Z M36.7577899,93.2037448 C33.4159912,93.42851 34.8634,90.8026865 34.8634,90.8026865 L48.4374503,54.5816915 C49.057727,51.5236718 54.0697019,50.6517678 54.0697019,50.6517678 C98.0986453,43.017841 156.923966,50.2207271 156.923966,50.2207271 C164.228419,50.6893249 165.898595,54.8064567 165.898595,54.8064567 L179.868708,91.6748794 C181.746608,96.0263101 175.717714,94.2917469 175.717714,94.2917469 C132.515903,89.0577229 36.7577899,93.2037448 36.7577899,93.2037448 Z M59.4247962,133.678522 C60.5800038,131.860466 62.1781421,130.789509 63.9417648,130.789509 L150.707312,130.789509 C152.479903,130.789509 154.08267,131.860466 155.239903,133.678522 L59.4247962,133.678522 Z M157.184633,144.078967 L57.6626201,144.078967 L57.6626201,140.711245 C57.6626201,140.483591 57.5755384,140.258248 57.5843542,140.034349 L157.081928,140.034349 C157.091765,140.258248 157.184633,140.483591 157.184633,140.711245 L157.184633,144.078967 Z M57.6626201,154.479412 L157.184633,154.479412 L157.184633,150.434795 L57.6626201,150.434795 L57.6626201,154.479412 Z M157.184633,164.41126 C157.184633,164.568422 157.095236,164.724429 157.090608,164.879857 L57.5762352,164.879857 C57.5717774,164.724429 57.6626201,164.568422 57.6626201,164.41126 L57.6626201,160.83524 L157.184633,160.83524 L157.184633,164.41126 Z M150.707312,174.413599 L63.9417648,174.413599 C62.114205,174.413599 60.4651484,173.167279 59.3018403,171.235685 L155.363148,171.235685 C154.197815,173.167279 152.54413,174.413599 150.707312,174.413599 Z M27.1651987,151.020109 C18.5863434,151.020109 11.6276138,144.047766 11.6276138,135.452087 C11.6276138,126.848896 18.5863434,119.875975 27.1651987,119.875975 C35.7440541,119.875975 42.7024943,126.848896 42.7024943,135.452087 C42.7024943,144.047766 35.7440541,151.020109 27.1651987,151.020109 Z M213.023425,121.30257 C212.696218,119.661322 212.075941,117.006897 211.559526,115.759421 C210.663828,113.599885 208.949966,109.151961 202.273312,103.609101 C206.431249,102.103059 209.407073,98.1101548 209.407073,93.4215763 C209.407073,87.4410315 204.566947,82.582579 198.60662,82.582579 C192.996067,82.582579 188.364532,86.8877855 187.840306,92.3815318 L172.973916,49.1324361 C172.973916,49.1324361 171.61301,43.7302715 163.723865,42.2580307 C163.723865,42.2580307 142.810935,39.6948988 116.154947,39.1667873 C113.148746,39.1029401 110.16974,39.0731833 107.234419,39.0723165 C107.13345,39.0720276 107.032482,39.0720276 106.931513,39.0717387 C106.830255,39.0720276 106.729576,39.0720276 106.628318,39.0723165 C103.692997,39.0731833 100.713991,39.1029401 97.7077899,39.1667873 C71.0518025,39.6948988 50.1388717,42.2580307 50.1388717,42.2580307 C42.2500164,43.7302715 40.8888214,49.1324361 40.8888214,49.1324361 L26.0224314,92.3815318 C25.498205,86.8877855 20.8666704,82.582579 15.256117,82.582579 C9.29578994,82.582579 4.45595346,87.4410315 4.45595346,93.4215763 C4.45595346,98.1101548 7.43177736,102.103059 11.5897145,103.609101 C4.91277107,109.151961 3.19919874,113.599885 2.30321132,115.759421 C1.78679623,117.006897 1.16680881,119.661322 0.83931195,121.30257 C-1.43436101,132.810085 1.59701006,161.457533 1.90743774,164.393637 L8.70617987,181.347229 L8.68419245,181.347229 C8.70560126,181.347229 8.73077107,181.448055 8.75333711,181.486768 L9.38316101,183.080636 L9.68172704,183.080636 C10.770683,184.814044 12.4278403,187.46818 14.562356,190.061935 C14.5565698,190.174029 14.5557019,190.259255 14.5557019,190.373082 L14.5557019,216.839904 C14.5557019,220.378077 17.3926579,223.237911 20.9242428,223.237911 L33.3960289,223.237911 C36.9096767,223.237911 39.7255132,220.378077 39.7255132,216.839904 L39.7255132,197.40205 C44.9330604,197.873536 48.777966,198.103502 48.777966,198.103502 L95.471727,198.103502 L118.39101,198.103502 L165.084771,198.103502 C165.084771,198.103502 169.046268,197.873536 174.253815,197.40205 L174.253815,216.839904 C174.253815,220.378077 176.95335,223.237911 180.466997,223.237911 L192.938784,223.237911 C196.470079,223.237911 199.423626,220.378077 199.423626,216.839904 L199.423626,190.373082 C199.423626,190.259255 199.364608,190.146295 199.358532,190.033912 C201.493048,187.440156 203.119828,184.838312 204.209073,183.02459 L204.493752,183.023723 L205.116343,181.459612 C205.139199,181.420899 205.157136,181.347229 205.178834,181.347229 L205.156557,181.347229 L211.955299,164.393637 C212.265727,161.457533 215.296809,132.810085 213.023425,121.30257 Z" id="Fill-1" fill="#3883F2"></path>
        <path d="M274.938673,220.931959 C274.724585,220.478095 274.590925,219.913293 274.643579,219.431406 C274.817164,217.847649 274.612623,216.322539 274.13295,214.787896 C273.788962,213.689493 273.649516,213.203273 273.937377,212.868725 C273.55983,211.366727 273.515566,209.686478 273.418069,208.51585 C273.179679,205.651105 273.127314,202.788382 272.99134,199.923349 C272.986132,199.814722 272.988157,199.710428 272.994522,199.609024 C272.722862,199.26032 272.674547,198.822635 272.754396,198.25321 C273.093755,195.83164 273.387981,193.401114 273.605252,190.963943 C273.786069,188.934123 273.722132,186.870501 273.964572,184.854548 C274.335755,181.76966 274.105755,178.719152 273.548547,175.646976 C272.980925,172.51702 271.398698,169.589872 271.48983,166.310843 C271.530623,164.855647 270.985855,163.351339 270.65373,161.879387 C270.296723,160.295919 270.041843,158.723718 270.541478,157.170585 C270.605126,156.971821 270.750069,156.799347 270.860006,156.617628 C270.714774,154.564985 270.973994,152.530542 270.902824,150.447564 C270.792019,147.194536 270.579088,143.947575 270.64939,140.69888 C270.682082,139.180126 270.771767,137.671484 270.94622,136.187687 C270.717956,135.845628 270.568962,135.444055 270.540031,134.991058 C270.246673,134.33323 270.419969,133.413368 270.861742,132.799164 C271.834686,127.941867 273.48866,123.250111 274.059755,118.302099 C274.376547,115.558982 274.210195,112.657258 273.487792,109.936674 C273.117478,108.542148 272.624208,107.19789 272.160157,105.847855 C272.134987,105.929325 272.112132,106.01484 272.095642,106.109022 C271.753679,105.119535 271.493013,104.378792 271.242182,103.635449 C270.67861,101.9656 270.680057,100.141766 269.553491,98.6224345 C269.442107,98.4722059 269.44934,98.20555 269.470748,98.0038969 C269.568535,97.0554341 269.763528,96.1167939 269.784648,95.1642865 C269.806925,94.150532 270.042132,93.3658762 271.056736,92.9533252 C272.231906,92.4754825 272.759314,91.4625947 272.896447,90.2830109 C273.043704,89.018779 273.168686,87.7262348 273.071189,86.4504468 C272.695956,81.5408589 272.243189,76.6364712 271.785792,71.736417 C271.668333,70.4820077 271.413453,69.2325098 271.247969,67.9792562 C271.11778,66.9929473 271.107365,66.0493958 271.409981,65.0717539 C272.064396,62.9587301 272.662107,60.8873081 272.014346,58.4712269 C270.878811,54.2379568 269.917151,50.0087314 266.956371,46.4223112 C265.883327,45.1222555 264.998333,43.6794826 263.962031,42.3488035 C262.755327,40.799426 260.779063,40.3501846 259.281314,39.1954463 C258.603465,38.6731128 257.817994,38.2877185 257.078522,37.8451218 C256.411956,37.446727 255.728899,37.0754888 255.076509,36.6551375 C254.341667,36.1813395 253.527553,35.7601214 252.942572,35.1421616 C252.355855,34.5227574 252.038195,33.6716543 251.550421,32.9537346 C250.935931,32.0494737 250.268786,31.1772808 249.81978,30.5601877 C249.842057,29.7625314 249.904258,29.1977294 249.862308,28.6337942 C249.797792,27.7578456 249.655453,26.8827637 249.563164,26.0071039 C249.551013,25.8915434 249.600195,25.720225 249.68583,25.6630226 C250.328673,25.2363154 250.172736,24.6484013 249.978031,24.0284192 C249.881403,23.7210283 249.865491,23.3954366 249.79056,23.0816898 C249.721126,22.7907663 249.760761,22.6009581 249.876774,22.4749972 C249.806182,20.4807118 250.015063,18.4945157 249.67744,16.5008081 C249.667604,16.4438946 249.66905,16.3933369 249.664421,16.3390234 C249.20934,14.5602584 248.732849,12.7829379 248.041113,11.079865 C246.423881,7.09822787 243.372836,4.63274456 239.01817,3.89893537 C235.396031,3.28877591 231.918547,3.67185898 228.597868,4.87137699 C225.97095,5.82070652 223.569692,7.12538459 222.071075,9.50448643 C220.867264,11.4158571 220.162799,13.5124135 220.59734,15.8981601 C220.824447,17.1459246 221.072384,18.3922447 221.325528,19.6374091 C221.559289,20.7869472 221.491013,20.8973074 220.391931,21.235033 C219.438082,21.5279789 218.485101,21.8284362 217.554107,22.1762733 C217.13461,22.3331467 216.715113,22.5556006 216.391956,22.8479687 C215.965516,23.233363 215.751717,23.6623814 215.733201,24.076088 L221.180585,24.0573094 C222.53773,24.052687 223.218472,25.1889356 223.138044,26.2012456 C223.477692,26.6643543 223.928723,27.0841278 223.775679,27.7260664 C223.463805,29.0353669 223.112874,30.337156 222.880849,31.6658128 C222.702635,32.6839009 223.447314,33.4980246 224.51978,33.4795349 C225.414321,33.4639343 226.000459,33.8808188 225.953013,34.7131433 C225.908748,35.4868208 226.225252,35.9389513 226.870987,36.2596317 C226.676862,37.5692211 226.995679,37.9855278 228.299881,38.0820208 C228.824975,38.1210225 229.072623,38.2591173 229.153629,38.8380754 C229.212648,39.2595823 229.300308,39.597019 229.429918,39.8732086 C222.503881,39.1974686 215.516509,38.6635791 212.705591,38.9186789 C201.711881,36.6074688 175.095528,30.2516412 156.579805,32.5628512 L154.26534,34.8740613 C154.26534,34.8740613 152.542799,30.8294437 147.335252,33.1406537 C142.127415,35.4518638 134.618421,36.6074688 134.618421,36.6074688 L134.618421,40.6520864 L151.385566,44.696704 L157.164786,42.9632964 C157.164786,42.9632964 161.01056,38.657801 168.147503,41.9634092 C173.169604,44.2896421 191.481075,43.298133 206.917403,50.6550035 C213.652497,53.8649853 221.340283,56.0129661 226.607138,57.2503302 C226.135855,60.8471509 225.733717,64.4497495 225.801994,68.0829717 C225.844233,70.3135783 226.094195,72.5074944 226.356597,74.691299 L194.086296,74.0534051 C184.323881,73.8514631 180.851314,69.2521551 179.712019,69.3555817 C178.649969,69.4517859 179.882132,71.9897834 179.382497,72.6453003 L180.215994,72.7261927 L181.09173,77.0195542 C181.022874,77.0504667 180.986421,77.0678008 180.986421,77.0678008 L180.618132,78.3828793 C180.618132,78.3828793 181.578635,82.9530082 191.571629,82.0756151 C192.770233,81.9704551 221.612811,87.3454629 226.921327,88.5851382 C226.936082,91.1058017 226.934057,93.626754 226.984975,96.1508843 C227.01217,97.494564 226.964145,98.9376258 227.886748,100.077052 C228.651969,101.022048 229.660208,101.789659 230.596119,102.595116 C230.83422,102.799947 231.201642,102.873905 231.519881,102.969243 C232.997956,103.41184 234.478925,103.840569 235.878597,104.251098 C235.812635,105.425192 235.722082,106.496149 235.698648,107.572018 C235.661906,109.257179 235.723239,110.951007 235.643679,112.632701 C235.58061,113.968869 235.640208,115.329594 234.588862,116.437819 C234.18383,116.865104 234.268887,117.746542 234.143327,118.424015 C234.114686,118.579733 234.169075,118.755385 234.134358,118.908503 C233.974082,119.615155 233.810912,120.321519 233.646874,121.027305 C233.87456,121.60164 233.878321,122.268713 233.523918,122.952832 C233.260648,123.460142 233.050321,123.98652 232.87095,124.523877 C232.782132,124.954051 232.680006,125.378735 232.524648,125.781464 C232.51134,125.815843 232.495428,125.848778 232.479805,125.881712 C232.058862,127.573518 231.803692,129.327149 231.198459,130.960885 C230.895553,131.778187 230.52466,132.542042 230.242874,133.354721 C230.161289,133.753116 230.086358,134.152667 230.028208,134.555684 C229.913063,135.354496 230.110371,136.207043 230.029654,137.016545 C229.832346,139.007652 229.627226,141.003093 229.294522,142.971088 C229.265881,143.141251 229.234057,143.310836 229.204836,143.48071 C229.230296,144.619848 229.283818,145.758986 229.338208,146.892923 C229.484597,149.948054 229.339654,152.93876 229.091138,155.965289 C228.63461,161.52895 228.733843,167.143745 228.388119,172.722429 C228.342987,173.446126 228.286572,174.172713 228.22495,174.9019 C228.700862,177.63895 228.196597,180.59701 227.609013,183.250857 C227.579503,184.386817 227.588472,185.520465 227.659642,186.648914 C227.854925,189.742757 228.259377,192.829089 228.382623,195.924955 C228.50934,199.104602 228.526698,202.566217 227.235516,205.468808 C226.99973,205.998942 226.632597,206.531098 226.181277,207.016452 C226.189956,207.062676 226.202686,207.108323 226.20905,207.154836 C226.244057,207.39578 226.159289,207.752284 226.015503,207.944114 C224.956057,209.355108 223.683679,210.641296 222.83427,212.169006 C222.066157,213.550532 220.779314,213.935348 219.522849,214.310342 C217.873792,214.80263 216.115088,214.974237 214.400937,215.279317 C213.714119,215.401233 213.027013,215.614154 212.335566,215.608376 C209.900748,215.58873 208.41978,217.684131 207.83827,219.394715 C207.260522,221.092588 207.743956,222.799994 209.246333,223.687499 C210.086484,224.18412 210.927792,224.704432 211.826384,225.065269 C212.345981,225.273856 212.981302,225.176785 213.563101,225.23601 C215.342925,225.417151 217.12217,225.729164 218.897943,225.762677 C220.996874,225.801967 223.091755,225.61187 225.184899,225.50411 C225.57344,225.484176 225.953591,225.373816 226.340107,225.319502 C227.790698,225.11496 229.234346,224.832126 230.695063,224.750656 C231.479088,224.706743 232.379126,224.666008 233.00866,225.487643 C233.157075,225.680918 233.635881,225.655783 233.965692,225.684674 C234.298686,225.713853 234.637755,225.651739 234.969881,225.686985 C237.465742,225.951618 239.934698,225.875637 242.367201,225.383638 C243.295013,225.196142 244.060522,224.753545 244.495063,223.870663 C244.589377,223.679699 244.722748,223.476601 244.895755,223.363352 C245.544384,222.940112 245.728673,222.30164 245.724912,221.585165 C245.72144,220.873023 245.579101,220.146725 245.655478,219.449029 C245.784509,218.277534 246.069767,217.12973 246.231491,215.962857 C246.434585,214.501306 246.405075,213.070956 245.514585,211.724965 C245.327403,211.442419 245.394522,210.920375 245.492308,210.551737 C246.058774,208.414156 246.732572,206.307489 247.24783,204.159219 C247.870132,201.566619 248.727352,199.041911 248.869403,196.319305 C249.144535,191.043391 249.658057,185.793477 249.860862,180.524785 C249.934635,178.602725 250.654723,176.711288 250.035314,174.739248 C249.993075,174.605198 250.072925,174.437924 250.110535,174.190914 C250.664849,174.552907 251.154358,174.853075 251.621881,175.184156 C252.011289,175.460057 252.451038,175.716312 252.73456,176.080617 C253.439604,176.985456 254.030082,177.976098 254.741491,178.875448 C255.125113,179.360224 255.437277,179.805999 255.356849,180.358089 C255.990145,181.784972 255.965264,183.371907 255.920421,184.873327 C256.249654,185.254965 256.46056,185.76632 256.464321,186.412881 C256.483415,189.835206 257.421352,193.112501 258.166899,196.460867 C258.950925,199.98344 259.415843,203.473367 258.89856,207.008652 C258.505679,209.692833 257.783277,212.572023 256.611868,215.193513 C256.492962,215.648244 256.402698,215.896988 256.216962,216.036816 C255.592057,217.295848 254.854321,218.480054 253.989868,219.535699 C253.915226,220.072189 253.70056,220.577766 253.188195,221.017474 C253.125415,221.071209 253.306811,221.402868 253.410673,221.714304 C253.408358,221.716037 253.271226,221.870599 253.098799,221.927802 C251.437881,222.477581 250.311314,223.79237 248.919453,224.729277 C248.613365,224.935264 248.270824,225.242366 248.177377,225.574313 C247.719403,227.201116 247.183604,228.829941 247.789415,230.586172 C248.132535,231.581148 248.940283,232.268155 249.808786,232.400472 C251.982069,232.731842 254.198748,232.988097 256.373767,232.921939 C259.385755,232.830357 262.397453,232.488298 265.224572,231.453454 C266.386145,231.028191 267.760358,230.765291 268.117654,229.236137 C268.165969,229.028417 268.484497,228.79354 268.716811,228.75136 C269.383377,228.6306 270.069327,228.601421 270.747465,228.537862 C271.179113,228.497416 271.636509,228.532662 272.03778,228.406123 C272.838296,228.154201 273.60583,227.808387 274.391013,227.512263 C275.598874,227.057532 275.978447,226.476263 275.953566,225.182563 C275.924635,223.699633 275.581516,222.295862 274.938673,220.931959" id="Fill-6" fill="#3883F2"></path>
        <path d="M28.6017441,49.0365844 C22.7342281,35.8890717 22.8185632,35.9738047 9.73416834,30.0786072 C8.86316573,29.6868905 8.86316573,28.4381199 9.73416834,28.0477923 C22.8185632,22.1512057 22.7342281,22.2359388 28.6017441,9.08842604 C28.9916215,8.21470332 30.2345284,8.21470332 30.6244058,9.08842604 C36.4919218,22.2359388 36.4075866,22.1512057 49.4933641,28.0477923 C50.3629842,28.4381199 50.3629842,29.6868905 49.4933641,30.0786072 C36.4075866,35.9751938 36.4919218,35.8890717 30.6244058,49.0365844 C30.2345284,49.9103071 28.9916215,49.9103071 28.6017441,49.0365844 Z M135.517136,28.8091925 C133.114289,23.4249991 133.148826,23.4596992 127.790546,21.0454872 C127.433856,20.8850706 127.433856,20.3736718 127.790546,20.2138241 C133.148826,17.7990433 133.114289,17.8337433 135.517136,12.4495499 C135.676797,12.0917414 136.185789,12.0917414 136.34545,12.4495499 C138.748297,17.8337433 138.71376,17.7990433 144.072606,20.2138241 C144.42873,20.3736718 144.42873,20.8850706 144.072606,21.0454872 C138.71376,23.460268 138.748297,23.4249991 136.34545,28.8091925 C136.185789,29.167001 135.676797,29.167001 135.517136,28.8091925 Z M162.25747,25.1653079 C160.787419,21.871239 160.808548,21.8924686 157.530376,20.415445 C157.312154,20.3173016 157.312154,20.004426 157.530376,19.9066306 C160.808548,18.4292589 160.787419,18.4504885 162.25747,15.1564196 C162.35515,14.9375111 162.666549,14.9375111 162.764229,15.1564196 C164.23428,18.4504885 164.213151,18.4292589 167.491669,19.9066306 C167.709545,20.004426 167.709545,20.3173016 167.491669,20.415445 C164.213151,21.8928167 164.23428,21.871239 162.764229,25.1653079 C162.666549,25.3842165 162.35515,25.3842165 162.25747,25.1653079 Z M193.033767,69.2050077 C191.563716,65.9109388 191.584845,65.9321684 188.306673,64.4551448 C188.088451,64.3570014 188.088451,64.0441257 188.306673,63.9463304 C191.584845,62.4689587 191.563716,62.4901883 193.033767,59.1961194 C193.131447,58.9772109 193.442846,58.9772109 193.540526,59.1961194 C195.010577,62.4901883 194.989447,62.4689587 198.267966,63.9463304 C198.485841,64.0441257 198.485841,64.3570014 198.267966,64.4551448 C194.989447,65.9325164 195.010577,65.9109388 193.540526,69.2050077 C193.442846,69.4239163 193.131447,69.4239163 193.033767,69.2050077 Z M150.225363,13.0436429 C149.288338,10.9439309 149.301806,10.9574631 147.212267,10.0159757 C147.07317,9.95341692 147.07317,9.75398309 147.212267,9.69164615 C149.301806,8.74993693 149.288338,8.76346915 150.225363,6.66375707 C150.287625,6.52421994 150.486114,6.52421994 150.548376,6.66375707 C151.485401,8.76346915 151.471933,8.74993693 153.561693,9.69164615 C153.700569,9.75398309 153.700569,9.95341692 153.561693,10.0159757 C151.471933,10.9576849 151.485401,10.9439309 150.548376,13.0436429 C150.486114,13.1831801 150.287625,13.1831801 150.225363,13.0436429 Z M84.9423093,27.0988663 C84.0052842,24.9991542 84.0187523,25.0126864 81.9292129,24.071199 C81.7901164,24.0086403 81.7901164,23.8092064 81.9292129,23.7468695 C84.0187523,22.8051603 84.0052842,22.8186925 84.9423093,20.7189804 C85.0045715,20.5794433 85.2030601,20.5794433 85.2653224,20.7189804 C86.2023474,22.8186925 86.1888793,22.8051603 88.2786395,23.7468695 C88.4175152,23.8092064 88.4175152,24.0086403 88.2786395,24.071199 C86.1888793,25.0129082 86.2023474,24.9991542 85.2653224,27.0988663 C85.2030601,27.2384034 85.0045715,27.2384034 84.9423093,27.0988663 Z M10.333105,52.3982683 C9.39607997,50.2985562 9.40954805,50.3120884 7.32000869,49.370601 C7.18091214,49.3080423 7.18091214,49.1086084 7.32000869,49.0462715 C9.40954805,48.1045623 9.39607997,48.1180945 10.333105,46.0183824 C10.3953673,45.8788453 10.5938559,45.8788453 10.6561181,46.0183824 C11.5931432,48.1180945 11.5796751,48.1045623 13.6694352,49.0462715 C13.808311,49.1086084 13.808311,49.3080423 13.6694352,49.370601 C11.5796751,50.3123102 11.5931432,50.2985562 10.6561181,52.3982683 C10.5938559,52.5378054 10.3953673,52.5378054 10.333105,52.3982683 Z M10.333105,73.9496107 C9.39607997,71.8498986 9.40954805,71.8634309 7.32000869,70.9219435 C7.18091214,70.8593847 7.18091214,70.6599509 7.32000869,70.5976139 C9.40954805,69.6559047 9.39607997,69.6694369 10.333105,67.5697249 C10.3953673,67.4301877 10.5938559,67.4301877 10.6561181,67.5697249 C11.5931432,69.6694369 11.5796751,69.6559047 13.6694352,70.5976139 C13.808311,70.6599509 13.808311,70.8593847 13.6694352,70.9219435 C11.5796751,71.8636527 11.5931432,71.8498986 10.6561181,73.9496107 C10.5938559,74.0891478 10.3953673,74.0891478 10.333105,73.9496107 Z M187.529965,55.2093129 C186.59294,53.1096009 186.606408,53.1231331 184.516869,52.1816457 C184.377772,52.1190869 184.377772,51.9196531 184.516869,51.8573162 C186.606408,50.9156069 186.59294,50.9291392 187.529965,48.8294271 C187.592227,48.6898899 187.790716,48.6898899 187.852978,48.8294271 C188.790003,50.9291392 188.776535,50.9156069 190.866295,51.8573162 C191.005171,51.9196531 191.005171,52.1190869 190.866295,52.1816457 C188.776535,53.1233549 188.790003,53.1096009 187.852978,55.2093129 C187.790716,55.3488501 187.592227,55.3488501 187.529965,55.2093129 Z M105.841124,28.6157247 C101.705943,19.3498716 101.765378,19.4095882 92.5440409,15.2548834 C91.9301945,14.9788168 91.9301945,14.0987321 92.5440409,13.8236444 C101.765378,9.66796073 101.705943,9.72767727 105.841124,0.461824213 C106.115893,-0.153941404 106.991842,-0.153941404 107.266612,0.461824213 C111.401793,9.72767727 111.342357,9.66796073 120.564669,13.8236444 C121.177541,14.0987321 121.177541,14.9788168 120.564669,15.2548834 C111.342357,19.4105671 111.401793,19.3498716 107.266612,28.6157247 C106.991842,29.2314903 106.115893,29.2314903 105.841124,28.6157247 Z M67.1647627,22.5561186 C65.124128,17.9833122 65.1531614,18.0124826 60.6018271,15.9622207 C60.29905,15.8260922 60.29905,15.3913145 60.6018271,15.255186 C65.1531614,13.2049241 65.124128,13.2340945 67.1647627,8.66128814 C67.3016346,8.35708262 67.7329882,8.35708262 67.8684775,8.66128814 C69.9091122,13.2340945 69.8800788,13.2049241 74.4327957,15.255186 C74.7355728,15.3913145 74.7355728,15.8260922 74.4327957,15.9622207 C69.8800788,18.0124826 69.9091122,17.9833122 67.8684775,22.5561186 C67.7329882,22.8603241 67.3016346,22.8603241 67.1647627,22.5561186 Z M21.5586907,63.8443603 C20.0509531,60.4658251 20.0724046,60.4873771 16.7096186,58.9725782 C16.4859095,58.8720021 16.4859095,58.5507744 16.7096186,58.4501983 C20.0724046,56.9353994 20.0509531,56.9569514 21.5586907,53.5784162 C21.6598194,53.3536595 21.9785282,53.3536595 22.0786354,53.5784162 C23.586373,56.9569514 23.5649215,56.9353994 26.928729,58.4501983 C27.1524381,58.5507744 27.1524381,58.8720021 26.928729,58.9725782 C23.5649215,60.4873771 23.586373,60.4658251 22.0786354,63.8443603 C21.9785282,64.069117 21.6598194,64.069117 21.5586907,63.8443603 Z" id="Combined-Shape" fill="#3883F2"></path>
    </g>
</svg>