<?xml version="1.0" encoding="UTF-8"?>
<svg width="169px" height="155px" viewBox="0 0 169 155" version="1.1" xmlns="http://www.w3.org/2000/svg" xmlns:xlink="http://www.w3.org/1999/xlink">
    <!-- Generator: Sketch 52.5 (67469) - http://www.bohemiancoding.com/sketch -->
    <title>logo-alpha</title>
    <desc>Created with Sketch.</desc>
    <g id="Styles" stroke="none" stroke-width="1" fill="none" fill-rule="evenodd">
        <g id="Style-Guide-Light-Mode" transform="translate(-126.000000, -1929.000000)" fill="#FFFFFF">
            <g id="Atoms/Illustrations/logo-alpha" transform="translate(120.000000, 1916.000000)">
                <g id="Group" transform="translate(6.000000, 13.000000)">
                    <path d="M30.295301,21.9026186 C42.3364744,21.9026186 48.3569709,28.906773 48.3569709,42.9152921 L48.3569709,68.6322955 C48.3569709,70.583731 47.7794233,72.1169788 46.6243107,73.2320848 C45.4691981,74.3471908 43.8765668,74.9047354 41.8463689,74.9047354 C39.8161711,74.9047354 38.2060383,74.3471908 37.0159223,73.2320848 C35.8258063,72.1169788 35.2307573,70.583731 35.2307573,68.6322955 L35.2307573,42.9152921 C35.2307573,39.2215035 34.4781952,36.5208967 32.9730485,34.8133906 C31.4679019,33.1058846 29.105207,32.2521443 25.8848932,32.2521443 C22.1045248,32.2521443 19.0767751,33.4369267 16.8015534,35.8065269 C14.5263317,38.1761272 13.3887379,41.3471623 13.3887379,45.3197274 L13.3887379,68.6322955 C13.3887379,70.583731 12.7936888,72.1169788 11.6035728,73.2320848 C10.4134568,74.3471908 8.80332407,74.9047354 6.77312621,74.9047354 C4.74292836,74.9047354 3.15029704,74.3471908 1.99518447,73.2320848 C0.840071894,72.1169788 0.262524272,70.583731 0.262524272,68.6322955 L0.262524272,6.11697824 C0.262524272,4.30493099 0.875074781,2.84137633 2.10019417,1.72627033 C3.32531357,0.611164337 4.91794489,0.0536197022 6.87813592,0.0536197022 C8.83832695,0.0536197022 10.4134568,0.576317797 11.6035728,1.62172967 C12.7936888,2.66714154 13.3887379,4.09584966 13.3887379,5.90789691 L13.3887379,30.2658717 C15.1389084,27.5478008 17.4666004,25.4744317 20.3718835,24.0457022 C23.2771666,22.6169726 26.5849394,21.9026186 30.295301,21.9026186 Z M98.9453981,22.1116999 C100.975596,22.1116999 102.585729,22.6692445 103.775845,23.7843505 C104.965961,24.8994565 105.56101,26.3978577 105.56101,28.2795991 L105.56101,68.8413769 C105.56101,70.6534241 104.948459,72.1169788 103.72334,73.2320848 C102.49822,74.3471908 100.905589,74.9047354 98.9453981,74.9047354 C97.0552139,74.9047354 95.5500897,74.3820373 94.4299806,73.3366254 C93.3098714,72.2912136 92.7498252,70.8625054 92.7498252,69.0504582 L92.7498252,66.4369416 C91.1396683,69.2247066 88.9694894,71.3677688 86.2392233,72.8661924 C83.5089572,74.3646161 80.4287032,75.1138167 76.9983689,75.1138167 C64.3971409,75.1138167 58.0966214,68.0748157 58.0966214,53.9966025 L58.0966214,28.2795991 C58.0966214,26.3978577 58.6916704,24.8994565 59.8817864,23.7843505 C61.0719024,22.6692445 62.6470323,22.1116999 64.6072233,22.1116999 C66.6374212,22.1116999 68.2475539,22.6692445 69.4376699,23.7843505 C70.6277859,24.8994565 71.222835,26.3978577 71.222835,28.2795991 L71.222835,54.1011432 C71.222835,57.7252377 71.9578956,60.4084212 73.4280388,62.1507743 C74.8981821,63.8931275 77.2083726,64.764291 80.3586796,64.764291 C83.9990344,64.764291 86.9217754,63.5620853 89.1269903,61.157638 C91.3322052,58.7531907 92.4347961,55.5647323 92.4347961,51.5921672 L92.4347961,28.2795991 C92.4347961,26.3978577 93.0298452,24.8994565 94.2199612,23.7843505 C95.4100771,22.6692445 96.985207,22.1116999 98.9453981,22.1116999 Z M145.438447,21.9026186 C149.918883,21.9026186 153.874209,22.9828613 157.304544,25.1433792 C160.734878,27.303897 163.412599,30.3703925 165.337786,34.3429576 C167.262974,38.3155227 168.225553,42.9501125 168.225553,48.246866 C168.225553,53.5436195 167.262974,58.230479 165.337786,62.3075853 C163.412599,66.3846916 160.717377,69.5383035 157.252039,71.7685155 C153.786701,73.9987275 149.848876,75.1138167 145.438447,75.1138167 C141.728085,75.1138167 138.420312,74.3123463 135.515029,72.7093814 C132.609746,71.1064166 130.387063,68.876238 128.846913,66.0187789 L128.846913,68.6322955 C128.846913,70.5140369 128.251864,72.0124381 127.061748,73.1275441 C125.871632,74.2426501 124.296502,74.8001947 122.336311,74.8001947 C120.37612,74.8001947 118.818491,74.2426501 117.663379,73.1275441 C116.508266,72.0124381 115.930718,70.5140369 115.930718,68.6322955 L115.930718,6.11697824 C115.930718,4.30493099 116.543269,2.84137633 117.768388,1.72627033 C118.993508,0.611164337 120.586139,0.0536197022 122.54633,0.0536197022 C124.506521,0.0536197022 126.081651,0.576317797 127.271767,1.62172967 C128.461883,2.66714154 129.056932,4.09584966 129.056932,5.90789691 L129.056932,30.5794937 C130.597082,27.7917287 132.802264,25.6486665 135.672544,24.1502428 C138.542823,22.6518192 141.798092,21.9026186 145.438447,21.9026186 Z M141.973126,64.9733723 C146.103529,64.9733723 149.323794,63.5098176 151.634019,60.5826644 C153.944245,57.6555111 155.09934,53.5436195 155.09934,48.246866 C155.09934,43.0198066 153.961746,39.0124546 151.686524,36.2246896 C149.411303,33.4369246 146.173536,32.043063 141.973126,32.043063 C137.772717,32.043063 134.53495,33.4543479 132.259728,36.2769599 C129.984506,39.099572 128.846913,43.1591938 128.846913,48.4559473 C128.846913,53.7527008 129.984506,57.8297459 132.259728,60.687205 C134.53495,63.5446642 137.772717,64.9733723 141.973126,64.9733723 Z M142,38.025552 C142.957852,37.3780892 144.112727,37 145.355909,37 C148.669618,37 151.355909,39.6862915 151.355909,43 C151.355909,44.8542309 150.5148,46.5120104 149.19331,47.6126115 C149.299921,47.0917278 149.355909,46.5524023 149.355909,46 C149.355909,41.7985416 146.117096,38.3535487 142,38.025552 Z" id="Combined-Shape"></path>
                    <path d="M28.2344854,136.234951 C23.1239874,136.234951 18.6261165,135.154708 14.7407379,132.99419 C10.8553592,130.833672 7.86261244,127.767177 5.76240777,123.794612 C3.66220309,119.822047 2.6121165,115.187457 2.6121165,109.890703 C2.6121165,104.59395 3.71470742,99.9070903 5.91992233,95.829984 C8.12513724,91.7528777 11.2228927,88.5992658 15.2132816,86.3690538 C19.2036704,84.1388418 23.7890485,83.0237526 28.9695534,83.0237526 C31.6998195,83.0237526 34.447546,83.4070645 37.2128155,84.1736999 C39.978085,84.9403353 42.4107856,85.9857314 44.5109903,87.3099198 C46.7512086,88.7734964 47.871301,90.620363 47.871301,92.850575 C47.871301,94.3838458 47.5037707,95.6208979 46.768699,96.5617686 C46.0336274,97.5026393 45.071048,97.9730676 43.880932,97.9730676 C43.110857,97.9730676 42.3057906,97.7988349 41.4657087,97.4503643 C40.6256269,97.1018936 39.7855576,96.6837352 38.9454757,96.1958763 C37.4053256,95.2898527 35.9352044,94.5754986 34.535068,94.0527927 C33.1349315,93.5300867 31.5247987,93.2687377 29.7046214,93.2687377 C25.3641984,93.2687377 22.0214227,94.6800225 19.6761942,97.5026346 C17.3309656,100.325247 16.1583689,104.384869 16.1583689,109.681622 C16.1583689,114.908681 17.3309656,118.933457 19.6761942,121.756069 C22.0214227,124.578681 25.3641984,125.989966 29.7046214,125.989966 C31.4547919,125.989966 33.0124204,125.728617 34.3775534,125.205911 C35.7426864,124.683205 37.265312,123.968851 38.9454757,123.062827 C39.9955781,122.43558 40.9056531,121.965152 41.6757282,121.651528 C42.4458032,121.337905 43.2158667,121.181095 43.9859417,121.181095 C45.1060509,121.181095 46.0511288,121.668947 46.8212039,122.644664 C47.5912789,123.620382 47.9763107,124.840011 47.9763107,126.303588 C47.9763107,127.488388 47.713789,128.516361 47.1887379,129.387537 C46.6636867,130.258714 45.806116,131.042761 44.616,131.739702 C42.4457885,133.133585 39.9255807,134.231251 37.055301,135.032733 C34.1850212,135.834216 31.2447788,136.234951 28.2344854,136.234951 Z M81.9732039,83.0237526 C89.1138998,83.0237526 94.416837,84.7835028 97.8821748,88.3030561 C101.347512,91.8226094 103.080155,97.1715533 103.080155,104.350048 L103.080155,129.85797 C103.080155,131.739712 102.520109,133.22069 101.4,134.300948 C100.279891,135.381207 98.7397638,135.921329 96.7795728,135.921329 C94.9593954,135.921329 93.4717728,135.363784 92.3166602,134.248678 C91.1615476,133.133572 90.584,131.670017 90.584,129.85797 L90.584,127.558076 C89.393884,130.276146 87.5212296,132.401785 84.9659806,133.935056 C82.4107316,135.468327 79.4529877,136.234951 76.0926602,136.234951 C72.6623259,136.234951 69.547069,135.53802 66.7467961,134.144137 C63.9465232,132.750255 61.7413414,130.833695 60.1311845,128.394401 C58.5210275,125.955107 57.7159612,123.237076 57.7159612,120.240229 C57.7159612,116.476746 58.6785405,113.51479 60.6037282,111.354273 C62.5289158,109.193755 65.6616741,107.62566 70.0020971,106.649943 C74.3425201,105.674225 80.3280136,105.186373 87.9587573,105.186373 L90.584,105.186373 L90.584,102.781938 C90.584,99.366926 89.8489394,96.8753984 88.3787961,95.3072806 C86.9086528,93.7391628 84.5284566,92.9551157 81.2381359,92.9551157 C79.2079381,92.9551157 77.1427678,93.2513113 75.0425631,93.8437113 C72.9423584,94.4361114 70.4571535,95.2898516 67.5868738,96.4049576 C65.7666964,97.3109812 64.4365867,97.7639863 63.5965049,97.7639863 C62.336382,97.7639863 61.3037969,97.3109812 60.4987184,96.4049576 C59.69364,95.498934 59.2911068,94.3141516 59.2911068,92.850575 C59.2911068,91.6657749 59.5886313,90.637802 60.1836893,89.7666254 C60.7787473,88.8954489 61.7763296,88.0765552 63.176466,87.3099198 C65.6267048,85.9857314 68.5494458,84.9403353 71.9447767,84.1736999 C75.3401076,83.4070645 78.6828832,83.0237526 81.9732039,83.0237526 Z M78.7179029,126.826291 C82.218244,126.826291 85.0709793,125.658932 87.2761942,123.324179 C89.4814091,120.989426 90.584,117.9752 90.584,114.281411 L90.584,112.086057 L88.6938252,112.086057 C84.0033681,112.086057 80.363068,112.295137 77.7728155,112.713301 C75.1825631,113.131466 73.3274101,113.863243 72.207301,114.908655 C71.0871918,115.954067 70.5271456,117.382775 70.5271456,119.194822 C70.5271456,121.425034 71.3147106,123.254478 72.8898641,124.683207 C74.4650176,126.111937 76.4076778,126.826291 78.7179029,126.826291 Z M144.28334,83.0237526 C148.69377,83.0237526 152.631594,84.1388418 156.096932,86.3690538 C159.56227,88.5992658 162.257492,91.7528777 164.18268,95.829984 C166.107867,99.9070903 167.070447,104.59395 167.070447,109.890703 C167.070447,115.187457 166.107867,119.822047 164.18268,123.794612 C162.257492,127.767177 159.579771,130.833672 156.149437,132.99419 C152.719103,135.154708 148.763776,136.234951 144.28334,136.234951 C140.642985,136.234951 137.387717,135.468327 134.517437,133.935056 C131.647157,132.401785 129.441975,130.276146 127.901825,127.558076 L127.901825,148.884371 C127.901825,150.696418 127.306776,152.125127 126.11666,153.170538 C124.926544,154.21595 123.351414,154.738648 121.391223,154.738648 C119.431032,154.738648 117.838401,154.181104 116.613282,153.065998 C115.388162,151.950892 114.775612,150.487337 114.775612,148.67529 L114.775612,89.4007331 C114.775612,87.5189917 115.353159,86.0205905 116.508272,84.9054845 C117.663384,83.7903785 119.221013,83.2328339 121.181204,83.2328339 C123.141395,83.2328339 124.716525,83.7903785 125.906641,84.9054845 C127.096757,86.0205905 127.691806,87.5189917 127.691806,89.4007331 L127.691806,92.0142497 C129.231956,89.1567906 131.454639,86.9440353 134.359922,85.3759175 C137.265205,83.8077997 140.572978,83.0237526 144.28334,83.0237526 Z M142.458796,126.094506 C146.589199,126.094506 149.809464,124.683221 152.119689,121.860609 C154.429914,119.037997 155.58501,115.048069 155.58501,109.890703 C155.58501,104.59395 154.429914,100.482058 152.119689,97.5549049 C149.809464,94.6277517 146.589199,93.164197 142.458796,93.164197 C138.258387,93.164197 135.02062,94.5929051 132.745398,97.4503643 C130.470176,100.307823 129.332583,104.384869 129.332583,109.681622 C129.332583,114.908681 130.470176,118.95088 132.745398,121.808339 C135.02062,124.665798 138.258387,126.094506 142.458796,126.094506 Z M141.644091,100.025552 C142.601943,99.3780892 143.756818,99 145,99 C148.313708,99 151,101.686292 151,105 C151,106.854231 150.158891,108.51201 148.8374,109.612612 C148.944012,109.091728 149,108.552402 149,108 C149,103.798542 145.761187,100.353549 141.644091,100.025552 Z" id="Combined-Shape" fill-opacity="0.5"></path>
                </g>
            </g>
        </g>
    </g>
</svg>